<svg width="234" height="96" viewBox="0 0 234 96" fill="none" xmlns="http://www.w3.org/2000/svg">
<rect width="234" height="96" fill="white"/>
<path d="M104.987 78.9401C104.842 79.7873 105.14 80.0817 106.075 80.0142C106.427 79.9879 106.816 80.018 107.118 79.9058C109.503 79.0023 111.873 78.0719 114.241 77.1411C114.316 77.1115 114.382 76.9239 114.359 76.9087C114.182 76.7857 113.96 76.5837 113.791 76.596C111.468 76.7847 109.144 76.9733 106.835 77.2272C105.468 77.3779 105.198 77.6914 104.987 78.9401ZM221.928 45.0679C222.121 45.7519 221.048 46.546 222.364 47.1496C222.385 47.1597 222.298 47.5498 222.167 47.5934C220.675 48.1046 219.794 49.4173 217.96 49.5177C216.571 49.5942 216.176 51.0828 214.52 51.1073C213.136 51.1283 211.786 51.6363 210.483 52.0482C210 52.2016 209.654 52.6679 209.326 53.0426C209.063 53.3426 209.519 53.9289 209.975 53.9189C210.803 53.8998 211.642 53.7359 212.445 53.8563C213.459 54.0069 213.457 53.0708 214.084 52.9984C215.345 52.8518 216.71 52.995 217.466 51.9043C217.542 51.7944 217.95 51.7451 218.121 51.818C219.733 52.4941 220.793 51.7526 222.012 51.1559C222.968 50.6879 224.15 50.5166 225.329 50.1856C225.424 51.1876 224.63 51.5941 223.959 51.7755C220.414 52.7327 217.202 54.1643 214.139 55.8397C213.87 55.9882 213.492 56.1743 213.212 56.1155C211.387 55.7328 210.263 56.6269 209.208 57.4883C208.485 58.0771 207.886 58.5448 206.768 58.097C206.569 58.0185 206.295 58.0575 206.066 58.083C204.339 58.2779 203.71 59.1353 204.218 60.5827C204.894 62.519 204.872 62.5518 202.952 62.9371C202.39 63.0506 201.826 63.1746 201.295 63.351C201.169 63.3943 201.056 63.7598 201.131 63.824C202.462 64.9868 201.587 65.0424 200.43 64.8513C199.201 64.6473 198.261 65.3727 197.053 65.2622C196.025 65.1685 194.956 65.1228 193.97 65.2724C193.091 65.4046 192.299 65.8308 191.367 66.1636C191.948 66.8598 192.809 66.8742 193.535 67.0668C193.984 67.1864 194.598 66.9922 194.936 67.1905C195.499 67.5233 196.128 68.0104 196.317 68.5151C196.545 69.1363 195.948 69.716 195.264 69.859C193.824 70.1632 192.32 70.3013 190.842 70.5147C190.274 70.5974 189.562 70.5638 189.193 70.8381C188.851 71.0939 188.724 71.6978 188.801 72.1295C188.842 72.3578 189.525 72.7159 189.899 72.7222C190.706 72.7392 191.496 72.5446 192.301 72.4839C192.511 72.4678 192.784 72.5879 192.979 72.7042C193.262 72.8722 193.538 73.0745 193.728 73.309C193.776 73.369 193.537 73.6737 193.353 73.75C192.327 74.1832 191.335 74.7286 190.228 74.9504C188.713 75.2531 187.334 75.5709 186.758 76.9089C185.903 76.979 185.559 78.1998 184.368 77.517C178.967 77.6232 174.468 78.1356 169.765 79.1813C169.651 79.2061 169.522 79.234 169.446 79.2977C169.373 79.3588 169.294 79.4962 169.329 79.5523C169.429 79.7017 169.617 79.9504 169.724 79.9421C171.85 79.7616 173.963 79.522 176.093 79.3541C178.105 79.197 180.125 79.0489 182.155 79.0143C183.451 78.9921 184.778 79.1251 186.079 79.2973C187.616 79.4973 189.139 79.937 190.654 79.4618C190.964 79.3662 191.371 79.3075 191.685 79.3912C192.444 79.5905 193.177 79.8842 193.923 80.1403C193.952 81.162 192.738 80.8138 192.153 81.1445C191.512 81.5071 190.629 81.5924 189.84 81.771C184.421 82.9949 178.841 83.748 173.353 84.7632C167.972 85.7582 162.533 86.5246 157.057 87.1959C155.435 87.3953 153.946 88.0808 152.335 88.3479C147.833 89.0961 143.488 90.3324 138.828 90.6045C138.241 90.6388 137.628 90.7396 137.114 90.9433C133.275 92.468 128.923 92.6573 124.845 93.5557C124.66 93.5977 124.411 93.4854 124.191 93.4444C124.323 93.2254 124.383 92.8774 124.595 92.8038C126.212 92.254 127.862 91.7641 129.495 91.2427C130.342 90.9717 130.354 90.5398 129.528 89.9732C129.245 89.7784 128.871 89.665 128.622 89.4471C128.081 88.9716 128.176 88.2201 128.795 87.8978C129.873 87.3397 130.976 86.8135 132.045 86.2463C132.696 85.9034 132.709 85.2635 131.986 84.8557C131.407 84.5318 130.687 84.2512 130.03 84.2046C128.478 84.0908 126.924 84.1788 125.371 84.0797C124.822 84.0444 123.444 84.2881 124.322 83.0878C124.042 82.9352 123.737 82.6364 123.488 82.6504C120.213 82.8467 116.791 81.8582 113.616 82.8983C113.118 83.062 112.41 83.1035 111.901 82.9379C110.61 82.5237 109.537 82.8908 108.437 83.1961C107.074 83.5766 107.059 83.6793 107.062 85.1046C107.064 85.6895 106.961 86.2816 106.777 86.834C106.701 87.0731 106.338 87.3366 106.04 87.3812C105.449 87.4713 105.196 87.0565 105.162 86.6436C105.061 85.3681 103.954 84.8644 102.751 84.749C101.589 84.6388 100.377 84.7727 99.245 84.9719C89.1305 86.7508 79.302 89.2755 69.2664 91.2636C66.0785 91.8967 62.9896 92.801 59.7986 93.4305C56.6039 94.0593 53.3401 94.5062 50.0982 95.0066C49.9461 95.0297 49.7164 94.8083 49.5254 94.7002C49.6525 94.5531 49.7415 94.318 49.9121 94.2792C50.3577 94.1779 50.8715 94.2241 51.2899 94.0861C51.5377 94.0062 51.8638 93.582 51.7936 93.4922C51.3535 92.9238 51.4638 92.583 52.1827 92.4173C55.6912 91.6088 59.2021 90.8067 62.7113 90.0042C71.2071 88.061 79.7014 86.116 88.1989 84.1746C90.5755 83.6322 92.9128 82.9421 95.3487 82.6019C97.2838 82.3327 98.5524 81.5927 99.3735 80.216C99.4748 80.0444 99.5712 79.8688 99.7825 79.502C98.7947 79.2585 97.8823 79.4138 97.0619 79.5696C93.5145 80.2469 89.9797 80.9669 86.4671 81.7389C77.7202 83.6632 68.9976 85.6384 60.2513 87.5599C58.2058 88.0078 56.1089 88.3295 54.0265 88.6838C53.3344 88.8013 52.533 89.0635 51.925 88.8751C50.2183 88.3466 48.6736 89.2026 47.0249 88.7958C46.687 88.7134 46.3139 88.7013 46.0028 88.5707C45.8208 88.4942 45.6151 88.2389 45.6217 88.0811C45.6265 87.8367 45.7198 87.4656 45.9205 87.3912C47.6225 86.7735 49.3598 86.2193 51.0703 85.6167C51.2266 85.5632 51.3798 85.2949 51.3333 85.1636C51.2812 85.0119 51.024 84.8325 50.8246 84.7853C49.1758 84.3889 47.5342 84.2051 45.8322 84.2666C43.7003 84.3418 41.5356 84.2067 39.3848 84.1369C39.1866 84.1315 38.9802 83.937 38.7791 83.8314C38.9594 83.6384 39.0903 83.3284 39.3274 83.2732C41.7002 82.7211 44.0917 82.2099 46.4776 81.6887C47.0486 81.5633 47.7097 81.4575 47.635 80.815C47.5591 80.1498 46.9873 79.6845 46.2506 79.5076C45.8377 79.4072 45.3528 79.5424 44.9088 79.5979C44.689 79.6239 44.4742 79.7877 44.2821 79.7523C44.0825 79.7154 43.828 79.5322 43.758 79.3739C43.7001 79.2419 43.831 78.9319 43.955 78.9061C44.7472 78.7476 45.5748 78.6809 46.3598 78.5106C46.9086 78.3912 47.6684 78.2798 47.8825 77.9463C48.4024 77.1281 49.2612 77.0677 50.1871 76.8734C50.8049 76.744 51.337 76.2673 51.7805 75.8503C52.2076 75.4478 51.679 74.661 50.9678 74.4907C49.3411 74.0987 47.5848 73.9143 46.1327 73.233C44.6779 72.5467 43.4145 72.5411 42.0196 72.7725C41.5721 72.8451 41.1228 73.09 40.6994 73.0322C36.947 72.5307 33.3916 72.8837 29.9703 73.9372C29.7621 74.0012 29.4838 74.0423 29.2797 73.9807C26.0637 72.99 23.4998 74.3353 20.8012 75.1272C19.5515 75.4947 18.8465 75.5234 18.3066 74.9366C17.922 74.5221 17.6888 72.6209 18.0076 72.3009C18.2979 72.0079 18.735 71.7858 18.9112 71.4507C19.0817 71.1249 19.1672 70.6496 19.003 70.3208C18.7037 69.7092 18.0378 69.8395 17.4585 69.9676C16.8893 70.0933 16.3331 70.2499 15.76 70.357C14.3428 70.6226 13.524 70.2522 12.8878 69.0647C12.7899 68.883 12.7146 68.6657 12.7349 68.4779C12.812 67.6798 14.4581 66.7667 15.5799 66.8764C16.7486 66.9909 16.8489 66.7864 16.7332 65.9557C16.557 64.7188 15.0546 64.8841 14.2858 64.0434C15.6585 63.1754 17.0051 62.448 18.804 62.0742C22.3239 61.3424 25.7164 60.2891 29.392 59.9482C30.1943 59.8735 30.9496 59.5545 31.707 59.3117C32.5134 59.0534 32.3236 58.7761 31.7531 58.2754C30.824 57.4606 30.8902 57.4069 31.9274 56.9047C32.1266 56.8091 32.3553 56.7389 32.508 56.6073C32.6607 56.4757 32.8202 56.2814 32.8102 56.1114C32.8028 56.0043 32.5018 55.8326 32.309 55.7911C31.111 55.5353 29.8188 56.1725 28.6795 55.3068C29.9111 55.0398 31.1388 54.7631 32.3749 54.5118C36.3619 53.7052 40.3541 52.9205 44.3322 52.0913C45.2336 51.9041 46.1433 51.6664 46.6246 50.897C46.8985 50.4564 47.1237 50.1921 46.5081 49.6393C45.6305 48.8541 45.7245 48.3836 46.4615 47.8973C47.5247 47.198 48.6011 46.5088 49.7317 45.884C50.2083 45.6178 50.2727 45.305 50.154 44.902C49.9877 44.3348 49.525 43.9657 48.842 44.0761C47.1672 44.3468 45.8122 43.7548 44.5249 42.8625C43.7005 42.2903 43.0201 42.2822 42.6104 43.1536C42.5779 43.22 42.4156 43.256 42.3031 43.2722C42.0719 43.3078 41.6761 43.3998 41.6246 43.3315C40.6325 42.0356 38.9579 43.4843 38.1994 42.659C37.2805 41.6588 36.0853 42.4343 35.256 41.8001C34.2364 41.0163 33.1918 41.4501 32.1699 41.5597C27.708 42.0394 23.2593 42.5678 18.7929 43.0317C15.856 43.3387 12.898 43.5493 9.9597 43.8442C9.15228 43.9252 8.58536 43.8476 8.26208 43.0974C8.05023 42.6044 7.56884 42.6361 7.08651 42.7777C6.7816 42.8655 6.44815 42.9714 6.1318 42.9439C4.48655 42.7981 2.84409 42.6096 1.09301 42.4278C1.70276 41.4951 2.70619 41.7656 3.48836 41.6958C7.96857 41.2971 12.4782 41.0292 16.9508 40.5918C21.7872 40.1171 26.5231 39.2921 31.1055 38.0467C31.7682 37.8653 32.4746 37.7818 33.1549 37.6367C34.8886 37.2633 36.424 36.645 37.6263 35.2017C34.2908 34.7805 31.3079 35.2316 28.378 35.772C25.9751 36.2154 23.5251 36.3862 21.0905 36.6627C19.1082 36.8898 17.0807 36.6437 15.0899 37.0193C13.3143 37.3531 11.3996 37.3379 9.59481 37.703C8.80839 37.8612 7.93218 37.8171 7.09576 37.7749C6.84176 37.7613 6.5804 37.4487 6.32439 37.2726C6.53547 37.0887 6.72135 36.8775 6.96385 36.7281C7.1405 36.6207 7.42132 36.6248 7.60321 36.5198C8.03072 36.2691 7.91668 35.4208 7.40575 35.2741C6.84991 35.1125 6.24638 34.9979 5.67285 34.9918C4.36165 34.9767 3.05813 35.0955 1.7488 35.0614C0.283549 35.0215 -0.639223 34.5485 -0.288357 34.3554C0.250217 34.057 0.943531 33.8089 1.59475 33.8096C2.67888 33.8106 3.42291 32.3306 4.76218 33.4995C4.82107 33.55 5.21436 33.4322 5.34922 33.3134C6.35085 32.4234 7.70852 32.1578 9.10611 31.9612C12.9233 31.4196 16.745 30.8937 20.5602 30.3428C20.73 30.3173 20.8399 30.0938 20.977 29.9636C20.7844 29.8537 20.5837 29.65 20.4018 29.6493C17.7751 29.6406 15.154 29.8247 12.5339 29.0156C12.1406 28.8939 11.6243 29.167 11.1558 29.182C9.86523 29.2171 8.33628 29.9274 7.59785 28.1676C7.56593 28.0973 6.9483 28.139 6.61413 28.1718C5.91702 28.2378 5.22968 28.3607 4.52949 28.4037C3.81951 28.4477 3.03097 28.5877 2.40064 28.3769C1.81678 28.1829 1.43048 27.5465 0.890288 27.1723C0.56192 26.9461 0.109911 26.8498 -0.36977 26.6617C0.95905 26.4737 2.12675 26.3441 3.27046 26.1428C9.60383 25.0317 16.0796 24.4829 22.5444 23.8933C26.9034 23.4972 31.2523 23.0559 35.6159 22.6845C41.0379 22.2226 46.4738 21.8349 51.8955 21.3745C56.0267 21.0251 60.1431 20.6162 64.2684 20.2298C71.2249 19.5764 78.1934 18.9774 85.1326 18.2476C92.18 17.5037 99.2126 16.6899 106.22 15.7909C110.775 15.2079 115.241 14.2858 119.81 13.762C122.839 13.4154 125.742 12.6479 128.858 12.5835C130.13 12.5565 131.346 12.0857 132.589 11.8209C145.905 8.98481 159.229 6.16805 172.533 3.29965C176.048 2.54162 179.495 1.60175 182.989 0.788847C183.736 0.615437 184.558 0.297834 185.568 1.04685C182.698 1.83278 179.961 2.60228 177.201 3.32833C174.524 4.03371 171.817 4.67806 169.138 5.38022C168.478 5.55483 167.679 5.71184 167.284 6.11627C166.537 6.88029 165.778 7.15386 164.531 6.91216C163.889 6.78691 163.132 7.02686 162.484 7.21549C160.717 7.72224 158.884 8.15309 157.266 8.87971C156.098 9.4048 155.225 10.3489 154.242 11.1252C154.101 11.2383 153.973 11.5711 154.034 11.6191C154.287 11.8123 154.651 12.0814 154.914 12.0567C156.549 11.9028 158.318 11.9277 159.749 11.4015C161.091 10.9053 162.467 10.8532 163.844 10.6539C164.379 10.5763 165.067 10.4609 165.262 11.1052C165.3 11.2303 164.592 11.5246 164.18 11.649C160.133 12.8823 156.113 14.1791 152.002 15.2778C150.386 15.7088 149.093 16.4054 147.659 17.4663C148.553 17.5349 149.22 17.5848 149.889 17.6368C150.357 17.6737 150.855 17.6364 151.281 17.778C151.565 17.8705 151.785 18.206 151.95 18.4664C151.996 18.5411 151.789 18.7913 151.632 18.8595C151.015 19.126 150.397 19.4085 149.732 19.5835C148.052 20.0227 147.708 21.5929 146.366 22.3257C146.241 22.393 146.509 23.0681 146.75 23.3841C146.887 23.5631 147.5 23.7436 147.631 23.6567C149.509 22.3795 151.463 23.5672 153.366 23.8777C154.359 24.0389 155.09 25.3197 156.27 24.678C157.289 24.1245 158.314 24.7949 159.37 24.6461C163.179 24.1102 167.07 23.9151 170.949 23.6685C172.684 23.5571 174.341 22.9631 176.011 22.5353C182.164 20.9568 188.265 19.2534 194.465 17.7914C201.114 16.2228 207.572 14.2472 214.177 12.6028C218.504 11.5221 222.73 10.0568 227.435 9.86661C229.075 9.79872 230.654 9.31706 232.275 9.07582C232.544 9.03721 232.891 9.2657 233.201 9.37086C233.026 9.6022 232.923 9.92664 232.667 10.0509C231.269 10.7264 229.915 11.5133 228.397 11.9641C224.772 13.0422 221.08 13.9926 217.384 14.9228C213.685 15.8524 209.956 16.6912 206.332 17.8069C203.06 18.8172 199.562 19.3899 196.204 20.2418C189.247 22.0064 182.265 23.7181 175.395 25.6635C170.812 26.9622 166.357 28.5497 162.16 30.647C162.834 31.2041 163.487 31.0907 164.001 30.9897C168.656 30.0726 173.421 29.4543 177.929 28.1329C181.347 27.1324 184.819 26.2378 188.277 25.3195C189.282 25.0533 190.3 24.7168 191.349 24.6707C193.291 24.5887 195.092 24.2049 196.774 23.5327C197.657 23.1796 198.652 22.9857 199.49 23.2975C200.801 23.784 201.828 23.4181 202.891 23.104C205.088 22.4529 207.254 21.7375 209.419 21.0264C211.258 20.4227 213.13 19.8761 214.538 18.6494C215.067 18.1898 215.533 18.3366 216.121 19.1456C216.626 19.8385 216.972 20.101 217.554 19.3071C217.904 18.8312 218.546 18.8004 219.142 19.031C220.259 19.4609 221.167 19.4802 221.952 18.6406C222.1 18.4828 222.845 18.6555 223.277 18.785C223.7 18.9126 223.859 19.6598 223.522 19.8036C222.498 20.2414 221.486 20.9539 220.4 20.9779C218.973 21.008 218.551 21.5751 218.283 22.4839C218.098 23.1028 217.718 23.2811 217.045 22.8404C215.745 21.987 214.56 22.5281 213.442 22.8981C210.854 23.7583 208.331 24.7369 205.755 25.6219C204.488 26.0573 203.179 26.4277 201.861 26.7636C200.268 27.1711 198.256 27.0265 197.829 28.8879C197.813 28.9548 197.42 29.0131 197.248 28.9563C196.913 28.8478 196.622 28.5724 196.292 28.5229C195.983 28.4776 195.402 28.5785 195.371 28.7122C195.292 29.0518 195.304 29.548 195.554 29.7913C195.824 30.052 196.421 30.0656 196.845 30.2441C197.921 30.6971 198.085 31.5256 197.201 32.1059C196.943 32.2731 196.547 32.2906 196.262 32.4343C195.842 32.6464 195.916 33.2339 196.4 33.3425C197.555 33.603 198.738 33.7441 199.888 34.0171C201.356 34.3624 202.64 34.4941 203.83 33.5228C204.416 33.0449 205.182 33.6129 205.522 34.2222C205.796 34.7188 206.124 35.2736 206.776 35.1927C208.053 35.0344 208.542 36.5465 209.603 36.2886C211.508 35.8274 213.66 36.0626 215.397 35.1634C216.609 34.5355 217.983 34.2939 219.44 34.2891C219.655 34.2874 219.881 34.4294 220.104 34.505C220.045 34.6361 220.032 34.8522 219.924 34.887C217.659 35.6197 215.386 36.3392 213.108 37.0439C212.252 37.3073 211.826 38.577 212.406 39.2342C213.56 40.5431 214.941 40.9366 216.775 40.4746C217.112 40.3888 217.443 40.2915 217.776 40.1988C219.44 39.7341 219.484 39.7132 220.469 41.067C220.941 41.7221 221.467 41.918 222.255 41.7319C222.594 41.6508 222.93 41.547 223.279 41.5185C223.456 41.5062 223.779 41.614 223.823 41.718C223.881 41.8529 223.784 42.1459 223.656 42.1842C222.454 42.5584 221.242 42.9186 220.012 43.229C219.299 43.4094 218.62 43.2513 217.986 42.8004C217.777 42.6514 217.358 42.7135 217.035 42.6788C217.103 42.8664 217.171 43.054 217.247 43.2402C217.731 44.4405 217.735 44.4681 216.722 44.8219C215.34 45.3043 213.944 45.7629 212.492 46.2521C213.11 47.0136 213.623 46.4946 214.09 46.4793C214.67 46.4613 215.23 46.2876 215.791 46.1558C217.808 45.6783 219.769 45.0306 221.975 45.1398L221.928 45.0679Z" fill="#1E5C49"/>
<path d="M50.4427 59V57.944C51.04 57.944 51.5094 57.9013 51.8507 57.816C52.192 57.7307 52.4587 57.56 52.6507 57.304C52.864 57.048 53.0667 56.6747 53.2587 56.184L60.2987 37.88H63.3707L70.0267 56.344C70.1974 56.8133 70.3574 57.1653 70.5067 57.4C70.6774 57.6133 70.912 57.7627 71.2107 57.848C71.5094 57.912 71.936 57.944 72.4907 57.944V59H62.8907V57.944H64.4267C64.8534 57.944 65.12 57.8267 65.2267 57.592C65.3334 57.336 65.312 57.0053 65.1627 56.6L60.0747 42.424H59.9787L54.9547 56.696C54.8267 57.1227 54.816 57.4427 54.9227 57.656C55.0507 57.848 55.328 57.944 55.7547 57.944H57.0987V59H50.4427ZM56.2987 51.512L56.4907 50.328H63.5627L63.7227 51.512H56.2987ZM83.0182 59.384C82.2929 59.384 81.6315 59.3093 81.0342 59.16C80.4582 59.032 79.9142 58.8613 79.4022 58.648C78.9115 58.4347 78.4102 58.2 77.8982 57.944L78.6342 54.968C78.8475 55.288 79.0822 55.64 79.3382 56.024C79.6155 56.408 79.9142 56.7707 80.2342 57.112C80.5755 57.432 80.9489 57.6987 81.3542 57.912C81.7809 58.1253 82.2395 58.232 82.7302 58.232C83.8609 58.232 84.6929 57.7307 85.2262 56.728C85.7595 55.704 86.0262 54.0293 86.0262 51.704C86.0262 49.6987 85.7702 48.152 85.2582 47.064C84.7462 45.9547 83.9249 45.4 82.7942 45.4C82.3035 45.4 81.8555 45.528 81.4502 45.784C81.0449 46.04 80.6715 46.3387 80.3302 46.68C80.0102 47 79.7115 47.2987 79.4342 47.576L79.5302 45.848C79.9355 45.4213 80.3729 45.048 80.8422 44.728C81.3329 44.3867 81.8875 44.12 82.5062 43.928C83.1462 43.7147 83.8715 43.608 84.6822 43.608C86.5809 43.608 88.0742 44.2373 89.1622 45.496C90.2502 46.7547 90.7942 48.6213 90.7942 51.096C90.7942 52.9307 90.4742 54.4667 89.8342 55.704C89.2155 56.92 88.3302 57.8373 87.1782 58.456C86.0262 59.0747 84.6395 59.384 83.0182 59.384ZM75.6262 59V40.056C75.6262 39.5227 75.5622 39.1813 75.4342 39.032C75.3062 38.8613 75.0075 38.776 74.5382 38.776H73.6422V37.688L78.7302 36.92H80.1382V58.04H78.0902L77.1622 59H75.6262ZM79.4342 45.624V45.208H80.4902V45.624H79.4342ZM100.993 59.352C98.3054 59.352 96.3108 58.712 95.0094 57.432C93.7081 56.152 93.0574 54.1787 93.0574 51.512C93.0574 48.824 93.7188 46.8293 95.0414 45.528C96.3641 44.2267 98.3694 43.576 101.057 43.576C103.724 43.576 105.697 44.216 106.977 45.496C108.279 46.776 108.929 48.76 108.929 51.448C108.929 54.136 108.279 56.1307 106.977 57.432C105.697 58.712 103.703 59.352 100.993 59.352ZM101.025 58.232C102.156 58.232 102.967 57.6773 103.457 56.568C103.948 55.4587 104.172 53.752 104.129 51.448C104.108 49.1227 103.852 47.4267 103.361 46.36C102.892 45.272 102.092 44.728 100.961 44.728C99.8308 44.728 99.0201 45.304 98.5294 46.456C98.0601 47.608 97.8254 49.304 97.8254 51.544C97.8254 53.8693 98.0708 55.5653 98.5614 56.632C99.0521 57.6987 99.8734 58.232 101.025 58.232ZM117.326 59.384C115.897 59.384 114.777 58.9893 113.966 58.2C113.156 57.3893 112.75 56.1307 112.75 54.424V46.808C112.75 46.3173 112.686 45.9973 112.558 45.848C112.43 45.6773 112.174 45.592 111.79 45.592H110.734V44.536L115.854 43.8H117.262V54.04C117.262 54.8507 117.348 55.5013 117.518 55.992C117.71 56.4827 117.988 56.8453 118.35 57.08C118.713 57.2933 119.14 57.4 119.63 57.4C120.036 57.4 120.409 57.3253 120.75 57.176C121.092 57.0053 121.433 56.7813 121.774 56.504C122.116 56.2053 122.457 55.8853 122.798 55.544L122.926 56.6C122.649 56.92 122.265 57.2933 121.774 57.72C121.284 58.1467 120.665 58.5307 119.918 58.872C119.193 59.2133 118.329 59.384 117.326 59.384ZM122.67 59V56.952H122.542V46.808C122.542 46.3173 122.478 45.9973 122.35 45.848C122.244 45.6773 121.998 45.592 121.614 45.592H120.558V44.536L125.646 43.8H127.054V56.696C127.054 57.0587 127.097 57.336 127.182 57.528C127.289 57.6987 127.481 57.816 127.758 57.88C128.036 57.9227 128.452 57.944 129.006 57.944V59H122.67ZM136.276 59.384C135.402 59.384 134.644 59.2347 134.004 58.936C133.364 58.616 132.874 58.1147 132.532 57.432C132.212 56.728 132.052 55.8107 132.052 54.68V45.112H130.132V44.056C130.986 43.8853 131.775 43.5333 132.5 43C133.226 42.4453 133.844 41.7627 134.356 40.952C134.89 40.12 135.284 39.2347 135.54 38.296H136.596V43.96H139.732V45.112H136.596V54.488C136.596 55.4693 136.724 56.216 136.98 56.728C137.258 57.2187 137.738 57.464 138.42 57.464C138.804 57.464 139.156 57.3893 139.476 57.24C139.818 57.0693 140.052 56.9413 140.18 56.856L140.724 57.752C140.447 57.944 140.116 58.168 139.732 58.424C139.348 58.68 138.879 58.904 138.324 59.096C137.77 59.288 137.087 59.384 136.276 59.384ZM148.583 59V57.944H149.223C149.991 57.944 150.46 57.8267 150.631 57.592C150.823 57.336 150.919 56.888 150.919 56.248V40.76C150.919 40.2267 150.865 39.832 150.759 39.576C150.673 39.32 150.46 39.1493 150.119 39.064C149.799 38.9787 149.276 38.936 148.551 38.936V37.88H155.943L161.575 52.28H161.639L167.143 37.88H174.215V38.936C173.532 38.936 173.02 38.9787 172.679 39.064C172.359 39.1493 172.145 39.32 172.039 39.576C171.953 39.832 171.911 40.2267 171.911 40.76V56.152C171.911 56.6427 171.953 57.0267 172.039 57.304C172.145 57.56 172.359 57.7307 172.679 57.816C173.02 57.9013 173.532 57.944 174.215 57.944V59H164.935V57.944C165.617 57.944 166.108 57.9013 166.407 57.816C166.705 57.7093 166.897 57.528 166.983 57.272C167.068 57.016 167.111 56.6427 167.111 56.152V41.336H167.047L160.583 58.552H158.951L152.327 41.528H152.295V56.248C152.295 56.952 152.391 57.4107 152.583 57.624C152.775 57.8373 153.255 57.944 154.023 57.944H154.983V59H148.583ZM182.508 59.352C180.162 59.352 178.37 58.7013 177.132 57.4C175.916 56.0773 175.308 54.1147 175.308 51.512C175.308 49.7413 175.586 48.2693 176.14 47.096C176.716 45.9227 177.538 45.048 178.604 44.472C179.692 43.896 181.026 43.608 182.604 43.608C183.842 43.608 184.908 43.7893 185.804 44.152C186.7 44.4933 187.426 45.0053 187.98 45.688C188.556 46.3493 188.972 47.1493 189.228 48.088C189.506 49.0267 189.644 50.104 189.644 51.32V51.608H178.028V50.456H184.876C184.876 49.1547 184.812 48.088 184.684 47.256C184.578 46.424 184.354 45.8053 184.012 45.4C183.692 44.9733 183.212 44.76 182.572 44.76C182.039 44.76 181.58 44.9307 181.196 45.272C180.834 45.6133 180.556 46.2107 180.364 47.064C180.172 47.9173 180.076 49.1013 180.076 50.616C180.076 51.7893 180.14 52.8027 180.268 53.656C180.396 54.488 180.599 55.1813 180.876 55.736C181.175 56.2907 181.57 56.7067 182.06 56.984C182.572 57.24 183.191 57.368 183.916 57.368C184.663 57.368 185.303 57.2507 185.836 57.016C186.391 56.76 186.86 56.408 187.244 55.96C187.65 55.512 187.98 54.9893 188.236 54.392L189.324 54.968C189.047 55.6293 188.663 56.3013 188.172 56.984C187.682 57.6667 186.988 58.232 186.092 58.68C185.218 59.128 184.023 59.352 182.508 59.352Z" fill="#F8E5BD"/>
</svg>
