<svg width="227" height="64" viewBox="0 0 227 64" fill="none" xmlns="http://www.w3.org/2000/svg">
<path d="M113.757 49.3063C113.784 49.749 114.133 49.8665 115.037 49.7346C115.376 49.6845 115.763 49.659 116.037 49.5708C118.197 48.8651 120.336 48.1475 122.473 47.4299C122.541 47.4071 122.568 47.3055 122.542 47.3003C122.345 47.2567 122.087 47.178 121.924 47.2019C119.684 47.5403 117.444 47.8786 115.23 48.2484C113.92 48.4675 113.717 48.654 113.757 49.3063ZM221.686 19.9734C222.01 20.2984 221.116 20.8114 222.526 20.9784C222.548 20.9813 222.54 21.1873 222.42 21.2231C221.059 21.6371 220.455 22.3918 218.677 22.6345C217.331 22.8184 217.238 23.6111 215.619 23.7968C214.267 23.9522 213.044 24.3499 211.848 24.6941C211.405 24.822 211.158 25.0936 210.911 25.317C210.713 25.4959 211.275 25.7442 211.72 25.6914C212.528 25.5952 213.318 25.4246 214.13 25.4013C215.153 25.3712 214.966 24.899 215.566 24.7968C216.774 24.5909 218.139 24.5204 218.665 23.8907C218.717 23.8274 219.108 23.7598 219.29 23.7786C221.004 23.9512 221.896 23.466 222.973 23.0373C223.817 22.7011 224.942 22.4909 226.032 22.2005C226.323 22.6963 225.626 22.9846 225.004 23.1462C221.718 24.0004 218.853 25.059 216.182 26.2251C215.948 26.3282 215.614 26.4618 215.328 26.4613C213.463 26.4592 212.539 27.028 211.675 27.5732C211.082 27.946 210.588 28.2448 209.404 28.1357C209.193 28.117 208.932 28.1653 208.713 28.2022C207.059 28.4812 206.611 28.9798 207.395 29.6572C208.441 30.5637 208.426 30.5826 206.621 30.9779C206.091 31.0942 205.564 31.2156 205.078 31.3603C204.963 31.3953 204.925 31.5916 205.011 31.6161C206.546 32.0637 205.699 32.1834 204.527 32.2081C203.281 32.2337 202.503 32.6982 201.298 32.7688C200.272 32.829 199.215 32.9179 198.278 33.0965C197.443 33.2553 196.75 33.5533 195.902 33.8188C196.61 34.1093 197.457 34.0265 198.206 34.0478C198.67 34.0611 199.233 33.8989 199.604 33.9636C200.222 34.0726 200.935 34.2527 201.219 34.4876C201.566 34.7773 201.096 35.1323 200.454 35.2761C199.103 35.5803 197.655 35.8074 196.249 36.0697C195.708 36.171 195.004 36.2285 194.696 36.4055C194.411 36.5705 194.407 36.8885 194.567 37.0984C194.652 37.2093 195.393 37.3186 195.761 37.2826C196.555 37.2068 197.291 37.0259 198.069 36.911C198.271 36.8809 198.563 36.9129 198.777 36.9512C199.087 37.0064 199.397 37.0797 199.631 37.1781C199.689 37.2034 199.515 37.3822 199.35 37.4399C198.431 37.7659 197.566 38.145 196.524 38.3728C195.099 38.6841 193.81 38.9889 193.51 39.7244C192.686 39.8493 192.591 40.5014 191.288 40.2815C186.015 40.9002 181.706 41.6296 177.303 42.6496C177.196 42.674 177.075 42.7015 177.014 42.7416C176.954 42.7802 176.903 42.8578 176.948 42.8824C177.076 42.9473 177.31 43.0532 177.413 43.0378C179.461 42.7242 181.485 42.3822 183.539 42.0746C185.481 41.7848 187.432 41.4986 189.415 41.2687C190.68 41.1219 192.008 41.0501 193.318 41.0009C194.864 40.941 196.444 41.0036 197.834 40.6052C198.12 40.5245 198.506 40.4524 198.831 40.4617C199.615 40.4828 200.391 40.5544 201.173 40.6056C201.404 41.1182 200.145 41.0695 199.637 41.2977C199.08 41.5478 198.231 41.6833 197.493 41.8559C192.423 43.0407 187.103 44.0047 181.924 45.0914C176.846 46.1567 171.666 47.1126 166.432 48.0244C164.881 48.2948 163.557 48.7966 162.031 49.1C157.765 49.9488 153.751 51.0274 149.237 51.6524C148.668 51.7312 148.088 51.8461 147.625 52.0027C144.163 53.174 139.934 53.7249 136.114 54.6051C135.942 54.6456 135.675 54.615 135.451 54.6174C135.537 54.493 135.527 54.3111 135.72 54.2518C137.197 53.805 138.717 53.3851 140.215 52.9511C140.992 52.7257 140.918 52.5064 139.996 52.3069C139.681 52.2381 139.292 52.22 139.004 52.1362C138.38 51.9528 138.324 51.5636 138.868 51.3361C139.813 50.9416 140.79 50.5606 141.726 50.1625C142.296 49.9213 142.183 49.5969 141.393 49.4668C140.761 49.3639 140 49.2976 139.347 49.3429C137.803 49.4478 136.297 49.6549 134.755 49.7674C134.21 49.807 132.908 50.0742 133.531 49.3765C133.226 49.3288 132.869 49.2098 132.626 49.243C129.455 49.6848 125.906 49.5439 122.999 50.4012C122.543 50.5359 121.858 50.6309 121.326 50.6006C119.978 50.5266 118.999 50.8242 117.982 51.0934C116.72 51.4281 116.726 51.4814 117.011 52.2006C117.128 52.4956 117.145 52.8052 117.074 53.1032C117.047 53.2318 116.743 53.4028 116.459 53.4565C115.898 53.5638 115.569 53.3809 115.453 53.1761C115.101 52.5429 113.917 52.4045 112.715 52.4721C111.555 52.5381 110.392 52.7326 109.322 52.9515C99.7598 54.9078 90.625 57.2105 81.1811 59.2641C78.1814 59.9172 75.3325 60.6968 72.3291 61.3485C69.3219 62.0002 66.211 62.5673 63.1322 63.159C62.9877 63.1866 62.7188 63.0989 62.5101 63.0644C62.6056 62.9768 62.6464 62.8489 62.8059 62.8114C63.2226 62.7137 63.7354 62.6832 64.1183 62.5698C64.3453 62.5035 64.5811 62.2553 64.4945 62.2173C63.9507 61.9765 63.9914 61.7929 64.6633 61.6341C67.9425 60.8588 71.2253 60.0866 74.5064 59.3144C82.4499 57.4446 90.3915 55.5741 98.3369 53.705C100.559 53.1825 102.714 52.5897 105.034 52.1631C106.878 51.8247 107.975 51.3185 108.507 50.5377C108.573 50.4405 108.633 50.3418 108.767 50.1345C107.751 50.115 106.887 50.2888 106.114 50.4533C102.77 51.1664 99.448 51.8997 96.1575 52.6569C87.9642 54.5434 79.8048 56.4531 71.6115 58.3381C69.695 58.7782 67.7032 59.16 65.7321 59.5567C65.0769 59.6885 64.3432 59.9047 63.71 59.8732C61.9324 59.7851 60.5876 60.3787 58.891 60.3459C58.5435 60.3397 58.1754 60.3726 57.8447 60.3393C57.6511 60.3197 57.3989 60.2124 57.3742 60.1321C57.3306 60.0082 57.3486 59.8112 57.5306 59.7526C59.0768 59.2627 60.6701 58.8012 62.2276 58.3181C62.3702 58.2747 62.4673 58.1233 62.3957 58.0619C62.3147 57.9908 62.027 57.9271 61.8222 57.9242C60.1276 57.8966 58.4822 57.9757 56.826 58.1848C54.751 58.4458 52.6024 58.6042 50.4803 58.794C50.2849 58.812 50.0442 58.7354 49.8262 58.7032C49.9647 58.5869 50.0317 58.4168 50.2532 58.3641C52.4699 57.8371 54.713 57.3289 56.9486 56.8161C57.4835 56.6931 58.1106 56.5705 57.9103 56.254C57.7043 55.9263 57.0517 55.7513 56.2946 55.739C55.87 55.7316 55.4215 55.8505 54.9972 55.925C54.7869 55.9612 54.6087 56.0663 54.4134 56.0685C54.2105 56.0708 53.9247 56.005 53.8249 55.9324C53.742 55.8718 53.809 55.7017 53.9254 55.6757C54.6706 55.5128 55.4686 55.3925 56.2044 55.2244C56.7187 55.1067 57.4415 54.971 57.5854 54.7803C57.9331 54.3129 58.763 54.1925 59.6321 53.9976C60.2122 53.8676 60.6394 53.5714 60.9916 53.3145C61.3307 53.0666 60.6569 52.7248 59.9261 52.7133C58.254 52.6857 56.4959 52.7764 54.9378 52.5845C53.3759 52.3903 52.1364 52.5197 50.8149 52.7824C50.3906 52.8659 49.9986 53.0365 49.5722 53.0517C45.7947 53.1912 42.3795 53.7414 39.2341 54.6312C39.0427 54.6852 38.7781 54.7351 38.5658 54.7254C35.2174 54.5619 32.9703 55.5092 30.4817 56.1913C29.3294 56.5075 28.644 56.5957 27.9987 56.3561C27.5397 56.1871 26.9351 55.2519 27.1842 55.0571C27.4109 54.8788 27.7954 54.721 27.9018 54.5334C28.0044 54.3511 27.9942 54.1023 27.7682 53.9535C27.3539 53.6762 26.7269 53.8116 26.1844 53.9369C25.6513 54.0599 25.1371 54.1971 24.5965 54.3111C23.2599 54.5935 22.384 54.4923 21.5254 53.9594C21.3936 53.878 21.2768 53.7762 21.2595 53.6793C21.1772 53.2684 22.6101 52.6353 23.7314 52.5733C24.8997 52.5088 24.9575 52.3951 24.6798 51.9879C24.2624 51.382 22.8224 51.6227 21.9024 51.2788C23.0763 50.6971 24.2524 50.189 25.9418 49.8122C29.2473 49.0744 32.3644 48.1878 35.8999 47.6312C36.6716 47.5095 37.3488 47.2694 38.0432 47.0676C38.7826 46.8529 38.5417 46.7328 37.8835 46.5398C36.8115 46.2258 36.8658 46.1917 37.7831 45.8297C37.9595 45.7607 38.1697 45.7012 38.2934 45.6188C38.4171 45.5364 38.535 45.4217 38.4915 45.3369C38.4631 45.2837 38.1341 45.2285 37.9368 45.2277C36.7119 45.224 35.5714 45.6808 34.2833 45.3631C35.4377 45.0995 36.5864 44.8313 37.7484 44.5752C41.497 43.7509 45.255 42.937 48.9905 42.1022C49.837 41.9134 50.6817 41.6983 51.0013 41.2595C51.1826 41.0085 51.3511 40.8516 50.6383 40.637C49.6227 40.3325 49.6218 40.0852 50.248 39.7626C51.1518 39.2984 52.0706 38.8379 53.0553 38.4043C53.4698 38.2201 53.4711 38.0554 53.275 37.8645C52.9997 37.5956 52.4732 37.4577 51.8255 37.5849C50.2373 37.8968 48.792 37.7398 47.3537 37.4241C46.4324 37.2216 45.7638 37.2887 45.5346 37.7714C45.5159 37.8083 45.3639 37.8435 45.2569 37.8634C45.0372 37.9056 44.6674 37.9934 44.6035 37.9643C43.3747 37.4141 42.0198 38.3205 41.113 37.9833C40.0143 37.5747 38.9962 38.0911 38.0579 37.8578C36.9033 37.5689 35.9652 37.8972 34.9852 38.0594C30.7064 38.7684 26.4502 39.5007 22.1638 40.2022C19.3457 40.6645 16.4879 41.0803 13.6659 41.5366C12.8905 41.662 12.3195 41.6821 11.8542 41.3373C11.549 41.1106 11.0834 41.177 10.6386 41.299C10.3571 41.3752 10.0512 41.4635 9.73562 41.4827C8.09404 41.5813 6.44678 41.6581 4.69434 41.7495C5.10753 41.215 6.14464 41.2465 6.89754 41.1294C11.2103 40.4594 15.5778 39.8523 19.8755 39.1635C24.5224 38.4178 29.0015 37.5058 33.2468 36.3977C33.8606 36.2368 34.5365 36.1208 35.1747 35.9763C36.8002 35.6064 38.183 35.1337 39.0759 34.2794C35.723 34.4159 32.8883 34.9557 30.1232 35.5351C27.8556 36.0103 25.4878 36.3529 23.156 36.7472C21.2579 37.0692 19.2218 37.1572 17.3446 37.5551C15.6702 37.9094 13.7903 38.102 12.0934 38.4752C11.3538 38.6373 10.4862 38.7067 9.65796 38.773C9.40629 38.7927 9.08827 38.6623 8.80248 38.6002C8.97301 38.4853 9.11343 38.3592 9.32159 38.2585C9.47349 38.1857 9.74956 38.1584 9.9071 38.0864C10.2766 37.9151 9.99697 37.4989 9.46711 37.4783C8.89028 37.4549 8.27601 37.4602 7.71262 37.5172C6.42435 37.6468 5.1701 37.8432 3.87992 37.963C2.43573 38.0961 1.43763 37.954 1.74335 37.8198C2.21225 37.6128 2.84277 37.415 3.48126 37.3473C4.54416 37.2343 4.9807 36.4095 6.52475 36.8593C6.59245 36.8786 6.95467 36.778 7.06336 36.7039C7.86912 36.1499 9.14741 35.8738 10.4785 35.6283C14.113 34.9555 17.7552 34.2902 21.386 33.6129C21.5474 33.5822 21.6109 33.458 21.7195 33.3779C21.509 33.3426 21.272 33.2608 21.0936 33.2795C18.5171 33.5499 15.9841 33.9171 13.2558 33.7829C12.8462 33.7627 12.3942 33.9545 11.9379 34.0111C10.6797 34.1639 9.32153 34.6824 8.24956 33.8714C8.20435 33.8393 7.60718 33.925 7.28612 33.9765C6.61584 34.0827 5.9664 34.2167 5.28856 34.3117C4.60133 34.4082 3.85606 34.5613 3.1965 34.5209C2.5858 34.4841 2.08124 34.2033 1.4777 34.071C1.11107 33.9912 0.648951 33.9899 0.141549 33.9452C1.40689 33.7112 2.52587 33.5236 3.60716 33.3023C9.59551 32.0788 15.8347 31.1242 22.055 30.1501C26.2495 29.494 30.4251 28.8162 34.6291 28.1721C39.8525 27.3717 45.1042 26.6072 50.3277 25.8074C54.3081 25.1988 58.2622 24.5616 62.2295 23.935C68.9192 22.8772 75.6315 21.8457 82.2892 20.7512C89.0501 19.6383 95.7827 18.4917 102.474 17.3046C106.824 16.5337 111.019 15.601 115.394 14.8585C118.294 14.3666 120.988 13.6755 124.03 13.3169C125.271 13.1702 126.37 12.8053 127.536 12.5416C140.028 9.71671 152.531 6.9008 165.004 4.06094C168.301 3.31048 171.493 2.47545 174.757 1.69954C175.455 1.53382 176.198 1.28749 177.336 1.55991C174.678 2.25689 172.148 2.9316 169.587 3.58687C167.102 4.22307 164.575 4.83159 162.088 5.46629C161.476 5.62342 160.724 5.78634 160.417 6.0318C159.836 6.49554 159.145 6.71311 157.875 6.72158C157.222 6.72551 156.527 6.92581 155.929 7.08891C154.298 7.52948 152.586 7.93877 151.143 8.47487C150.102 8.86214 149.433 9.42995 148.624 9.92461C148.507 9.99646 148.448 10.1778 148.518 10.1956C148.803 10.2667 149.213 10.3644 149.467 10.3244C151.038 10.0758 152.777 9.90317 154.076 9.48788C155.294 9.09696 156.632 8.9266 157.943 8.68192C158.452 8.58681 159.103 8.45659 159.422 8.76137C159.484 8.82053 158.848 9.04316 158.469 9.14906C154.745 10.1951 151.062 11.2702 147.25 12.2549C145.75 12.6416 144.621 13.1284 143.425 13.814C144.315 13.755 144.978 13.7105 145.645 13.6666C146.111 13.6363 146.591 13.5654 147.037 13.5923C147.334 13.6092 147.616 13.7555 147.829 13.8698C147.889 13.9026 147.735 14.0505 147.595 14.1014C147.043 14.3004 146.493 14.5077 145.876 14.6656C144.316 15.0631 144.289 15.8916 143.119 16.4019C143.01 16.4489 143.406 16.7617 143.705 16.8959C143.874 16.9719 144.511 16.9989 144.622 16.9413C146.21 16.1002 148.361 16.4952 150.288 16.4527C151.293 16.4302 152.263 17.0002 153.292 16.5528C154.181 16.1668 155.319 16.3979 156.325 16.2123C159.952 15.5433 163.728 15.0376 167.482 14.5072C169.16 14.2694 170.667 13.7962 172.219 13.4056C177.938 11.965 183.582 10.4668 189.37 9.08014C195.578 7.59267 201.517 5.91976 207.666 4.39867C211.694 3.40041 215.546 2.21863 220.121 1.6303C221.715 1.42442 223.167 1.01607 224.709 0.724682C224.964 0.677125 225.349 0.756131 225.675 0.776724C225.549 0.911755 225.512 1.0863 225.285 1.17585C224.049 1.66307 222.877 2.20193 221.479 2.58827C218.138 3.5118 214.707 4.37778 211.269 5.23403C207.826 6.09028 204.337 6.90386 201.006 7.84616C197.998 8.69855 194.682 9.35361 191.559 10.135C185.089 11.7535 178.584 13.3481 172.235 15.0488C167.999 16.1839 163.946 17.4514 160.247 18.9491C161.018 19.1598 161.635 19.0342 162.12 18.9294C166.501 17.9794 171.05 17.1687 175.207 16.0301C178.36 15.1674 181.586 14.3526 184.794 13.5273C185.726 13.2877 186.657 13.0114 187.677 12.8783C189.564 12.6337 191.253 12.2516 192.769 11.7363C193.565 11.4657 194.502 11.2637 195.385 11.3334C196.766 11.4418 197.7 11.1496 198.68 10.8799C200.705 10.3213 202.687 9.73359 204.668 9.14813C206.352 8.65098 208.078 8.17922 209.216 7.41272C209.643 7.12546 210.13 7.15071 210.866 7.49755C211.498 7.7944 211.889 7.89069 212.303 7.42908C212.551 7.15226 213.175 7.0695 213.804 7.12355C214.985 7.22366 215.878 7.13839 216.481 6.63247C216.596 6.53732 217.36 6.54653 217.809 6.56666C218.249 6.58683 218.553 6.94728 218.251 7.05515C217.333 7.38332 216.482 7.84881 215.423 7.97453C214.03 8.13908 213.729 8.46946 213.646 8.95616C213.587 9.2879 213.249 9.41771 212.503 9.26562C211.059 8.97103 210.005 9.36812 208.982 9.67187C206.616 10.3768 204.336 11.1348 201.986 11.8509C200.83 12.2032 199.62 12.5272 198.394 12.8347C196.913 13.2071 194.913 13.3446 194.862 14.3288C194.861 14.3642 194.487 14.4347 194.307 14.4241C193.957 14.4043 193.617 14.2959 193.284 14.3054C192.972 14.3148 192.422 14.4266 192.419 14.4973C192.408 14.677 192.518 14.9262 192.812 15.0228C193.128 15.1261 193.715 15.0705 194.166 15.1162C195.311 15.2323 195.636 15.6332 194.884 16.0187C194.664 16.13 194.279 16.1803 194.028 16.2827C193.658 16.4337 193.847 16.7224 194.343 16.7266C195.527 16.7372 196.714 16.6847 197.896 16.7021C199.403 16.7228 200.687 16.6549 201.662 16.0401C202.142 15.7376 203.005 15.9442 203.459 16.2161C203.826 16.438 204.257 16.6838 204.88 16.5747C206.101 16.3612 206.879 17.0732 207.868 16.832C209.644 16.3999 211.8 16.2934 213.325 15.6578C214.389 15.214 215.688 14.9484 217.115 14.7935C217.325 14.7701 217.575 14.8181 217.808 14.833C217.777 14.9053 217.807 15.0156 217.708 15.0446C215.632 15.6514 213.547 16.2523 211.453 16.8465C210.666 17.0689 210.5 17.7544 211.198 18.0254C212.588 18.5653 214.02 18.6194 215.726 18.1943C216.039 18.1157 216.345 18.0319 216.653 17.9503C218.192 17.5416 218.232 17.5264 219.464 18.1067C220.057 18.3879 220.611 18.4318 221.347 18.2554C221.663 18.179 221.972 18.0914 222.308 18.0405C222.479 18.0159 222.817 18.0364 222.881 18.0843C222.964 18.1464 222.927 18.3044 222.809 18.3371C221.706 18.6517 220.589 18.9603 219.444 19.2457C218.781 19.4113 218.084 19.4026 217.374 19.2414C217.139 19.1881 216.741 19.2633 216.418 19.2795C216.521 19.3671 216.625 19.4547 216.736 19.5407C217.448 20.0959 217.458 20.1094 216.534 20.3939C215.275 20.782 213.997 21.1596 212.671 21.5585C213.427 21.8782 213.828 21.5624 214.282 21.5059C214.848 21.4361 215.362 21.2899 215.885 21.1646C217.768 20.7126 219.562 20.1805 221.746 20.0047L221.686 19.9734Z" fill="url(#paint0_linear_12_37)"/>
<path d="M46.4425 44V42.944C47.0398 42.944 47.5092 42.9013 47.8505 42.816C48.1918 42.7307 48.4585 42.56 48.6505 42.304C48.8638 42.048 49.0665 41.6747 49.2585 41.184L56.2985 22.88H59.3705L66.0265 41.344C66.1972 41.8133 66.3572 42.1653 66.5065 42.4C66.6772 42.6133 66.9118 42.7627 67.2105 42.848C67.5092 42.912 67.9358 42.944 68.4905 42.944V44H58.8905V42.944H60.4265C60.8532 42.944 61.1198 42.8267 61.2265 42.592C61.3332 42.336 61.3118 42.0053 61.1625 41.6L56.0745 27.424H55.9785L50.9545 41.696C50.8265 42.1227 50.8158 42.4427 50.9225 42.656C51.0505 42.848 51.3278 42.944 51.7545 42.944H53.0985V44H46.4425ZM52.2985 36.512L52.4905 35.328H59.5625L59.7225 36.512H52.2985ZM79.018 44.384C78.2927 44.384 77.6313 44.3093 77.034 44.16C76.458 44.032 75.914 43.8613 75.402 43.648C74.9113 43.4347 74.41 43.2 73.898 42.944L74.634 39.968C74.8473 40.288 75.082 40.64 75.338 41.024C75.6153 41.408 75.914 41.7707 76.234 42.112C76.5753 42.432 76.9487 42.6987 77.354 42.912C77.7807 43.1253 78.2393 43.232 78.73 43.232C79.8607 43.232 80.6927 42.7307 81.226 41.728C81.7593 40.704 82.026 39.0293 82.026 36.704C82.026 34.6987 81.77 33.152 81.258 32.064C80.746 30.9547 79.9247 30.4 78.794 30.4C78.3033 30.4 77.8553 30.528 77.45 30.784C77.0447 31.04 76.6713 31.3387 76.33 31.68C76.01 32 75.7113 32.2987 75.434 32.576L75.53 30.848C75.9353 30.4213 76.3727 30.048 76.842 29.728C77.3327 29.3867 77.8873 29.12 78.506 28.928C79.146 28.7147 79.8713 28.608 80.682 28.608C82.5807 28.608 84.074 29.2373 85.162 30.496C86.25 31.7547 86.794 33.6213 86.794 36.096C86.794 37.9307 86.474 39.4667 85.834 40.704C85.2153 41.92 84.33 42.8373 83.178 43.456C82.026 44.0747 80.6393 44.384 79.018 44.384ZM71.626 44V25.056C71.626 24.5227 71.562 24.1813 71.434 24.032C71.306 23.8613 71.0073 23.776 70.538 23.776H69.642V22.688L74.73 21.92H76.138V43.04H74.09L73.162 44H71.626ZM75.434 30.624V30.208H76.49V30.624H75.434ZM96.9933 44.352C94.3053 44.352 92.3106 43.712 91.0093 42.432C89.7079 41.152 89.0573 39.1787 89.0573 36.512C89.0573 33.824 89.7186 31.8293 91.0413 30.528C92.3639 29.2267 94.3693 28.576 97.0573 28.576C99.7239 28.576 101.697 29.216 102.977 30.496C104.279 31.776 104.929 33.76 104.929 36.448C104.929 39.136 104.279 41.1307 102.977 42.432C101.697 43.712 99.7026 44.352 96.9933 44.352ZM97.0253 43.232C98.1559 43.232 98.9666 42.6773 99.4573 41.568C99.9479 40.4587 100.172 38.752 100.129 36.448C100.108 34.1227 99.8519 32.4267 99.3613 31.36C98.8919 30.272 98.0919 29.728 96.9613 29.728C95.8306 29.728 95.0199 30.304 94.5293 31.456C94.0599 32.608 93.8253 34.304 93.8253 36.544C93.8253 38.8693 94.0706 40.5653 94.5613 41.632C95.0519 42.6987 95.8733 43.232 97.0253 43.232ZM113.326 44.384C111.897 44.384 110.777 43.9893 109.966 43.2C109.156 42.3893 108.75 41.1307 108.75 39.424V31.808C108.75 31.3173 108.686 30.9973 108.558 30.848C108.43 30.6773 108.174 30.592 107.79 30.592H106.734V29.536L111.854 28.8H113.262V39.04C113.262 39.8507 113.348 40.5013 113.518 40.992C113.71 41.4827 113.988 41.8453 114.35 42.08C114.713 42.2933 115.14 42.4 115.63 42.4C116.036 42.4 116.409 42.3253 116.75 42.176C117.092 42.0053 117.433 41.7813 117.774 41.504C118.116 41.2053 118.457 40.8853 118.798 40.544L118.926 41.6C118.649 41.92 118.265 42.2933 117.774 42.72C117.284 43.1467 116.665 43.5307 115.918 43.872C115.193 44.2133 114.329 44.384 113.326 44.384ZM118.67 44V41.952H118.542V31.808C118.542 31.3173 118.478 30.9973 118.35 30.848C118.244 30.6773 117.998 30.592 117.614 30.592H116.558V29.536L121.646 28.8H123.054V41.696C123.054 42.0587 123.097 42.336 123.182 42.528C123.289 42.6987 123.481 42.816 123.758 42.88C124.036 42.9227 124.452 42.944 125.006 42.944V44H118.67ZM132.276 44.384C131.402 44.384 130.644 44.2347 130.004 43.936C129.364 43.616 128.874 43.1147 128.532 42.432C128.212 41.728 128.052 40.8107 128.052 39.68V30.112H126.132V29.056C126.986 28.8853 127.775 28.5333 128.5 28C129.226 27.4453 129.844 26.7627 130.356 25.952C130.89 25.12 131.284 24.2347 131.54 23.296H132.596V28.96H135.732V30.112H132.596V39.488C132.596 40.4693 132.724 41.216 132.98 41.728C133.258 42.2187 133.738 42.464 134.42 42.464C134.804 42.464 135.156 42.3893 135.476 42.24C135.818 42.0693 136.052 41.9413 136.18 41.856L136.724 42.752C136.447 42.944 136.116 43.168 135.732 43.424C135.348 43.68 134.879 43.904 134.324 44.096C133.77 44.288 133.087 44.384 132.276 44.384ZM144.583 44V42.944H145.223C145.991 42.944 146.46 42.8267 146.631 42.592C146.823 42.336 146.919 41.888 146.919 41.248V25.76C146.919 25.2267 146.865 24.832 146.759 24.576C146.673 24.32 146.46 24.1493 146.119 24.064C145.799 23.9787 145.276 23.936 144.551 23.936V22.88H151.943L157.575 37.28H157.639L163.143 22.88H170.215V23.936C169.532 23.936 169.02 23.9787 168.679 24.064C168.359 24.1493 168.145 24.32 168.039 24.576C167.953 24.832 167.911 25.2267 167.911 25.76V41.152C167.911 41.6427 167.953 42.0267 168.039 42.304C168.145 42.56 168.359 42.7307 168.679 42.816C169.02 42.9013 169.532 42.944 170.215 42.944V44H160.935V42.944C161.617 42.944 162.108 42.9013 162.407 42.816C162.705 42.7093 162.897 42.528 162.983 42.272C163.068 42.016 163.111 41.6427 163.111 41.152V26.336H163.047L156.583 43.552H154.951L148.327 26.528H148.295V41.248C148.295 41.952 148.391 42.4107 148.583 42.624C148.775 42.8373 149.255 42.944 150.023 42.944H150.983V44H144.583ZM178.508 44.352C176.161 44.352 174.369 43.7013 173.132 42.4C171.916 41.0773 171.308 39.1147 171.308 36.512C171.308 34.7413 171.585 33.2693 172.14 32.096C172.716 30.9227 173.537 30.048 174.604 29.472C175.692 28.896 177.025 28.608 178.604 28.608C179.841 28.608 180.908 28.7893 181.804 29.152C182.7 29.4933 183.425 30.0053 183.98 30.688C184.556 31.3493 184.972 32.1493 185.228 33.088C185.505 34.0267 185.644 35.104 185.644 36.32V36.608H174.028V35.456H180.876C180.876 34.1547 180.812 33.088 180.684 32.256C180.577 31.424 180.353 30.8053 180.012 30.4C179.692 29.9733 179.212 29.76 178.572 29.76C178.039 29.76 177.58 29.9307 177.196 30.272C176.833 30.6133 176.556 31.2107 176.364 32.064C176.172 32.9173 176.076 34.1013 176.076 35.616C176.076 36.7893 176.14 37.8027 176.268 38.656C176.396 39.488 176.599 40.1813 176.876 40.736C177.175 41.2907 177.569 41.7067 178.06 41.984C178.572 42.24 179.191 42.368 179.916 42.368C180.663 42.368 181.303 42.2507 181.836 42.016C182.391 41.76 182.86 41.408 183.244 40.96C183.649 40.512 183.98 39.9893 184.236 39.392L185.324 39.968C185.047 40.6293 184.663 41.3013 184.172 41.984C183.681 42.6667 182.988 43.232 182.092 43.68C181.217 44.128 180.023 44.352 178.508 44.352Z" fill="#0B5616"/>
<defs>
<linearGradient id="paint0_linear_12_37" x1="231.761" y1="24.6463" x2="93.9456" y2="140.631" gradientUnits="userSpaceOnUse">
<stop stop-color="#FFF6C5" stop-opacity="0.2"/>
<stop offset="0.7" stop-color="#FFF6C5" stop-opacity="0.5"/>
</linearGradient>
</defs>
</svg>
