<svg width="40" height="40" viewBox="0 0 40 40" fill="none" xmlns="http://www.w3.org/2000/svg">
<path d="M40 20.0514C40 20.6136 39.6471 21.1205 39.1041 21.3236L30.7079 24.4394C27.7533 25.5364 25.4375 27.8226 24.351 30.7079L21.1582 39.217C21.1357 39.2808 21.0854 39.3259 21.0524 39.3831C21.0252 39.4302 20.999 39.4768 20.9655 39.5199C20.9142 39.5857 20.8629 39.6445 20.799 39.6971C20.7006 39.7822 20.5927 39.8562 20.4718 39.9078C20.3953 39.9357 20.3194 39.963 20.2429 39.9721C20.1665 39.9904 20.0906 40 20.0141 40L19.7665 39.9721C19.69 39.963 19.6141 39.9352 19.5377 39.9078C19.412 39.8551 19.3021 39.7792 19.2021 39.6921C19.1408 39.6404 19.0911 39.5832 19.0408 39.5199C19.012 39.4829 18.989 39.4439 18.9649 39.4039C18.9251 39.3401 18.8696 39.2879 18.8418 39.2165L15.649 30.7074C14.572 27.8221 12.2561 25.5359 9.30153 24.4389L0.905283 21.3231C0.362323 21.1206 0 20.6131 0 20.0509C0 19.4609 0.400545 18.9352 0.981727 18.7604L8.66328 16.419C11.9896 15.4051 14.6102 12.9158 15.7349 9.72613L18.8607 0.793121C18.8989 0.691828 18.9465 0.599653 19.0036 0.516593C19.0418 0.461389 19.0801 0.406183 19.1371 0.359589C19.2513 0.240063 19.3942 0.14738 19.5659 0.0830589C19.6136 0.0648262 19.6707 0.0460872 19.7277 0.0369709C19.8136 0.00911536 19.9089 0 20.0042 0C20.0995 0 20.1948 0.00911536 20.2806 0.0369709C20.3377 0.0460872 20.3948 0.0648262 20.4424 0.0830589C20.5948 0.138263 20.7283 0.23044 20.843 0.332239C20.8906 0.378327 20.9288 0.424417 20.9671 0.470505C21.0435 0.571798 21.11 0.673089 21.1482 0.793121L24.274 9.72613C25.3893 12.9158 28.0193 15.4051 31.3362 16.419L39.0178 18.7604C39.6094 18.9357 40 19.4614 40 20.0514Z" fill="#FFE6A1"/>
</svg>
