<svg width="400" height="10" viewBox="0 0 400 10" fill="none" xmlns="http://www.w3.org/2000/svg">
<path d="M0 9C8.77193 9 16.0088 1.00018 25 1.00018C33.7719 1.00018 41.0088 9 50 9C58.7719 9 66.0088 1 75 1C83.7719 1 91.0088 8.99982 100 8.99982" stroke="#834FFF" stroke-width="2"/>
<path d="M100 9C108.772 9 116.009 1.00018 125 1.00018C133.772 1.00018 141.009 9 150 9C158.772 9 166.009 1 175 1C183.772 1 191.009 8.99982 200 8.99982" stroke="#834FFF" stroke-width="2"/>
<path d="M200 9C208.772 9 216.009 1.00018 225 1.00018C233.772 1.00018 241.009 9 250 9C258.772 9 266.009 1 275 1C283.772 1 291.009 8.99982 300 8.99982" stroke="#834FFF" stroke-width="2"/>
<path d="M300 9C308.772 9 316.009 1.00018 325 1.00018C333.772 1.00018 341.009 9 350 9C358.772 9 366.009 1 375 1C383.772 1 391.009 8.99982 400 8.99982" stroke="#834FFF" stroke-width="2"/>
</svg>
