<svg width="316" height="106" viewBox="0 0 316 106" fill="none" xmlns="http://www.w3.org/2000/svg">
<rect width="316" height="106" fill="white"/>
<path d="M305.777 10.6432C305.639 10.7769 305.332 10.8468 305.077 10.8666C299.635 11.3026 294.191 11.7274 288.746 12.1535C288.737 12.11 288.729 12.065 288.72 12.0215C287.512 12.0602 286.297 12.1931 285.095 12.1059C284.131 12.0353 283.1 12.6141 282.189 11.8709C283.067 11.7609 283.974 11.7186 284.817 11.531C287.855 10.8592 291.046 10.763 294.186 10.4834C297.501 10.1858 300.844 9.99838 304.182 9.81052C304.658 9.78354 305.195 9.99164 305.672 10.1543C305.787 10.1938 305.873 10.5497 305.777 10.6432ZM279.115 12.288C275.249 12.4535 271.422 12.8837 267.51 12.7288C267.109 12.7124 266.699 12.7488 266.308 12.6859C266.078 12.6496 265.88 12.4678 265.666 12.3509C265.868 12.1728 266.021 11.9 266.279 11.8395C266.635 11.7552 267.071 11.8318 267.471 11.8387C270.846 12.2405 274.049 11.5672 277.325 11.3639C277.844 11.3315 278.403 11.311 278.899 11.4219C279.215 11.4933 279.451 11.8162 279.721 12.027C279.52 12.1167 279.328 12.2784 279.115 12.288ZM264.021 56.0697C264.687 56.0484 265.445 56.8687 266.339 57.4065C264.601 57.6486 263.233 57.8932 261.761 57.2335C260.983 56.8853 259.955 56.9177 259.046 56.7608C257.625 56.5184 256.21 56.2607 254.338 55.929C257.876 54.3983 260.958 56.1735 264.021 56.0697ZM281.063 46.3729C282.454 46.1732 284.009 46.9214 285.317 46.0865C285.342 46.0699 285.765 46.3825 285.754 46.394C284.594 47.6745 285.024 49.6813 282.926 50.5257C282.834 50.561 282.693 50.5238 282.473 50.5185C282.28 50.3008 281.863 50.0316 281.873 49.7909C281.889 49.4084 282.15 49.0259 282.379 48.675C282.94 47.8015 282.954 47.8107 281.688 47.5453C281.431 47.4905 281.136 47.4495 280.943 47.3203C280.767 47.2023 280.606 46.9609 280.626 46.7938C280.644 46.6343 280.876 46.4007 281.063 46.3729ZM93.1644 91.1837C92.8189 91.288 92.379 91.2362 91.98 91.2516C88.5885 91.0425 85.478 91.9001 82.2468 92.291C81.7331 92.3522 81.1805 92.405 80.6784 92.3219C80.3553 92.2703 80.0895 91.9588 79.7992 91.765C79.9906 91.6617 80.1635 91.4903 80.3752 91.468C84.195 91.0815 87.9515 90.4314 91.8501 90.3637C92.2516 90.3565 92.6548 90.2973 93.0494 90.3368C93.2808 90.3607 93.4965 90.5299 93.719 90.635C93.5386 90.8247 93.4136 91.1081 93.1644 91.1837ZM74.7914 92.5524C71.8442 93.3988 68.6843 93.6766 65.5985 94.1384C62.3356 94.6242 59.0367 95.0023 55.741 95.3823C55.2713 95.4367 54.7161 95.2585 54.2279 95.1231C54.1102 95.0897 53.9874 94.7397 54.073 94.6405C54.1969 94.4992 54.4952 94.4109 54.7437 94.3763C60.1032 93.6291 65.4658 92.8916 70.8268 92.1524C70.8408 92.1964 70.8532 92.2402 70.8663 92.2841C72.062 92.1763 73.2534 91.9733 74.4559 91.9925C75.4209 92.0078 76.385 91.3705 77.3655 92.062C76.5053 92.221 75.6083 92.3165 74.7914 92.5524ZM49.7343 36.1011C46.3116 36.2429 42.883 36.3431 39.4541 36.4275C38.9377 36.4395 38.4101 36.3367 37.803 36.2783C38.3129 35.5831 39.1926 35.4781 39.6195 34.7512C40.5825 33.1153 40.811 33.2368 43.3525 33.7418C45.4356 34.1553 47.5696 34.3746 49.6671 34.7422C49.927 34.7877 50.2431 35.2115 50.2712 35.4702C50.2939 35.6825 49.9523 36.092 49.7343 36.1011ZM314.9 11.1156C313.299 10.5019 311.658 9.94607 310.005 9.43009C309.365 9.22952 309.01 8.97109 308.852 8.47557C307.807 8.52358 306.756 8.55844 305.705 8.55221C304.645 8.54517 303.691 8.65727 302.676 8.73825C297.211 9.1704 291.73 9.54262 286.246 9.90034C285.63 9.9406 284.71 9.92964 284.375 9.64932C282.816 8.35082 281.387 8.47896 279.818 9.39141C279.665 9.48101 279.142 9.22378 278.791 9.12682C278.903 8.87366 278.941 8.43026 279.139 8.39405C280.413 8.16408 281.722 8.02284 283.019 7.85362C281.474 7.57404 279.435 7.50442 278.348 7.69384C277.546 7.83319 277.185 8.36888 277.48 9.11457C277.63 9.49399 277.923 9.84755 278.283 10.421C276.496 10.4784 274.908 10.5691 273.315 10.5565C272.69 10.5518 271.888 10.4493 271.452 10.1546C270.516 9.5243 270.682 10.2592 270.27 10.4297C269.15 10.894 267.823 11.0904 266.638 10.1786C266.257 9.88602 265.769 9.66843 265.305 9.44684C265.278 9.43482 264.91 9.6933 264.905 9.8397C264.887 10.2456 265.6 10.815 264.307 10.8251C261.471 10.8447 258.629 10.8734 255.82 11.0585C254.741 11.1285 253.836 10.4885 252.737 10.7985C251.918 11.0309 250.971 11.0648 250.068 11.1203C247.264 11.2884 244.453 11.4163 241.649 11.5813C240.994 11.6195 240.357 11.7415 239.718 12.1241C241.369 12.327 243.023 12.5286 244.676 12.7302C244.699 12.7134 244.725 12.6937 244.747 12.6785C244.803 12.6902 244.861 12.7054 244.917 12.7186C246.82 12.0231 248.959 12.4261 250.978 12.2899C253.454 12.1218 256.025 12.7498 258.469 11.964C259.186 11.7328 260.288 12.0993 261.212 12.2103C261.323 12.2241 261.522 12.3807 261.507 12.403C261.415 12.5505 261.288 12.7911 261.143 12.7962C256.592 12.9576 252.042 13.1302 247.482 13.2085C246.648 13.2231 245.776 12.9118 244.917 12.7186C244.886 12.7299 244.852 12.7361 244.821 12.7489C244.773 12.7427 244.725 12.7364 244.676 12.7302C244.34 12.9649 244.024 13.3169 243.651 13.338C240.841 13.4976 238.021 13.6531 235.193 13.6689C229.739 13.6976 224.378 14.3025 218.942 14.4073C214.838 14.4852 210.773 14.8419 206.645 14.7706C205.345 14.7499 205.055 14.1563 204.617 13.5233C207.134 13.7921 209.568 13.6358 211.894 12.992C212.053 12.9488 212.127 12.7521 212.221 12.5952C206.358 12.8154 200.493 13.021 194.633 13.2731C193.909 13.3046 192.501 13.1724 192.67 13.8048C192.909 14.7157 193.912 13.9369 194.586 13.899C195.645 13.8396 196.697 13.639 197.71 14.2151C197.984 14.371 198.633 14.5013 198.751 14.402C200.199 13.184 202.32 13.9077 204.046 13.5348C203.848 14.5127 203.326 15.2209 201.808 15.2662C197.508 15.3948 193.22 15.5974 188.916 15.6686C187.784 15.6878 186.887 15.6869 186.095 16.404C185.672 16.7899 184.629 17.0895 183.981 16.9719C181.503 16.522 179.202 16.6863 176.797 17.0871C175.153 17.3589 173.308 17.0536 171.559 17.0797C170.626 17.0944 169.716 17.3213 168.783 17.3485C168.274 17.3628 167.722 17.196 167.224 17.0423C167.039 16.985 166.837 16.7238 166.843 16.568C166.848 16.4073 167.066 16.147 167.246 16.1264C169.221 15.9007 171.199 15.6847 173.19 15.5238C174.78 15.3954 176.397 15.3849 177.984 15.2435C178.431 15.2043 178.812 14.8966 179.052 14.3382C176.173 14.5545 173.298 14.782 170.42 14.9873C168.007 15.1599 165.596 15.3406 163.174 15.4507C162.131 15.4973 161.037 15.4743 160.008 15.3027C158.815 15.1011 158.373 16.2152 157.18 15.941C156.64 15.8164 155.864 15.6897 156.057 15.2864C156.693 13.9697 155.596 13.8627 154.434 13.9152C152.157 14.0203 149.898 14.2282 147.631 14.3848C142.684 14.7262 137.735 15.0626 132.787 15.399C132.662 15.406 132.505 15.3973 132.404 15.3481C132.181 15.2381 131.904 15.1231 131.801 14.9614C131.708 14.815 131.725 14.4959 131.851 14.4385C132.629 14.0804 133.398 13.6503 134.27 13.4749C136.708 12.9809 139.195 12.6022 141.657 12.1658C141.888 12.1248 142.086 11.9969 142.298 11.9098C142.014 11.7766 141.745 11.5959 141.44 11.5224C141.199 11.466 140.896 11.508 140.645 11.5613C136.879 12.348 132.932 12.087 129.05 12.1816C125.27 12.2733 121.481 12.2867 117.697 12.3512C106.933 12.5347 96.1695 12.7247 85.4063 12.9162C85.0013 12.9231 84.6042 12.9971 84.1998 12.9977C79.8395 13.0116 80.5678 13.1732 81.1298 10.2473C81.27 9.52133 81.9475 9.29729 82.7683 9.15815C84.187 8.91847 85.6018 8.66737 87.0205 8.42769C87.2687 8.38676 87.5651 8.3031 87.7798 8.36797C91.9247 9.5801 95.6922 7.85815 99.6994 8.00474C99.9973 8.01599 100.502 7.7501 100.554 7.54809C100.813 6.54438 101.865 6.42434 102.924 6.25594C103.143 6.2201 103.313 6.04682 103.504 5.93727C103.181 5.77187 102.843 5.45818 102.536 5.46188C95.8061 5.56389 89.0296 5.26802 82.3633 5.9355C81.6232 6.00972 80.7528 5.90549 80.0446 5.681C79.0287 5.35899 79.8901 5.16843 80.2151 4.97689C80.6583 4.71613 80.469 4.60948 80.0389 4.43225C79.602 4.25438 79.2435 3.96083 78.8494 3.71754C79.2538 3.48307 79.6158 3.18916 80.0682 3.02409C82.6559 2.07359 85.5343 2.68999 88.2774 2.57129C88.7931 2.54819 89.3818 2.86073 89.8637 2.79328C94.8216 2.08799 100.071 2.42038 104.928 1.3419C104.533 1.33238 104.133 1.28774 103.712 1.20297C102.259 0.916421 100.804 0.613798 99.3357 0.414189C98.9162 0.358064 98.2186 0.532734 98.036 0.786943C97.3759 1.69995 96.5039 1.75039 95.3044 1.47709C93.5066 1.06886 91.7747 0.801332 89.9566 1.6125C88.5358 2.2454 86.8284 1.9201 85.2701 1.26154C84.1344 0.781077 83.2384 0.813434 82.077 1.56449C80.7584 2.41735 78.9315 2.33812 77.0769 1.70955C74.2896 0.763809 74.0165 0.916139 71.7228 2.26304C71.4252 2.43826 71.0097 2.59264 70.6482 2.57844C69.8404 2.54503 69.0338 2.39801 68.2257 2.30137C67.2047 2.17796 67.2327 2.18061 67.288 3.44046C67.2985 3.69269 67.0534 4.13999 66.8561 4.15894C65.6614 4.27479 64.4441 4.27946 63.2387 4.34371C62.3181 4.39111 61.3693 4.38674 60.4973 4.56678C60.0451 4.66078 59.5176 5.06358 59.4207 5.40977C59.3476 5.66977 59.8853 6.07375 60.1883 6.3936C60.4246 6.64225 60.8189 6.8303 60.9539 7.09766C61.083 7.35654 61.0389 7.70462 60.9249 7.96858C60.8785 8.08104 60.4269 8.16883 60.2132 8.11511C58.011 7.55582 55.8312 6.93232 53.6216 6.39603C52.5847 6.14468 51.4979 5.95649 50.4327 5.90782C49.5411 5.86794 48.645 6.07407 47.751 6.17143C47.5976 7.29271 48.9648 7.22663 49.6538 7.53933C51.1925 8.23866 52.8881 8.7113 54.5132 9.2878C55.653 9.69282 55.7379 10.126 54.5258 10.7758C53.6316 11.2555 54.0348 11.5345 54.4604 12.0257C55.2887 12.9822 55.251 13.0039 53.7257 13.4134C53.4834 13.4786 53.2399 13.5389 52.8397 13.6442C54.123 14.1389 55.3173 14.5634 56.4601 15.0651C56.742 15.1901 57.0536 15.7841 57.0114 15.8085C55.7067 16.5789 56.3841 16.8811 57.5014 17.2508C57.9919 17.4132 57.6499 18.3869 57.0297 18.4615C55.5888 18.6327 54.1327 18.744 52.6761 18.8441C51.7441 18.9078 50.7882 18.8554 49.8719 18.9712C49.6247 19.0012 49.3303 19.4437 49.3352 19.7033C49.3398 19.9486 49.6602 20.2512 49.94 20.4329C50.0945 20.5331 50.4493 20.4503 50.7105 20.4312C52.3621 20.3023 52.6012 21.9243 53.968 22.1552C54.0005 22.1615 54.0525 22.3529 54.0045 22.4052C53.12 23.3851 51.851 22.9487 50.6787 22.8313C50.1412 22.778 49.614 22.6262 49.0762 22.5698C48.8574 22.5456 48.4846 22.6061 48.4288 22.7145C48.3561 22.8577 48.4867 23.1025 48.5991 23.2761C49.5721 24.779 49.5764 24.7762 47.3305 24.8842C47.0725 24.8973 46.7663 24.8774 46.576 24.9808C46.3786 25.0866 46.2237 25.3102 46.181 25.5052C46.1459 25.663 46.2459 25.957 46.3894 26.0151C48.4083 26.8206 50.0915 28.2843 52.5706 28.205C52.6919 28.2009 52.8678 28.2589 52.94 28.3354C53.0936 28.4955 53.2988 28.6938 53.2909 28.8621C53.2821 29.0161 53.048 29.2542 52.8648 29.2809C51.824 29.432 50.7619 29.5053 49.7214 29.6534C49.085 29.7423 48.4374 30.1114 47.8546 30.0222C45.1513 29.6155 42.6486 30.6989 39.9534 30.3198C39.3274 30.2328 38.5087 30.3152 38.0149 30.5838C36.0475 31.6555 33.9733 31.1844 31.8798 30.8014C31.4865 30.7304 31.0486 30.5477 30.7032 30.6157C27.5084 31.2392 24.3169 30.2594 21.1143 30.2296C19.2501 30.2116 18.2392 31.1019 16.8198 31.5232C16.7062 31.5581 16.7017 32.207 16.8986 32.3492C17.3829 32.696 17.9888 33.0781 18.5887 33.1547C21.3934 33.5128 24.2096 33.804 27.0281 34.0386C27.4651 34.0759 27.9491 33.7195 28.3803 33.5066C28.821 33.2914 29.2226 32.9302 29.7709 33.3622C30.4023 33.8589 30.7796 34.4735 30.3163 35.0973C30.0929 35.3966 29.2161 35.7547 29.1465 35.6959C27.7601 34.5562 25.9523 35.3904 24.4646 34.8571C22.0871 34.0077 19.7776 35.124 17.4125 34.7655C17.3317 34.753 17.1415 34.8959 17.1419 34.9717C17.1428 35.1583 17.1558 35.3934 17.2931 35.525C17.4525 35.6778 17.7414 35.7641 17.9911 35.8386C18.5037 35.9938 19.0757 36.0582 19.5339 36.2808C19.8985 36.458 20.7612 36.5315 20.3319 37.1207C20.0841 37.4571 19.4325 37.9648 19.2069 37.8894C17.7181 37.394 16.2851 38.0067 14.8657 37.7818C11.3497 37.2227 7.93046 37.586 4.48584 37.8854C3.07863 38.0061 2.40257 38.6821 1.9414 39.5842C1.60796 40.2363 1.97122 41.0233 2.75967 41.2207C5.11032 41.8069 7.46734 42.3953 9.85468 42.8492C12.3776 43.3302 14.9415 43.6526 17.4837 44.0549C19.2059 44.3279 20.852 44.799 22.6724 44.8096C24.3991 44.8192 26.1432 45.3739 27.5585 46.3489C27.7346 46.4717 27.9207 46.7171 27.8855 46.867C27.8441 47.0479 27.6095 47.2481 27.3887 47.3296C27.0359 47.46 26.6244 47.5011 26.2384 47.5793C22.0874 48.4206 17.9489 49.2963 13.7786 50.082C12.5942 50.3047 11.8287 50.6783 11.7035 51.6869C11.6651 52.0008 11.5615 52.3132 11.4311 52.6088C11.2497 53.0227 10.5303 53.0878 10.1225 52.72C9.67747 52.3185 9.37697 51.7477 8.8391 51.5001C8.22314 51.2134 6.01192 51.9868 6.11439 52.4295C6.36584 53.5107 4.68504 54.4947 5.84021 55.4099C6.49459 55.9279 7.83001 56.1305 8.82891 56.1127C13.4197 56.031 18.0234 56.0011 22.5254 55.2899C25.1553 54.8744 27.8121 54.5499 30.4634 54.2122C31.1124 54.1308 32.0121 54.0688 32.0797 54.7594C32.1121 55.0865 31.3559 55.5178 30.8421 55.7544C30.4088 55.9545 29.7932 56.0675 29.289 56.0049C25.7559 55.5704 22.8628 57.2089 19.5594 57.5234C18.2478 57.6485 18.1924 58.1899 19.2089 58.9796C20.8259 60.2363 20.7855 60.3194 19.0106 61.2579C17.9819 61.8021 16.9746 62.1903 15.649 62.0218C14.0591 61.82 12.7346 62.26 11.6818 63.1668C11.1453 63.6288 11.4625 64.5772 12.1978 64.787C13.8482 65.2553 15.663 64.823 17.2644 65.552C20.3329 65.2087 23.0523 66.0768 25.7536 67.237C26.93 67.742 28.3117 67.9396 29.6138 68.2306C31.7211 68.7018 33.84 69.1314 35.9526 69.5825C36.7838 69.7588 36.9775 70.2514 36.9144 70.8284C36.7754 72.1027 36.3036 72.6846 34.8635 72.8038C33.6079 72.9074 32.4551 73.0084 31.6725 73.8527C31.2012 74.362 30.5708 74.3267 29.8654 74.1878C29.6254 74.141 29.3364 74.2096 29.0896 74.2712C28.4106 74.4413 27.6665 75.3842 28.0057 75.766C28.2731 76.0682 28.8117 76.3506 29.2628 76.4066C31.2599 76.6539 33.2687 76.8154 35.7438 77.0533C31.821 77.8739 28.2887 78.2864 24.7926 78.7862C21.9171 79.1971 18.9256 79.2034 15.9821 79.3582C15.4834 79.3845 14.7563 79.3589 14.8082 78.7745C14.9017 77.7249 14.2448 77.5527 13.1049 77.4273C11.6009 77.2622 9.94055 77.9053 8.5722 76.81C8.52536 76.7723 8.0733 76.9421 7.96644 77.0899C7.85379 77.2449 7.82916 77.5365 7.94387 77.6865C8.14948 77.9607 8.50785 78.161 8.76771 78.4135C9.57734 79.2023 9.57085 79.208 8.16942 79.5268C8.04224 79.5572 7.86625 79.5198 7.7761 79.5775C7.51404 79.7451 7.25614 79.9288 7.0688 80.1462C7.0409 80.1783 7.38084 80.5286 7.58453 80.5624C9.81493 80.9174 11.9196 81.9587 14.3137 81.4904C14.9163 81.373 15.6814 81.5381 16.3192 81.71C19.1543 82.4692 21.9735 83.2711 24.7873 84.0882C24.9388 84.1312 25.007 84.4396 25.055 84.6306C25.0681 84.684 24.8556 84.8342 24.7699 84.8213C23.8572 84.6751 22.7963 84.2081 22.0805 84.4174C21.2212 84.6698 20.4345 84.9117 19.4897 84.9331C17.7342 84.9713 15.9852 85.0813 14.2352 85.1659C12.3498 85.2564 10.4445 85.2581 9.24635 86.7025C9.0076 86.9892 8.32836 87.085 7.81996 87.1705C6.68968 87.3573 5.58032 87.9727 5.81108 88.7154C6.00988 89.3539 7.28667 90.0296 8.23987 90.2887C9.64139 90.6683 11.1443 90.7148 12.6386 90.3607C13.8893 90.0654 15.2469 89.9953 16.571 89.8966C17.6353 89.8188 18.7227 89.8791 19.7924 89.8239C22.4698 89.6894 25.1445 89.523 28.2959 89.3425C27.2826 89.8123 26.7118 90.2536 26.0414 90.3519C24.4949 90.5761 22.906 90.6841 21.3222 90.7467C19.6866 90.8123 18.6226 92.1446 16.7928 91.7855C16.1548 91.6594 15.3408 91.6128 14.7973 91.8212C11.7973 92.9675 8.11209 92.3857 5.26929 93.999C4.36621 94.511 2.7935 94.3109 1.90606 94.8323C0.708052 95.534 1.80057 96.843 1.44305 97.8736C1.07804 98.9224 1.75196 99.537 3.00027 99.5274C3.93512 99.5209 4.9003 99.4415 5.7744 99.2221C6.73004 98.9838 7.65385 98.9288 8.53337 99.2993C9.76825 99.8177 10.862 99.5879 12.0503 99.315C13.0471 99.0854 14.1277 99.047 15.1812 98.9776C15.3539 98.9658 15.6836 99.2156 15.7389 99.3805C15.7888 99.5322 15.6198 99.8525 15.4588 99.8907C13.2686 100.41 11.2191 101.137 9.41687 102.231C9.14691 102.395 9.05141 102.734 8.87417 102.991C9.21497 103.125 9.58149 103.397 9.89355 103.374C13.2185 103.11 16.5311 102.779 19.8559 102.511C24.3901 102.144 28.9348 101.834 33.4693 101.466C36.6314 101.21 39.7893 100.926 42.9485 100.65C44.3984 100.396 45.8486 100.145 47.2944 99.8808C48.413 99.6787 49.8068 99.9232 50.5113 98.9513C50.5467 98.9026 51.1563 99.1697 51.4873 99.1652C51.807 99.1628 52.1121 98.9978 52.4232 98.9044C52.2026 98.5719 51.9852 97.9648 51.7601 97.9543C50.8371 97.9066 49.631 97.797 49.0482 98.1644C48.0297 98.8076 46.3167 97.5843 45.7452 98.8787C45.5066 98.7752 45.2551 98.6847 45.0335 98.5623C44.8192 98.4469 44.5598 98.3192 44.4704 98.1558C44.4237 98.0723 44.6743 97.8009 44.8402 97.7805C48.0026 97.3909 51.1523 96.8926 54.3567 96.7297C55.4106 96.6762 56.3466 96.5102 57.3449 96.3707C62.7283 95.6242 68.1314 94.9396 73.5383 94.2664C74.146 94.1905 75.0585 94.1502 75.4218 94.4111C77.1019 95.6233 78.5086 95.4125 79.9716 94.4092C80.1144 94.3107 80.6591 94.5384 81.0172 94.6139C80.9331 94.876 80.9401 95.3207 80.7466 95.3684C79.5049 95.671 78.2202 95.8872 76.9502 96.1317C78.5123 96.3229 80.5432 96.278 81.6053 96.0261C82.3867 95.8405 82.6904 95.2835 82.3218 94.5529C82.1347 94.181 81.8076 93.8446 81.3921 93.2896C83.159 93.1308 84.7253 92.9495 86.3099 92.8696C86.9309 92.8392 87.7364 92.8945 88.2015 93.1651C89.1937 93.744 88.9529 93.0178 89.3443 92.8231C90.4098 92.2936 91.7073 92.0217 92.976 92.8673C93.3841 93.1372 93.8908 93.3281 94.3741 93.5231C94.4011 93.5335 94.7404 93.2533 94.7322 93.1072C94.7068 92.6987 93.9417 92.1701 95.2244 92.0864C98.0373 91.9049 100.857 91.713 103.627 91.3677C104.691 91.2346 105.656 91.8235 106.713 91.4511C107.504 91.17 108.44 91.083 109.329 90.9774C112.097 90.6477 114.875 90.3586 117.643 90.0322C118.287 89.9566 118.908 89.7998 119.504 89.3784C117.842 89.2708 116.181 89.1632 114.519 89.0556C114.498 89.0741 114.476 89.0957 114.454 89.1109C114.396 89.1023 114.339 89.0904 114.282 89.0818C112.464 89.8851 110.297 89.6041 108.307 89.8569C105.867 90.1659 103.252 89.6838 100.904 90.6115C100.215 90.8834 99.0842 90.5788 98.1553 90.5211C98.0433 90.515 97.8297 90.3681 97.8428 90.3441C97.921 90.192 98.0229 89.9443 98.1649 89.9311C102.666 89.5089 107.165 89.0771 111.684 88.7373C112.512 88.6747 113.409 88.9363 114.282 89.0818C114.311 89.0672 114.343 89.0592 114.373 89.0463C114.421 89.0494 114.471 89.0525 114.519 89.0556C114.83 88.8011 115.106 88.4311 115.475 88.3875C118.25 88.0665 121.032 87.7493 123.839 87.572C129.251 87.2327 134.511 86.3194 139.895 85.9048C143.963 85.591 147.961 85.0021 152.067 84.8358C153.359 84.7831 153.709 85.3617 154.208 85.9691C151.682 85.8447 149.281 86.1401 147.035 86.9165C146.884 86.9699 146.832 87.1703 146.753 87.3349C152.553 86.7785 158.355 86.2365 164.145 85.6491C164.862 85.5774 166.271 85.6276 166.041 85.0035C165.71 84.1058 164.794 84.9436 164.129 85.0188C163.083 85.1394 162.059 85.3997 160.994 84.8817C160.706 84.7419 160.049 84.6472 159.944 84.7539C158.629 86.0575 156.45 85.453 154.774 85.924C154.871 84.9363 155.316 84.1953 156.819 84.0633C161.074 83.6887 165.311 83.2412 169.576 82.9227C170.7 82.8395 171.589 82.7891 172.302 82.025C172.683 81.6145 173.687 81.2559 174.343 81.3363C176.847 81.6434 179.117 81.348 181.462 80.8104C183.067 80.4432 184.93 80.6444 186.664 80.5172C187.589 80.4481 188.468 80.1692 189.392 80.089C189.896 80.0458 190.46 80.1821 190.972 80.3072C191.162 80.3539 191.388 80.6032 191.399 80.7606C191.409 80.9211 191.219 81.1952 191.042 81.2256C189.106 81.5656 187.164 81.894 185.206 82.1688C183.639 82.3879 182.034 82.4928 180.473 82.7235C180.034 82.7872 179.686 83.1187 179.504 83.6921C182.34 83.309 185.172 82.9176 188.008 82.5472C190.385 82.2369 192.761 81.9186 195.153 81.6698C196.186 81.562 197.273 81.5227 198.314 81.637C199.518 81.7701 199.844 80.6275 201.054 80.8355C201.603 80.9277 202.388 81.0111 202.235 81.4262C201.74 82.7817 202.839 82.8256 203.989 82.7055C206.238 82.4714 208.459 82.1334 210.693 81.8473C215.571 81.2228 220.448 80.6014 225.327 79.9833C225.449 79.9682 225.606 79.9675 225.712 80.0124C225.944 80.109 226.232 80.2093 226.35 80.3661C226.458 80.506 226.474 80.8251 226.355 80.8926C225.618 81.2943 224.897 81.7684 224.05 81.9952C221.68 82.6285 219.251 83.1502 216.85 83.7284C216.624 83.7826 216.441 83.9214 216.239 84.0204C216.535 84.1374 216.82 84.3038 217.131 84.359C217.377 84.4032 217.673 84.3432 217.917 84.2765C221.576 83.2726 225.52 83.3073 229.363 82.9909C233.108 82.6825 236.868 82.4515 240.618 82.172C243.258 81.9739 245.898 81.7726 248.538 81.5745C248.272 79.7967 248.446 79.7754 250.936 79.8932C251.34 79.9114 251.746 80.0073 252.148 80.0128C253.129 80.0265 253.924 79.4267 253.899 78.6249C253.887 78.2065 253.617 77.7888 253.561 77.3646C253.502 76.9356 253.548 76.4565 254.318 76.4958C255.953 76.5803 257.543 75.2826 259.216 76.5699C261.159 75.8766 263.233 76.3731 265.237 76.4409C269.405 76.5823 273.571 76.8516 277.737 77.1004C279.493 77.2044 281.239 77.3644 282.953 77.0061C283.332 76.9272 283.891 76.774 284.111 76.9136C286.085 78.173 287.362 76.9796 288.746 76.2721C289.007 76.1376 289.184 75.6932 289.109 75.4348C289.053 75.2446 288.528 75.0155 288.205 74.9972C287.68 74.9672 286.942 75.3055 286.654 75.123C285.034 74.0887 283.333 74.4703 281.614 74.55C280.958 74.5802 280.274 74.4149 279.607 74.3176C278.005 74.0847 276.411 73.7544 274.8 73.6138C270.624 73.2472 266.437 72.998 262.261 72.6314C260.348 72.4633 258.481 72.0295 255.836 71.2696C257.515 71.2366 258.322 71.2605 259.11 71.1861C259.456 71.1531 260.056 70.909 260.041 70.7811C259.918 69.7943 260.632 69.8235 261.525 69.8983C262.455 69.9766 263.422 70.0838 264.321 69.9727C269.169 69.369 274.008 70.5768 278.846 70.473C281.618 71.569 284.292 70.2064 287.056 70.5464C288.068 70.6705 288.783 70.0631 289.001 69.2371C289.081 68.9288 289.043 68.5996 289.119 68.291C289.347 67.3775 290.159 66.4049 289.217 65.5512C288.648 65.0366 287.581 64.8567 286.73 64.5394C285.749 64.1734 284.79 63.6515 283.766 63.4961C280.291 62.9678 276.792 62.5493 273.298 62.1297C271.443 61.9071 270.409 61.1457 270.963 59.8133C271.374 58.8321 271.485 58.2945 270.313 57.689C270.002 57.5279 269.989 57.0859 270.601 57.0751C271.273 57.0607 271.964 57.0418 272.622 57.1429C273.687 57.307 274.042 58.0315 273.493 58.8004C273.365 58.9793 273.123 59.0998 272.987 59.2732C272.612 59.7632 272.977 60.2171 273.506 60.2742C274.7 60.4016 275.919 60.4019 277.117 60.3591C277.732 60.3376 278.019 59.9512 277.728 59.4539C277.467 59.0118 276.478 58.6291 277.198 58.1279C277.616 57.8379 278.474 57.7623 279.079 57.8616C279.835 57.9848 280.532 58.3883 281.258 58.6682C281.738 58.855 282.276 59.2385 282.696 59.1857C284.131 58.9997 285.724 58.8985 286.883 58.3178C288.237 57.6375 289.362 57.2242 290.972 57.7898C291.249 57.8875 291.949 57.5092 292.203 57.2128C292.554 56.8026 292.18 56.4096 291.633 56.1927C290.898 55.8992 290.111 55.6798 289.412 55.3424C288.707 55.0029 288.567 54.6039 289.211 54.0591C289.446 53.8605 289.289 53.2924 289.168 52.9158C289.038 52.5051 288.415 51.9444 288.574 51.7543C289.463 50.6816 289.019 49.4792 289.144 48.3346C289.224 47.6108 289.107 46.6436 289.633 46.2439C290.4 45.6619 290.06 44.0539 291.992 44.4956C292.066 44.2278 292.316 43.8378 292.179 43.7156C291.834 43.4043 291.252 42.9693 290.877 43.0154C289.129 43.2361 287.828 42.3747 286.14 41.906C287.056 41.5816 287.753 41.2963 288.486 41.0839C289.786 40.708 290.688 39.9668 291.519 39.1508C292.173 38.5089 292.102 38.254 291.049 37.6472C290.716 37.4556 290.281 37.368 289.981 37.1543C289.122 36.5455 289.249 35.3491 290.267 34.9919C291.106 34.6981 292.058 34.6032 292.926 34.3532C293.397 34.2199 293.796 33.9486 294.895 33.4159C292.525 33.3934 291.229 31.8295 289.3 32.7896C288.984 32.9473 288.242 32.7449 287.794 32.5548C285.873 31.7413 283.972 30.8887 282.094 30.0066C281.558 29.7544 281.117 29.6472 280.646 29.9733C280.106 30.3495 279.525 30.4391 278.793 30.2376C278.027 30.0265 277.186 29.7276 276.438 29.79C273.185 30.0635 269.972 29.5619 266.75 29.2649C265.811 29.1793 264.876 29.1306 264.338 28.2589C264.201 28.0355 263.252 27.8289 262.977 27.9716C261.554 28.7022 260.867 28.1085 260.038 27.1819C259.378 26.4422 258.462 26.2878 257.948 27.3523C257.91 27.434 257.789 27.5519 257.717 27.545C257.339 27.5102 256.964 27.4394 256.588 27.3811C256.689 27.1064 256.702 26.7712 256.914 26.5751C257.151 26.3577 257.558 26.1551 257.914 26.1403C260.053 26.0537 262.2 26.0198 264.346 25.978C270.285 25.8616 276.225 25.7468 282.165 25.6431C282.701 25.6329 283.249 25.681 283.786 25.7499C287.189 26.1892 290.544 25.8987 293.874 25.5916C297.319 25.2748 300.662 24.5533 304.237 24.7516C305.808 24.8394 307.511 24.5291 308.938 24.0359C309.927 23.6949 310.552 22.7373 311.322 22.0435C311.464 21.9165 311.636 21.6092 311.596 21.5832C311.296 21.3932 310.897 21.0831 310.624 21.1248C308.944 21.3773 307.467 21.4755 306.462 19.9126C306.107 19.3634 305.267 19.5733 304.771 20.0344C304.603 20.1889 304.452 20.3672 304.36 20.5574C304.021 21.2627 303.617 20.8999 303.238 20.5649C302.86 20.2331 302.067 19.8661 302.067 20.3496C302.065 21.4302 301.302 21.6855 300.33 21.6932C297.245 21.719 294.153 21.6557 291.061 21.6145C290.96 21.6126 290.754 21.4616 290.768 21.4235C290.831 21.2526 290.901 21.0128 291.066 20.9512C291.415 20.8221 291.823 20.7301 292.211 20.728C292.877 20.7256 293.547 20.8327 294.214 20.8288C294.356 20.8282 294.504 20.566 294.598 20.4012C294.624 20.3516 294.494 20.1858 294.397 20.1528C294.068 20.0438 289.636 20.2133 289.381 20.3516C289.172 20.4659 288.869 20.6216 288.858 20.7817C288.823 21.2523 288.685 21.7004 288.007 21.5784C286.48 21.302 285.069 21.7557 283.612 21.7579C276.859 21.7709 270.1 21.6758 263.343 21.5903C262.771 21.5843 262.83 21.2313 263.123 20.9671C263.475 20.6487 263.86 20.3586 263.234 19.9445C262.213 19.2681 263.076 19.1156 263.662 18.9318C263.896 18.8579 264.196 18.8883 264.466 18.9032C269.856 19.2127 275.234 19.2051 280.598 18.9813C281.921 18.9251 283.233 18.751 284.557 18.7583C286.69 18.7642 288.843 18.9917 290.964 18.9175C297.287 18.7004 303.565 18.1916 309.814 17.5503C311.27 17.4012 312.673 16.9972 314.084 16.6747C314.687 16.5351 314.914 16.1746 314.537 15.7055C314.318 15.4331 314.007 15.1979 313.709 14.9717C312.962 14.4022 312.888 13.8768 313.724 13.3789C314.041 13.1898 314.351 12.9905 314.658 12.7925C314.866 12.6592 315.072 12.5273 315.26 12.381C315.799 11.9604 315.71 11.4242 314.9 11.1156Z" fill="#1E5C49"/>
<path d="M58.9983 39.6706V38.9384H59.442C59.9746 38.9384 60.3 38.8571 60.4183 38.6944C60.5514 38.5168 60.618 38.2062 60.618 37.7625V27.0234C60.618 26.6536 60.581 26.3799 60.5071 26.2024C60.4479 26.0249 60.3 25.9066 60.0633 25.8474C59.8414 25.7883 59.479 25.7587 58.9761 25.7587V25.0265H64.1016L68.0067 35.0111H68.051L71.8674 25.0265H76.771V25.7587C76.2976 25.7587 75.9426 25.7883 75.7059 25.8474C75.4841 25.9066 75.3361 26.0249 75.2622 26.2024C75.203 26.3799 75.1734 26.6536 75.1734 27.0234V37.6959C75.1734 38.0361 75.203 38.3024 75.2622 38.4947C75.3361 38.6722 75.4841 38.7905 75.7059 38.8497C75.9426 38.9088 76.2976 38.9384 76.771 38.9384V39.6706H70.3364V38.9384C70.8098 38.9384 71.15 38.9088 71.3571 38.8497C71.5642 38.7757 71.6973 38.65 71.7565 38.4725C71.8156 38.295 71.8452 38.0361 71.8452 37.6959V27.4228H71.8008L67.3188 39.36H66.1872L61.5943 27.5559H61.5721V37.7625C61.5721 38.2506 61.6387 38.5686 61.7718 38.7165C61.9049 38.8645 62.2377 38.9384 62.7703 38.9384H63.4359V39.6706H58.9983ZM80.1483 44.3523C79.7489 44.3523 79.3791 44.2636 79.0388 44.0861C78.6986 43.9234 78.425 43.6867 78.2179 43.3761C78.0256 43.0802 77.9294 42.7474 77.9294 42.3776C77.9294 41.9782 78.0626 41.6232 78.3288 41.3126C78.6099 41.0167 78.9649 40.8688 79.3939 40.8688C79.808 40.8688 80.1335 40.9945 80.3701 41.246C80.6216 41.4975 80.7473 41.8155 80.7473 42.2001C80.7473 42.3924 80.7178 42.5403 80.6586 42.6438C80.5994 42.7622 80.5329 42.8509 80.4589 42.9101C80.3997 42.9841 80.3701 43.0728 80.3701 43.1764C80.3701 43.2799 80.4071 43.3613 80.4811 43.4204C80.555 43.4796 80.6512 43.5092 80.7695 43.5092C81.0358 43.5092 81.2946 43.3465 81.5461 43.021C81.7976 42.6956 82.0712 42.1483 82.3671 41.3791L86.4719 30.6401C86.5458 30.433 86.5458 30.2703 86.4719 30.1519C86.3979 30.0336 86.2648 29.9744 86.0725 29.9744H85.3403V29.2422H88.8682V29.9744C88.6315 29.9744 88.4244 30.004 88.2469 30.0632C88.0842 30.1075 87.9363 30.2185 87.8032 30.396C87.6848 30.5587 87.5443 30.825 87.3816 31.1948L84.0312 39.4044C83.7649 40.0404 83.5135 40.6543 83.2768 41.246C83.0549 41.8525 82.8034 42.385 82.5224 42.8435C82.2561 43.3169 81.9307 43.6867 81.5461 43.9529C81.1763 44.2192 80.7104 44.3523 80.1483 44.3523ZM83.0327 40.6025L79.0167 30.8841C78.9131 30.6031 78.8096 30.4034 78.706 30.285C78.6025 30.1519 78.462 30.0706 78.2845 30.041C78.1069 29.9966 77.8407 29.9744 77.4857 29.9744V29.2422H83.3877V29.9744H82.6999C82.5224 29.9744 82.3893 30.041 82.3005 30.1741C82.2265 30.2924 82.2339 30.4847 82.3227 30.751L84.3196 36.1205H84.8965L83.0327 40.6025ZM101.589 39.6706V38.9384C101.929 38.9384 102.181 38.9162 102.344 38.8719C102.506 38.8275 102.61 38.7313 102.654 38.5834C102.713 38.4355 102.743 38.221 102.743 37.94V32.6148C102.743 32.0675 102.676 31.6311 102.543 31.3057C102.425 30.9655 102.24 30.7214 101.989 30.5735C101.752 30.4256 101.464 30.3516 101.123 30.3516C100.68 30.3516 100.295 30.4626 99.9695 30.6844C99.6441 30.9063 99.2817 31.2096 98.8823 31.5941L98.8158 30.8398C99.1116 30.5291 99.4444 30.2333 99.8142 29.9522C100.184 29.6712 100.598 29.4419 101.057 29.2644C101.53 29.0869 102.07 28.9981 102.676 28.9981C103.653 28.9981 104.429 29.2792 105.006 29.8413C105.583 30.3886 105.872 31.2687 105.872 32.4817V37.829C105.872 38.1396 105.901 38.3763 105.96 38.539C106.034 38.687 106.167 38.7905 106.36 38.8497C106.552 38.9088 106.848 38.9384 107.247 38.9384V39.6706H101.589ZM94.5113 39.6706V38.9384C94.9402 38.9384 95.2509 38.9162 95.4432 38.8719C95.6503 38.8127 95.7834 38.7017 95.8426 38.539C95.9017 38.3763 95.9313 38.1396 95.9313 37.829V31.2613C95.9313 30.9359 95.8869 30.714 95.7982 30.5957C95.7242 30.4773 95.5541 30.4182 95.2878 30.4182H94.5556V29.686L98.0392 29.1313H98.9933V30.5957H99.082V37.8734C99.082 38.184 99.1116 38.4207 99.1708 38.5834C99.2447 38.7313 99.3631 38.8275 99.5258 38.8719C99.7033 38.9162 99.9621 38.9384 100.302 38.9384V39.6706H94.5113ZM116.378 39.9147C115.905 39.9147 115.513 39.8481 115.202 39.715C114.891 39.5819 114.662 39.397 114.514 39.1603C114.366 38.9236 114.292 38.6574 114.292 38.3615V31.7938C114.292 31.1726 114.174 30.7066 113.937 30.396C113.701 30.0706 113.264 29.9078 112.628 29.9078C112.406 29.9078 112.192 29.93 111.985 29.9744C111.792 30.0188 111.637 30.0854 111.519 30.1741C111.4 30.2629 111.341 30.3664 111.341 30.4847C111.341 30.6179 111.386 30.7362 111.474 30.8398C111.578 30.9433 111.674 31.0616 111.763 31.1948C111.852 31.3131 111.896 31.498 111.896 31.7495C111.896 32.1193 111.763 32.4447 111.497 32.7257C111.23 33.0068 110.853 33.1473 110.365 33.1473C109.877 33.1473 109.5 33.0068 109.233 32.7257C108.967 32.4447 108.834 32.1267 108.834 31.7717C108.834 31.3427 108.997 30.9211 109.322 30.5069C109.662 30.078 110.195 29.7229 110.92 29.4419C111.645 29.1608 112.591 29.0203 113.76 29.0203C115.032 29.0203 115.956 29.3014 116.533 29.8635C117.125 30.4256 117.421 31.3279 117.421 32.5704V37.4518C117.421 37.9991 117.473 38.3615 117.576 38.539C117.68 38.7017 117.835 38.7831 118.042 38.7831C118.22 38.7831 118.36 38.7609 118.464 38.7165C118.582 38.6574 118.693 38.6056 118.797 38.5612L119.041 39.2047C118.671 39.4414 118.271 39.6189 117.842 39.7372C117.413 39.8555 116.925 39.9147 116.378 39.9147ZM111.23 39.9147C110.254 39.9147 109.5 39.715 108.967 39.3156C108.435 38.9162 108.168 38.3319 108.168 37.5628C108.168 36.8232 108.464 36.1723 109.056 35.6102C109.648 35.0481 110.476 34.5748 111.541 34.1902C112.606 33.7908 113.849 33.4949 115.269 33.3026V34.1458C113.878 34.412 112.865 34.7744 112.229 35.233C111.608 35.6916 111.297 36.298 111.297 37.0524C111.297 37.5997 111.415 37.9917 111.652 38.2284C111.889 38.4651 112.244 38.5834 112.717 38.5834C113.042 38.5834 113.346 38.5095 113.627 38.3615C113.923 38.1988 114.189 38.0213 114.425 37.829C114.662 37.6219 114.854 37.4444 115.002 37.2965L115.246 38.0287C114.965 38.3098 114.64 38.5982 114.27 38.894C113.9 39.1899 113.471 39.434 112.983 39.6263C112.495 39.8186 111.911 39.9147 111.23 39.9147ZM133.36 39.6706V38.9384C133.7 38.9384 133.951 38.9162 134.114 38.8719C134.277 38.8275 134.38 38.7313 134.425 38.5834C134.484 38.4355 134.513 38.221 134.513 37.94V32.6148C134.513 32.0823 134.447 31.6533 134.314 31.3279C134.181 30.9877 133.988 30.7436 133.737 30.5957C133.485 30.433 133.189 30.3516 132.849 30.3516C132.524 30.3516 132.235 30.4182 131.984 30.5513C131.732 30.6844 131.511 30.8767 131.318 31.1282C131.126 31.3649 130.963 31.6607 130.83 32.0157L130.386 31.3945C130.741 30.6253 131.244 30.0336 131.895 29.6194C132.561 29.2052 133.367 28.9981 134.314 28.9981C135.349 28.9981 136.163 29.2792 136.754 29.8413C137.361 30.3886 137.664 31.2687 137.664 32.4817V37.829C137.664 38.1396 137.694 38.3763 137.753 38.539C137.812 38.687 137.938 38.7905 138.13 38.8497C138.322 38.9088 138.618 38.9384 139.018 38.9384V39.6706H133.36ZM119.603 39.6706V38.9384C120.032 38.9384 120.343 38.9162 120.535 38.8719C120.742 38.8127 120.875 38.7017 120.934 38.539C120.993 38.3763 121.023 38.1396 121.023 37.829V31.2613C121.023 30.9359 120.979 30.714 120.89 30.5957C120.816 30.4773 120.646 30.4182 120.38 30.4182H119.647V29.686L123.131 29.1313H124.085V30.5513H124.174V37.8734C124.174 38.184 124.203 38.4207 124.262 38.5834C124.336 38.7313 124.455 38.8275 124.617 38.8719C124.795 38.9162 125.054 38.9384 125.394 38.9384V39.6706H119.603ZM126.637 39.6706V38.9384C126.977 38.9384 127.221 38.9162 127.369 38.8719C127.531 38.8275 127.642 38.7313 127.702 38.5834C127.761 38.4355 127.79 38.221 127.79 37.94V32.6148C127.79 32.0675 127.724 31.6311 127.591 31.3057C127.472 30.9655 127.287 30.7214 127.036 30.5735C126.799 30.4256 126.496 30.3516 126.126 30.3516C125.86 30.3516 125.609 30.396 125.372 30.4847C125.135 30.5735 124.898 30.714 124.662 30.9063C124.44 31.0986 124.196 31.3501 123.93 31.6607L123.841 30.8398C124.151 30.5143 124.492 30.2185 124.862 29.9522C125.231 29.6712 125.653 29.4419 126.126 29.2644C126.6 29.0869 127.125 28.9981 127.702 28.9981C128.426 28.9981 129.025 29.1313 129.499 29.3975C129.972 29.649 130.327 29.9818 130.564 30.396C130.801 30.8102 130.919 31.2539 130.919 31.7273V37.829C130.919 38.1396 130.941 38.3763 130.985 38.539C131.045 38.687 131.156 38.7905 131.318 38.8497C131.496 38.9088 131.762 38.9384 132.117 38.9384V39.6706H126.637ZM144.882 39.9147C143.255 39.9147 142.013 39.4635 141.155 38.5612C140.312 37.6441 139.89 36.2832 139.89 34.4786C139.89 33.2509 140.082 32.2302 140.467 31.4166C140.866 30.6031 141.436 29.9966 142.175 29.5972C142.93 29.1978 143.854 28.9981 144.949 28.9981C145.807 28.9981 146.546 29.1239 147.168 29.3753C147.789 29.612 148.292 29.967 148.677 30.4404C149.076 30.8989 149.364 31.4536 149.542 32.1045C149.734 32.7553 149.83 33.5023 149.83 34.3455V34.5452H141.776V33.7464H146.524C146.524 32.8441 146.48 32.1045 146.391 31.5276C146.317 30.9507 146.162 30.5217 145.925 30.2407C145.703 29.9448 145.37 29.7969 144.927 29.7969C144.557 29.7969 144.239 29.9152 143.973 30.1519C143.721 30.3886 143.529 30.8028 143.396 31.3945C143.263 31.9861 143.196 32.8071 143.196 33.8573C143.196 34.6709 143.24 35.3735 143.329 35.9652C143.418 36.5421 143.558 37.0228 143.751 37.4074C143.958 37.792 144.231 38.0805 144.572 38.2728C144.927 38.4503 145.356 38.539 145.859 38.539C146.376 38.539 146.82 38.4577 147.19 38.295C147.574 38.1175 147.9 37.8734 148.166 37.5628C148.447 37.2521 148.677 36.8897 148.854 36.4755L149.608 36.8749C149.416 37.3335 149.15 37.7994 148.81 38.2728C148.469 38.7461 147.989 39.1381 147.367 39.4488C146.761 39.7594 145.933 39.9147 144.882 39.9147ZM156.07 39.6706V38.9384C156.499 38.9384 156.809 38.9088 157.002 38.8497C157.209 38.7905 157.342 38.687 157.401 38.539C157.46 38.3763 157.49 38.1396 157.49 37.829V31.2613C157.49 30.9211 157.446 30.6992 157.357 30.5957C157.283 30.4773 157.12 30.4182 156.869 30.4182H156.136V29.686L159.664 29.1313H160.641V37.829C160.641 38.1396 160.67 38.3763 160.729 38.539C160.789 38.687 160.907 38.7905 161.084 38.8497C161.277 38.9088 161.558 38.9384 161.928 38.9384V39.6706H156.07ZM158.976 27.8887C158.488 27.8887 158.059 27.7186 157.69 27.3784C157.335 27.0382 157.157 26.624 157.157 26.1359C157.157 25.6329 157.335 25.2114 157.69 24.8711C158.059 24.5309 158.488 24.3608 158.976 24.3608C159.317 24.3608 159.62 24.4422 159.886 24.6049C160.167 24.7676 160.389 24.9821 160.552 25.2483C160.715 25.5146 160.796 25.8104 160.796 26.1359C160.796 26.624 160.611 27.0382 160.241 27.3784C159.886 27.7186 159.465 27.8887 158.976 27.8887ZM167.485 39.9369C166.938 39.9369 166.501 39.8851 166.176 39.7816C165.851 39.6928 165.577 39.6041 165.355 39.5153C165.133 39.4266 164.911 39.3822 164.689 39.3822C164.527 39.3822 164.401 39.4118 164.312 39.4709C164.223 39.5301 164.149 39.6041 164.09 39.6928H163.558L163.358 36.0762H164.068C164.246 37.0228 164.63 37.7698 165.222 38.3172C165.814 38.8645 166.524 39.1381 167.352 39.1381C167.884 39.1381 168.343 39.0124 168.728 38.7609C169.127 38.4947 169.327 38.0805 169.327 37.5184C169.327 37.2225 169.268 36.9859 169.149 36.8084C169.031 36.6161 168.839 36.446 168.572 36.298C168.306 36.1353 167.958 35.9726 167.529 35.8099L166.331 35.4771C165.296 35.1073 164.556 34.6783 164.113 34.1902C163.669 33.702 163.447 33.0882 163.447 32.3485C163.447 31.3131 163.802 30.4995 164.512 29.9078C165.237 29.3014 166.213 28.9981 167.441 28.9981C167.929 28.9981 168.313 29.0351 168.595 29.1091C168.89 29.183 169.134 29.257 169.327 29.331C169.534 29.4049 169.726 29.4419 169.904 29.4419C170.081 29.4419 170.199 29.3975 170.259 29.3088C170.318 29.22 170.362 29.1313 170.392 29.0425H170.946L171.102 32.282H170.458C170.31 31.7643 170.103 31.3205 169.837 30.9507C169.571 30.5661 169.253 30.2777 168.883 30.0854C168.528 29.8783 168.114 29.7747 167.64 29.7747C167.093 29.7747 166.657 29.9005 166.331 30.1519C166.006 30.4034 165.843 30.7288 165.843 31.1282C165.843 31.424 165.932 31.6755 166.109 31.8826C166.302 32.0749 166.531 32.2376 166.797 32.3707C167.078 32.4891 167.352 32.6 167.618 32.7036L168.639 33.0142C169.349 33.2361 169.926 33.5023 170.37 33.813C170.828 34.1088 171.168 34.4638 171.39 34.878C171.612 35.2774 171.723 35.7581 171.723 36.3202C171.723 37.0155 171.553 37.6367 171.213 38.184C170.887 38.7313 170.407 39.1603 169.77 39.4709C169.149 39.7816 168.387 39.9369 167.485 39.9369ZM178.156 39.6706V38.9384C178.659 38.9384 179.022 38.9088 179.244 38.8497C179.465 38.7905 179.606 38.6722 179.665 38.4947C179.739 38.3172 179.776 38.0509 179.776 37.6959V27.0234C179.776 26.6536 179.739 26.3799 179.665 26.2024C179.606 26.0249 179.458 25.9066 179.221 25.8474C179 25.7883 178.645 25.7587 178.156 25.7587V25.0265H189.672V28.5987H188.895C188.718 27.8739 188.503 27.3118 188.252 26.9125C188.015 26.5131 187.69 26.2394 187.276 26.0915C186.862 25.9436 186.299 25.8696 185.589 25.8696H183.992C183.666 25.8696 183.445 25.9214 183.326 26.0249C183.208 26.1285 183.149 26.3282 183.149 26.624V31.5276H185.612C186.055 31.5276 186.396 31.4758 186.632 31.3723C186.869 31.2687 187.039 31.069 187.143 30.7732C187.261 30.4773 187.357 30.0706 187.431 29.5528H188.074V34.4786H187.431C187.357 33.9461 187.261 33.5393 187.143 33.2583C187.039 32.9624 186.869 32.7627 186.632 32.6592C186.396 32.5556 186.055 32.5039 185.612 32.5039H183.149V37.3631C183.149 37.7772 183.193 38.0879 183.282 38.295C183.385 38.5021 183.6 38.6426 183.925 38.7165C184.266 38.7905 184.813 38.8275 185.567 38.8275C186.336 38.8275 186.972 38.7387 187.475 38.5612C187.993 38.3837 188.415 38.0731 188.74 37.6293C189.066 37.1708 189.317 36.5347 189.495 35.7211H190.249L189.983 39.6706H178.156ZM191.432 39.6706V38.9384C191.861 38.9384 192.172 38.9088 192.364 38.8497C192.571 38.7905 192.704 38.687 192.763 38.539C192.823 38.3763 192.852 38.1396 192.852 37.829V31.2613C192.852 30.9211 192.808 30.6992 192.719 30.5957C192.645 30.4773 192.482 30.4182 192.231 30.4182H191.499V29.686L195.027 29.1313H196.003V37.829C196.003 38.1396 196.033 38.3763 196.092 38.539C196.151 38.687 196.269 38.7905 196.447 38.8497C196.639 38.9088 196.92 38.9384 197.29 38.9384V39.6706H191.432ZM194.339 27.8887C193.851 27.8887 193.422 27.7186 193.052 27.3784C192.697 27.0382 192.519 26.624 192.519 26.1359C192.519 25.6329 192.697 25.2114 193.052 24.8711C193.422 24.5309 193.851 24.3608 194.339 24.3608C194.679 24.3608 194.982 24.4422 195.249 24.6049C195.53 24.7676 195.751 24.9821 195.914 25.2483C196.077 25.5146 196.158 25.8104 196.158 26.1359C196.158 26.624 195.973 27.0382 195.604 27.3784C195.249 27.7186 194.827 27.8887 194.339 27.8887ZM198.365 39.6706V38.9384C198.78 38.9384 199.09 38.9088 199.297 38.8497C199.504 38.7905 199.638 38.687 199.697 38.539C199.756 38.3763 199.785 38.1396 199.785 37.829V26.5131C199.785 26.1728 199.741 25.9436 199.652 25.8252C199.578 25.7069 199.408 25.6477 199.142 25.6477H198.41V24.9155L201.982 24.3608H202.936V37.829C202.936 38.1396 202.966 38.3763 203.025 38.539C203.084 38.687 203.202 38.7905 203.38 38.8497C203.572 38.9088 203.853 38.9384 204.223 38.9384V39.6706H198.365ZM210.32 39.9147C208.693 39.9147 207.45 39.4635 206.592 38.5612C205.749 37.6441 205.328 36.2832 205.328 34.4786C205.328 33.2509 205.52 32.2302 205.905 31.4166C206.304 30.6031 206.873 29.9966 207.613 29.5972C208.367 29.1978 209.292 28.9981 210.387 28.9981C211.245 28.9981 211.984 29.1239 212.605 29.3753C213.227 29.612 213.73 29.967 214.114 30.4404C214.514 30.8989 214.802 31.4536 214.98 32.1045C215.172 32.7553 215.268 33.5023 215.268 34.3455V34.5452H207.214V33.7464H211.962C211.962 32.8441 211.918 32.1045 211.829 31.5276C211.755 30.9507 211.6 30.5217 211.363 30.2407C211.141 29.9448 210.808 29.7969 210.364 29.7969C209.995 29.7969 209.677 29.9152 209.41 30.1519C209.159 30.3886 208.967 30.8028 208.833 31.3945C208.7 31.9861 208.634 32.8071 208.634 33.8573C208.634 34.6709 208.678 35.3735 208.767 35.9652C208.856 36.5421 208.996 37.0228 209.188 37.4074C209.395 37.792 209.669 38.0805 210.009 38.2728C210.364 38.4503 210.793 38.539 211.296 38.539C211.814 38.539 212.258 38.4577 212.628 38.295C213.012 38.1175 213.338 37.8734 213.604 37.5628C213.885 37.2521 214.114 36.8897 214.292 36.4755L215.046 36.8749C214.854 37.3335 214.588 37.7994 214.247 38.2728C213.907 38.7461 213.426 39.1381 212.805 39.4488C212.199 39.7594 211.37 39.9147 210.32 39.9147ZM221.847 39.9147C220.22 39.9147 218.978 39.4635 218.12 38.5612C217.277 37.6441 216.855 36.2832 216.855 34.4786C216.855 33.2509 217.047 32.2302 217.432 31.4166C217.831 30.6031 218.401 29.9966 219.14 29.5972C219.895 29.1978 220.819 28.9981 221.914 28.9981C222.772 28.9981 223.512 29.1239 224.133 29.3753C224.754 29.612 225.257 29.967 225.642 30.4404C226.041 30.8989 226.329 31.4536 226.507 32.1045C226.699 32.7553 226.795 33.5023 226.795 34.3455V34.5452H218.741V33.7464H223.489C223.489 32.8441 223.445 32.1045 223.356 31.5276C223.282 30.9507 223.127 30.5217 222.89 30.2407C222.668 29.9448 222.336 29.7969 221.892 29.7969C221.522 29.7969 221.204 29.9152 220.938 30.1519C220.686 30.3886 220.494 30.8028 220.361 31.3945C220.228 31.9861 220.161 32.8071 220.161 33.8573C220.161 34.6709 220.206 35.3735 220.294 35.9652C220.383 36.5421 220.524 37.0228 220.716 37.4074C220.923 37.792 221.197 38.0805 221.537 38.2728C221.892 38.4503 222.321 38.539 222.824 38.539C223.341 38.539 223.785 38.4577 224.155 38.295C224.54 38.1175 224.865 37.8734 225.131 37.5628C225.412 37.2521 225.642 36.8897 225.819 36.4755L226.574 36.8749C226.381 37.3335 226.115 37.7994 225.775 38.2728C225.435 38.7461 224.954 39.1381 224.333 39.4488C223.726 39.7594 222.898 39.9147 221.847 39.9147ZM235.216 39.6706V38.9384C235.557 38.9384 235.808 38.9162 235.971 38.8719C236.134 38.8275 236.237 38.7313 236.282 38.5834C236.341 38.4355 236.37 38.221 236.37 37.94V32.6148C236.37 32.0675 236.304 31.6311 236.171 31.3057C236.052 30.9655 235.867 30.7214 235.616 30.5735C235.379 30.4256 235.091 30.3516 234.751 30.3516C234.307 30.3516 233.922 30.4626 233.597 30.6844C233.271 30.9063 232.909 31.2096 232.51 31.5941L232.443 30.8398C232.739 30.5291 233.072 30.2333 233.441 29.9522C233.811 29.6712 234.225 29.4419 234.684 29.2644C235.157 29.0869 235.697 28.9981 236.304 28.9981C237.28 28.9981 238.057 29.2792 238.633 29.8413C239.21 30.3886 239.499 31.2687 239.499 32.4817V37.829C239.499 38.1396 239.528 38.3763 239.588 38.539C239.661 38.687 239.795 38.7905 239.987 38.8497C240.179 38.9088 240.475 38.9384 240.874 38.9384V39.6706H235.216ZM228.138 39.6706V38.9384C228.567 38.9384 228.878 38.9162 229.07 38.8719C229.277 38.8127 229.411 38.7017 229.47 38.539C229.529 38.3763 229.558 38.1396 229.558 37.829V31.2613C229.558 30.9359 229.514 30.714 229.425 30.5957C229.351 30.4773 229.181 30.4182 228.915 30.4182H228.183V29.686L231.666 29.1313H232.62V30.5957H232.709V37.8734C232.709 38.184 232.739 38.4207 232.798 38.5834C232.872 38.7313 232.99 38.8275 233.153 38.8719C233.33 38.9162 233.589 38.9384 233.93 38.9384V39.6706H228.138ZM244.692 39.8703C244.233 39.8703 243.834 39.7076 243.494 39.3822C243.168 39.042 243.006 38.6426 243.006 38.184C243.006 37.7255 243.176 37.3261 243.516 36.9859C243.856 36.6456 244.255 36.4755 244.714 36.4755C245.173 36.4755 245.572 36.6456 245.912 36.9859C246.252 37.3113 246.423 37.7107 246.423 38.184C246.423 38.6426 246.252 39.042 245.912 39.3822C245.572 39.7076 245.165 39.8703 244.692 39.8703ZM43.7491 68.6706V67.9384C44.2669 67.9384 44.6367 67.9088 44.8585 67.8497C45.0952 67.7905 45.2357 67.6722 45.2801 67.4947C45.3393 67.3172 45.3689 67.0509 45.3689 66.6959V56.0456C45.3689 55.6758 45.3319 55.4021 45.2579 55.2246C45.1988 55.0323 45.0508 54.9066 44.8142 54.8474C44.5923 54.7883 44.2373 54.7587 43.7491 54.7587V54.0265H50.339V54.7587C49.8657 54.7587 49.5107 54.7883 49.274 54.8474C49.0521 54.9066 48.9042 55.0323 48.8302 55.2246C48.7711 55.4021 48.7415 55.6758 48.7415 56.0456V66.6959C48.7415 67.0657 48.7785 67.3393 48.8524 67.5168C48.9264 67.6944 49.0743 67.8127 49.2962 67.8719C49.5181 67.9162 49.8657 67.9384 50.339 67.9384V68.6706H43.7491ZM53.336 59.285L53.2472 58.5972C53.4395 58.5676 53.654 58.5011 53.8907 58.3975C54.1421 58.294 54.3566 58.1535 54.5341 57.9759C54.7264 57.7984 54.8226 57.5914 54.8226 57.3547C54.8226 57.1772 54.7708 57.0588 54.6673 56.9997C54.5785 56.9405 54.4528 56.8887 54.2901 56.8444C54.0682 56.7704 53.8463 56.6742 53.6244 56.5559C53.4025 56.4228 53.225 56.2453 53.0919 56.0234C52.9588 55.8015 52.8922 55.5205 52.8922 55.1802C52.8922 54.7217 53.0401 54.3223 53.336 53.9821C53.6318 53.6271 54.046 53.4496 54.5785 53.4496C55.0075 53.4496 55.4069 53.6123 55.7767 53.9377C56.1465 54.2483 56.3314 54.8104 56.3314 55.624C56.3314 56.2157 56.213 56.7778 55.9764 57.3103C55.7397 57.828 55.3995 58.2644 54.9557 58.6194C54.5119 58.9744 53.972 59.1963 53.336 59.285ZM72.3422 68.6706V67.9384C72.6824 67.9384 72.9339 67.9162 73.0966 67.8719C73.2593 67.8275 73.3629 67.7313 73.4072 67.5834C73.4664 67.4355 73.496 67.221 73.496 66.94V61.6148C73.496 61.0823 73.4294 60.6533 73.2963 60.3279C73.1632 59.9877 72.9709 59.7436 72.7194 59.5957C72.4679 59.433 72.1721 59.3516 71.8319 59.3516C71.5064 59.3516 71.218 59.4182 70.9665 59.5513C70.7151 59.6844 70.4932 59.8767 70.3009 60.1282C70.1086 60.3649 69.9459 60.6607 69.8127 61.0157L69.369 60.3945C69.724 59.6253 70.2269 59.0336 70.8778 58.6194C71.5434 58.2052 72.3496 57.9981 73.2963 57.9981C74.3317 57.9981 75.1453 58.2792 75.737 58.8413C76.3435 59.3886 76.6467 60.2687 76.6467 61.4817V66.829C76.6467 67.1396 76.6763 67.3763 76.7354 67.539C76.7946 67.687 76.9203 67.7905 77.1126 67.8497C77.3049 67.9088 77.6008 67.9384 78.0002 67.9384V68.6706H72.3422ZM58.5855 68.6706V67.9384C59.0145 67.9384 59.3252 67.9162 59.5175 67.8719C59.7245 67.8127 59.8577 67.7017 59.9168 67.539C59.976 67.3763 60.0056 67.1396 60.0056 66.829V60.2613C60.0056 59.9359 59.9612 59.714 59.8725 59.5957C59.7985 59.4773 59.6284 59.4182 59.3621 59.4182H58.6299V58.686L62.1135 58.1313H63.0676V59.5513H63.1563V66.8734C63.1563 67.184 63.1859 67.4207 63.2451 67.5834C63.319 67.7313 63.4374 67.8275 63.6001 67.8719C63.7776 67.9162 64.0364 67.9384 64.3767 67.9384V68.6706H58.5855ZM65.6192 68.6706V67.9384C65.9594 67.9384 66.2035 67.9162 66.3514 67.8719C66.5141 67.8275 66.6251 67.7313 66.6842 67.5834C66.7434 67.4355 66.773 67.221 66.773 66.94V61.6148C66.773 61.0675 66.7064 60.6311 66.5733 60.3057C66.4549 59.9655 66.27 59.7214 66.0186 59.5735C65.7819 59.4256 65.4787 59.3516 65.1089 59.3516C64.8426 59.3516 64.5911 59.396 64.3545 59.4847C64.1178 59.5735 63.8811 59.714 63.6444 59.9063C63.4226 60.0986 63.1785 60.3501 62.9122 60.6607L62.8235 59.8398C63.1341 59.5143 63.4743 59.2185 63.8441 58.9522C64.2139 58.6712 64.6355 58.4419 65.1089 58.2644C65.5822 58.0869 66.1073 57.9981 66.6842 57.9981C67.409 57.9981 68.0081 58.1313 68.4815 58.3975C68.9548 58.649 69.3098 58.9818 69.5465 59.396C69.7832 59.8102 69.9015 60.2539 69.9015 60.7273V66.829C69.9015 67.1396 69.9237 67.3763 69.9681 67.539C70.0272 67.687 70.1382 67.7905 70.3009 67.8497C70.4784 67.9088 70.7446 67.9384 71.0997 67.9384V68.6706H65.6192ZM92.4564 68.9147C91.9831 68.9147 91.5911 68.8481 91.2805 68.715C90.9698 68.5819 90.7406 68.397 90.5926 68.1603C90.4447 67.9236 90.3708 67.6574 90.3708 67.3615V60.7938C90.3708 60.1726 90.2524 59.7066 90.0157 59.396C89.7791 59.0706 89.3427 58.9078 88.7066 58.9078C88.4848 58.9078 88.2703 58.93 88.0632 58.9744C87.8709 59.0188 87.7156 59.0854 87.5972 59.1741C87.4789 59.2629 87.4197 59.3664 87.4197 59.4847C87.4197 59.6179 87.4641 59.7362 87.5529 59.8398C87.6564 59.9433 87.7526 60.0616 87.8413 60.1948C87.9301 60.3131 87.9744 60.498 87.9744 60.7495C87.9744 61.1193 87.8413 61.4447 87.575 61.7257C87.3088 62.0068 86.9316 62.1473 86.4435 62.1473C85.9553 62.1473 85.5781 62.0068 85.3119 61.7257C85.0456 61.4447 84.9125 61.1267 84.9125 60.7717C84.9125 60.3427 85.0752 59.9211 85.4006 59.5069C85.7408 59.078 86.2733 58.7229 86.9982 58.4419C87.723 58.1608 88.6697 58.0203 89.8382 58.0203C91.1104 58.0203 92.0349 58.3014 92.6118 58.8635C93.2034 59.4256 93.4993 60.3279 93.4993 61.5704V66.4518C93.4993 66.9991 93.5511 67.3615 93.6546 67.539C93.7581 67.7017 93.9135 67.7831 94.1205 67.7831C94.2981 67.7831 94.4386 67.7609 94.5421 67.7165C94.6605 67.6574 94.7714 67.6056 94.8749 67.5612L95.119 68.2047C94.7492 68.4414 94.3498 68.6189 93.9209 68.7372C93.4919 68.8555 93.0037 68.9147 92.4564 68.9147ZM87.3088 68.9147C86.3325 68.9147 85.5781 68.715 85.0456 68.3156C84.5131 67.9162 84.2468 67.3319 84.2468 66.5628C84.2468 65.8232 84.5427 65.1723 85.1344 64.6102C85.726 64.0481 86.5544 63.5748 87.6194 63.1902C88.6845 62.7908 89.927 62.4949 91.347 62.3026V63.1458C89.9566 63.412 88.9433 63.7744 88.3073 64.233C87.686 64.6916 87.3754 65.298 87.3754 66.0524C87.3754 66.5997 87.4937 66.9917 87.7304 67.2284C87.967 67.4651 88.322 67.5834 88.7954 67.5834C89.1208 67.5834 89.4241 67.5095 89.7051 67.3615C90.001 67.1988 90.2672 67.0213 90.5039 66.829C90.7406 66.6219 90.9329 66.4444 91.0808 66.2965L91.3248 67.0287C91.0438 67.3098 90.7184 67.5982 90.3486 67.894C89.9788 68.1899 89.5498 68.434 89.0617 68.6263C88.5735 68.8186 87.9892 68.9147 87.3088 68.9147ZM108.521 68.9369C106.362 68.9369 104.794 68.5227 103.817 67.6944C102.856 66.8512 102.375 65.5199 102.375 63.7005V56.0234C102.375 55.6536 102.345 55.3799 102.286 55.2024C102.227 55.0249 102.087 54.9066 101.865 54.8474C101.643 54.7883 101.28 54.7587 100.778 54.7587V54.0265H107.367V54.7587C106.879 54.7587 106.517 54.7883 106.28 54.8474C106.058 54.8918 105.91 55.0101 105.836 55.2024C105.777 55.3799 105.748 55.6536 105.748 56.0234V63.8114C105.748 64.7285 105.836 65.4977 106.014 66.119C106.206 66.7403 106.509 67.2062 106.924 67.5168C107.353 67.8275 107.9 67.9828 108.566 67.9828C109.246 67.9828 109.793 67.8349 110.207 67.539C110.636 67.2284 110.947 66.7625 111.139 66.1412C111.332 65.5199 111.428 64.7433 111.428 63.8114V56.0234C111.428 55.6536 111.391 55.3799 111.317 55.2024C111.258 55.0101 111.11 54.8918 110.873 54.8474C110.651 54.7883 110.296 54.7587 109.808 54.7587V54.0265H116.354V54.7587C115.851 54.7587 115.488 54.7883 115.266 54.8474C115.044 54.9066 114.904 55.0249 114.845 55.2024C114.786 55.3799 114.756 55.6536 114.756 56.0234V63.7005C114.756 65.5051 114.261 66.829 113.269 67.6722C112.293 68.5153 110.71 68.9369 108.521 68.9369ZM124.755 68.6706V67.9384H125.62C125.946 67.9384 126.131 67.8497 126.175 67.6722C126.22 67.4799 126.146 67.2284 125.953 66.9178L123.357 62.5911H122.913L122.891 61.8367L119.275 55.8903C119.082 55.5648 118.912 55.3208 118.764 55.1581C118.616 54.9953 118.439 54.8918 118.232 54.8474C118.039 54.7883 117.766 54.7587 117.411 54.7587V54.0265H124.134V54.7587H123.446C123.165 54.7587 122.987 54.8326 122.913 54.9805C122.84 55.1285 122.876 55.343 123.024 55.624L125.221 59.3516H125.598L125.643 60.0394L129.459 66.2743C129.74 66.7033 129.984 67.0435 130.191 67.295C130.413 67.5316 130.657 67.7017 130.923 67.8053C131.19 67.894 131.53 67.9384 131.944 67.9384V68.6706H124.755ZM117.278 68.6706V67.9384C117.662 67.9384 117.973 67.9014 118.21 67.8275C118.461 67.7387 118.668 67.6056 118.831 67.4281C119.008 67.2506 119.193 67.0213 119.386 66.7403L123.246 61.2376L123.668 62.0142L120.495 67.0287C120.347 67.295 120.317 67.5168 120.406 67.6944C120.51 67.8571 120.695 67.9384 120.961 67.9384H121.893V68.6706H117.278ZM125.265 60.7717L125.132 59.5957L127.418 55.8681C127.595 55.587 127.662 55.3356 127.617 55.1137C127.588 54.877 127.395 54.7587 127.04 54.7587H126.441V54.0265H130.857V54.7587C130.487 54.7587 130.169 54.7956 129.903 54.8696C129.651 54.9436 129.422 55.0767 129.215 55.269C129.008 55.4613 128.779 55.7275 128.527 56.0678L125.265 60.7717ZM132.312 68.9369L137.992 53.7824H140.078L134.42 68.9369H132.312ZM148.694 68.9369C146.534 68.9369 144.966 68.5227 143.99 67.6944C143.028 66.8512 142.548 65.5199 142.548 63.7005V56.0234C142.548 55.6536 142.518 55.3799 142.459 55.2024C142.4 55.0249 142.259 54.9066 142.037 54.8474C141.816 54.7883 141.453 54.7587 140.95 54.7587V54.0265H147.54V54.7587C147.052 54.7587 146.69 54.7883 146.453 54.8474C146.231 54.8918 146.083 55.0101 146.009 55.2024C145.95 55.3799 145.92 55.6536 145.92 56.0234V63.8114C145.92 64.7285 146.009 65.4977 146.187 66.119C146.379 66.7403 146.682 67.2062 147.096 67.5168C147.525 67.8275 148.073 67.9828 148.738 67.9828C149.419 67.9828 149.966 67.8349 150.38 67.539C150.809 67.2284 151.12 66.7625 151.312 66.1412C151.504 65.5199 151.6 64.7433 151.6 63.8114V56.0234C151.6 55.6536 151.563 55.3799 151.49 55.2024C151.43 55.0101 151.282 54.8918 151.046 54.8474C150.824 54.7883 150.469 54.7587 149.981 54.7587V54.0265H156.526V54.7587C156.023 54.7587 155.661 54.7883 155.439 54.8474C155.217 54.9066 155.077 55.0249 155.017 55.2024C154.958 55.3799 154.929 55.6536 154.929 56.0234V63.7005C154.929 65.5051 154.433 66.829 153.442 67.6722C152.466 68.5153 150.883 68.9369 148.694 68.9369ZM157.572 68.6706V67.9384C158.089 67.9384 158.459 67.9088 158.681 67.8497C158.918 67.7905 159.058 67.6722 159.103 67.4947C159.162 67.3172 159.191 67.0509 159.191 66.6959V56.0456C159.191 55.6758 159.154 55.4021 159.08 55.2246C159.021 55.0323 158.873 54.9066 158.637 54.8474C158.415 54.7883 158.06 54.7587 157.572 54.7587V54.0265H164.162V54.7587C163.688 54.7587 163.333 54.7883 163.097 54.8474C162.875 54.9066 162.727 55.0323 162.653 55.2246C162.594 55.4021 162.564 55.6758 162.564 56.0456V66.6959C162.564 67.0657 162.601 67.3393 162.675 67.5168C162.749 67.6944 162.897 67.8127 163.119 67.8719C163.341 67.9162 163.688 67.9384 164.162 67.9384V68.6706H157.572ZM174.939 68.9147C173.608 68.9147 172.565 68.4561 171.811 67.539C171.071 66.6219 170.702 65.3424 170.702 63.7005C170.702 62.4284 170.916 61.3707 171.345 60.5276C171.774 59.6844 172.388 59.0558 173.187 58.6416C173.985 58.2126 174.947 57.9981 176.071 57.9981C176.485 57.9981 176.84 58.0277 177.136 58.0869C177.432 58.1313 177.706 58.1978 177.957 58.2866C178.208 58.3753 178.46 58.4641 178.711 58.5528V60.0394C178.534 59.8619 178.327 59.677 178.09 59.4847C177.868 59.2924 177.609 59.1297 177.314 58.9966C177.018 58.8635 176.692 58.7969 176.337 58.7969C175.524 58.7969 174.925 59.1593 174.54 59.8841C174.155 60.5941 173.963 61.6592 173.963 63.0792C173.963 64.6176 174.163 65.764 174.562 66.5184C174.962 67.2728 175.524 67.65 176.249 67.65C176.589 67.65 176.885 67.576 177.136 67.4281C177.388 67.2654 177.617 67.0731 177.824 66.8512C178.046 66.6145 178.268 66.4 178.49 66.2077L178.6 67.3172C178.26 67.6574 177.89 67.9458 177.491 68.1825C177.106 68.4192 176.7 68.5967 176.271 68.715C175.857 68.8481 175.413 68.9147 174.939 68.9147ZM178.312 68.6706L178.068 67.0287V55.4687C178.068 55.1433 178.016 54.9288 177.913 54.8252C177.824 54.7069 177.669 54.6477 177.447 54.6477H176.692V53.9155L180.242 53.3608H181.174V66.829C181.174 67.3172 181.241 67.6278 181.374 67.7609C181.507 67.8793 181.744 67.9384 182.084 67.9384H182.594V68.6706H178.312ZM177.89 58.6194V58.2866H178.667V58.6194H177.89ZM188.609 68.9147C186.981 68.9147 185.739 68.4635 184.881 67.5612C184.038 66.6441 183.616 65.2832 183.616 63.4786C183.616 62.2509 183.809 61.2302 184.193 60.4166C184.593 59.6031 185.162 58.9966 185.902 58.5972C186.656 58.1978 187.581 57.9981 188.675 57.9981C189.533 57.9981 190.273 58.1239 190.894 58.3753C191.515 58.612 192.018 58.967 192.403 59.4404C192.802 59.8989 193.091 60.4536 193.268 61.1045C193.46 61.7553 193.557 62.5023 193.557 63.3455V63.5452H185.502V62.7464H190.25C190.25 61.8441 190.206 61.1045 190.117 60.5276C190.043 59.9507 189.888 59.5217 189.651 59.2407C189.43 58.9448 189.097 58.7969 188.653 58.7969C188.283 58.7969 187.965 58.9152 187.699 59.1519C187.447 59.3886 187.255 59.8028 187.122 60.3945C186.989 60.9861 186.922 61.8071 186.922 62.8573C186.922 63.6709 186.967 64.3735 187.055 64.9652C187.144 65.5421 187.285 66.0228 187.477 66.4074C187.684 66.792 187.958 67.0805 188.298 67.2728C188.653 67.4503 189.082 67.539 189.585 67.539C190.103 67.539 190.546 67.4577 190.916 67.295C191.301 67.1175 191.626 66.8734 191.892 66.5628C192.173 66.2521 192.403 65.8897 192.58 65.4755L193.335 65.8749C193.142 66.3335 192.876 66.7994 192.536 67.2728C192.196 67.7461 191.715 68.1381 191.094 68.4488C190.487 68.7594 189.659 68.9147 188.609 68.9147ZM199.337 68.9369C198.79 68.9369 198.354 68.8851 198.028 68.7816C197.703 68.6928 197.429 68.6041 197.207 68.5153C196.985 68.4266 196.763 68.3822 196.542 68.3822C196.379 68.3822 196.253 68.4118 196.164 68.4709C196.076 68.5301 196.002 68.6041 195.942 68.6928H195.41L195.21 65.0762H195.92C196.098 66.0228 196.482 66.7698 197.074 67.3172C197.666 67.8645 198.376 68.1381 199.204 68.1381C199.737 68.1381 200.195 68.0124 200.58 67.7609C200.979 67.4947 201.179 67.0805 201.179 66.5184C201.179 66.2225 201.12 65.9859 201.001 65.8084C200.883 65.6161 200.691 65.446 200.424 65.298C200.158 65.1353 199.811 64.9726 199.382 64.8099L198.183 64.4771C197.148 64.1073 196.408 63.6783 195.965 63.1902C195.521 62.702 195.299 62.0882 195.299 61.3485C195.299 60.3131 195.654 59.4995 196.364 58.9078C197.089 58.3014 198.065 57.9981 199.293 57.9981C199.781 57.9981 200.166 58.0351 200.447 58.1091C200.742 58.183 200.987 58.257 201.179 58.331C201.386 58.4049 201.578 58.4419 201.756 58.4419C201.933 58.4419 202.052 58.3975 202.111 58.3088C202.17 58.22 202.214 58.1313 202.244 58.0425H202.799L202.954 61.282H202.31C202.163 60.7643 201.955 60.3205 201.689 59.9507C201.423 59.5661 201.105 59.2777 200.735 59.0854C200.38 58.8783 199.966 58.7747 199.493 58.7747C198.945 58.7747 198.509 58.9005 198.183 59.1519C197.858 59.4034 197.695 59.7288 197.695 60.1282C197.695 60.424 197.784 60.6755 197.962 60.8826C198.154 61.0749 198.383 61.2376 198.649 61.3707C198.93 61.4891 199.204 61.6 199.47 61.7036L200.491 62.0142C201.201 62.2361 201.778 62.5023 202.222 62.813C202.68 63.1088 203.02 63.4638 203.242 63.878C203.464 64.2774 203.575 64.7581 203.575 65.3202C203.575 66.0155 203.405 66.6367 203.065 67.184C202.739 67.7313 202.259 68.1603 201.623 68.4709C201.001 68.7816 200.24 68.9369 199.337 68.9369ZM204.801 68.6706V67.9384C205.23 67.9384 205.541 67.9088 205.733 67.8497C205.94 67.7905 206.074 67.687 206.133 67.539C206.192 67.3763 206.221 67.1396 206.221 66.829V60.2613C206.221 59.9211 206.177 59.6992 206.088 59.5957C206.014 59.4773 205.852 59.4182 205.6 59.4182H204.868V58.686L208.396 58.1313H209.372V66.829C209.372 67.1396 209.402 67.3763 209.461 67.539C209.52 67.687 209.638 67.7905 209.816 67.8497C210.008 67.9088 210.289 67.9384 210.659 67.9384V68.6706H204.801ZM207.708 56.8887C207.22 56.8887 206.791 56.7186 206.421 56.3784C206.066 56.0382 205.889 55.624 205.889 55.1359C205.889 54.6329 206.066 54.2114 206.421 53.8711C206.791 53.5309 207.22 53.3608 207.708 53.3608C208.048 53.3608 208.351 53.4422 208.618 53.6049C208.899 53.7676 209.121 53.9821 209.283 54.2483C209.446 54.5146 209.527 54.8104 209.527 55.1359C209.527 55.624 209.343 56.0382 208.973 56.3784C208.618 56.7186 208.196 56.8887 207.708 56.8887ZM216.483 73.3745C215.551 73.3745 214.723 73.2784 213.998 73.0861C213.273 72.9086 212.704 72.6201 212.289 72.2207C211.89 71.8361 211.69 71.348 211.69 70.7563C211.69 70.135 211.927 69.6025 212.4 69.1588C212.874 68.7298 213.628 68.397 214.664 68.1603L216.505 68.3156C215.869 68.3748 215.366 68.5153 214.996 68.7372C214.627 68.9739 214.36 69.2475 214.198 69.5582C214.05 69.8836 213.976 70.2164 213.976 70.5566C213.976 71.1779 214.22 71.6808 214.708 72.0654C215.211 72.4648 215.973 72.6645 216.993 72.6645C217.615 72.6645 218.169 72.5831 218.657 72.4204C219.16 72.2725 219.552 72.0432 219.833 71.7326C220.114 71.422 220.255 71.03 220.255 70.5566C220.255 69.9354 219.989 69.499 219.456 69.2475C218.938 68.9961 218.154 68.8703 217.104 68.8703H214.863C214.493 68.8703 214.131 68.7816 213.776 68.6041C213.436 68.4118 213.162 68.1603 212.955 67.8497C212.748 67.539 212.644 67.1914 212.644 66.8068C212.644 66.156 212.933 65.6087 213.51 65.1649C214.087 64.7064 214.826 64.3513 215.729 64.0999L216.194 64.4771C216.047 64.5067 215.876 64.5584 215.684 64.6324C215.507 64.7064 215.322 64.7951 215.129 64.8986C214.952 64.9874 214.804 65.0983 214.686 65.2315C214.567 65.3498 214.508 65.4755 214.508 65.6087C214.508 65.7566 214.604 65.9045 214.797 66.0524C215.004 66.2004 215.396 66.2743 215.973 66.2743H218.258C219.619 66.2743 220.625 66.5554 221.276 67.1175C221.926 67.6648 222.252 68.4488 222.252 69.4694C222.252 70.3421 222.015 71.067 221.542 71.6438C221.083 72.2207 220.425 72.6497 219.567 72.9308C218.709 73.2266 217.681 73.3745 216.483 73.3745ZM216.66 64.9874C215.788 64.9874 215.004 64.8691 214.309 64.6324C213.613 64.3809 213.059 64.0037 212.644 63.5008C212.245 62.9979 212.045 62.3544 212.045 61.5704C212.045 60.9492 212.164 60.4166 212.4 59.9729C212.652 59.5291 212.992 59.1667 213.421 58.8857C213.865 58.5898 214.368 58.3753 214.93 58.2422C215.492 58.0943 216.084 58.0203 216.705 58.0203C217.578 58.0203 218.362 58.1535 219.057 58.4197C219.767 58.6712 220.329 59.0558 220.743 59.5735C221.157 60.0912 221.364 60.7495 221.364 61.5482C221.364 62.347 221.15 63.0053 220.721 63.523C220.292 64.0259 219.722 64.3957 219.012 64.6324C218.302 64.8691 217.518 64.9874 216.66 64.9874ZM216.705 64.2774C217.223 64.2774 217.607 64.0629 217.859 63.6339C218.125 63.205 218.258 62.4653 218.258 61.4151C218.258 60.779 218.206 60.2613 218.103 59.8619C218.014 59.4626 217.859 59.1741 217.637 58.9966C217.43 58.8191 217.141 58.7303 216.771 58.7303C216.194 58.7303 215.795 58.9448 215.573 59.3738C215.351 59.8028 215.24 60.5276 215.24 61.5482C215.24 62.5245 215.344 63.2271 215.551 63.6561C215.773 64.0703 216.158 64.2774 216.705 64.2774ZM222.629 60.3279C222.348 60.3279 222.134 60.2613 221.986 60.1282C221.838 59.9951 221.764 59.8324 221.764 59.6401C221.764 59.5069 221.779 59.4034 221.808 59.3294C221.838 59.2555 221.852 59.1889 221.852 59.1297C221.852 59.0854 221.823 59.041 221.764 58.9966C221.705 58.9374 221.608 58.9078 221.475 58.9078C221.327 58.9078 221.15 58.967 220.943 59.0854C220.75 59.1889 220.566 59.4256 220.388 59.7954L219.944 59.1963C220.181 58.7673 220.477 58.4641 220.832 58.2866C221.202 58.0943 221.594 57.9981 222.008 57.9981C222.511 57.9981 222.903 58.1165 223.184 58.3531C223.465 58.575 223.605 58.8857 223.605 59.285C223.605 59.5809 223.524 59.8324 223.361 60.0394C223.213 60.2317 222.969 60.3279 222.629 60.3279ZM230.84 68.6706V67.9384C231.18 67.9384 231.431 67.9162 231.594 67.8719C231.757 67.8275 231.86 67.7313 231.905 67.5834C231.964 67.4355 231.993 67.221 231.993 66.94V61.6148C231.993 61.0675 231.927 60.6311 231.794 60.3057C231.675 59.9655 231.49 59.7214 231.239 59.5735C231.002 59.4256 230.714 59.3516 230.374 59.3516C229.93 59.3516 229.545 59.4626 229.22 59.6844C228.894 59.9063 228.532 60.2096 228.133 60.5941L228.066 59.8398C228.362 59.5291 228.695 59.2333 229.064 58.9522C229.434 58.6712 229.848 58.4419 230.307 58.2644C230.78 58.0869 231.32 57.9981 231.927 57.9981C232.903 57.9981 233.68 58.2792 234.256 58.8413C234.833 59.3886 235.122 60.2687 235.122 61.4817V66.829C235.122 67.1396 235.151 67.3763 235.211 67.539C235.285 67.687 235.418 67.7905 235.61 67.8497C235.802 67.9088 236.098 67.9384 236.497 67.9384V68.6706H230.84ZM223.762 68.6706V67.9384C224.19 67.9384 224.501 67.9162 224.693 67.8719C224.9 67.8127 225.034 67.7017 225.093 67.539C225.152 67.3763 225.182 67.1396 225.182 66.829V60.2613C225.182 59.9359 225.137 59.714 225.048 59.5957C224.974 59.4773 224.804 59.4182 224.538 59.4182H223.806V58.686L227.289 58.1313H228.244V59.5957H228.332V66.8734C228.332 67.184 228.362 67.4207 228.421 67.5834C228.495 67.7313 228.613 67.8275 228.776 67.8719C228.954 67.9162 229.212 67.9384 229.553 67.9384V68.6706H223.762ZM242.389 68.9147C240.762 68.9147 239.519 68.4635 238.661 67.5612C237.818 66.6441 237.396 65.2832 237.396 63.4786C237.396 62.2509 237.589 61.2302 237.973 60.4166C238.373 59.6031 238.942 58.9966 239.682 58.5972C240.436 58.1978 241.361 57.9981 242.455 57.9981C243.313 57.9981 244.053 58.1239 244.674 58.3753C245.295 58.612 245.798 58.967 246.183 59.4404C246.582 59.8989 246.871 60.4536 247.048 61.1045C247.241 61.7553 247.337 62.5023 247.337 63.3455V63.5452H239.282V62.7464H244.031C244.031 61.8441 243.986 61.1045 243.898 60.5276C243.824 59.9507 243.668 59.5217 243.432 59.2407C243.21 58.9448 242.877 58.7969 242.433 58.7969C242.063 58.7969 241.745 58.9152 241.479 59.1519C241.228 59.3886 241.035 59.8028 240.902 60.3945C240.769 60.9861 240.702 61.8071 240.702 62.8573C240.702 63.6709 240.747 64.3735 240.836 64.9652C240.924 65.5421 241.065 66.0228 241.257 66.4074C241.464 66.792 241.738 67.0805 242.078 67.2728C242.433 67.4503 242.862 67.539 243.365 67.539C243.883 67.539 244.327 67.4577 244.696 67.295C245.081 67.1175 245.406 66.8734 245.673 66.5628C245.954 66.2521 246.183 65.8897 246.36 65.4755L247.115 65.8749C246.923 66.3335 246.656 66.7994 246.316 67.2728C245.976 67.7461 245.495 68.1381 244.874 68.4488C244.267 68.7594 243.439 68.9147 242.389 68.9147ZM248.68 68.6706V67.9384C249.109 67.9384 249.419 67.9088 249.612 67.8497C249.819 67.7905 249.952 67.687 250.011 67.539C250.07 67.3763 250.1 67.1396 250.1 66.829V60.2613C250.1 59.9359 250.055 59.714 249.967 59.5957C249.893 59.4773 249.723 59.4182 249.456 59.4182H248.724V58.686L252.208 58.1313H253.162V60.1726H253.251V66.829C253.251 67.1396 253.288 67.3763 253.362 67.539C253.45 67.687 253.613 67.7905 253.85 67.8497C254.101 67.9088 254.471 67.9384 254.959 67.9384V68.6706H248.68ZM252.807 62.6798V61.2598C252.866 61.0675 252.962 60.8012 253.095 60.461C253.243 60.106 253.443 59.7436 253.694 59.3738C253.946 59.004 254.256 58.686 254.626 58.4197C255.011 58.1535 255.469 58.0203 256.002 58.0203C256.623 58.0203 257.104 58.2052 257.444 58.575C257.784 58.93 257.954 59.3886 257.954 59.9507C257.954 60.3945 257.829 60.7938 257.577 61.1489C257.341 61.4891 256.941 61.6592 256.379 61.6592C255.935 61.6592 255.573 61.5482 255.292 61.3264C255.026 61.0897 254.893 60.7569 254.893 60.3279C254.893 60.106 254.922 59.9359 254.981 59.8176C255.055 59.6992 255.122 59.6105 255.181 59.5513C255.255 59.4773 255.292 59.4108 255.292 59.3516C255.292 59.3072 255.27 59.2703 255.225 59.2407C255.181 59.1963 255.114 59.1741 255.026 59.1741C254.848 59.1741 254.656 59.2777 254.449 59.4847C254.242 59.6918 254.049 59.9729 253.872 60.3279C253.694 60.6829 253.546 61.0675 253.428 61.4817C253.31 61.8811 253.251 62.2731 253.251 62.6576L252.807 62.6798ZM260.163 68.8703C259.704 68.8703 259.305 68.7076 258.965 68.3822C258.639 68.042 258.477 67.6426 258.477 67.184C258.477 66.7255 258.647 66.3261 258.987 65.9859C259.327 65.6456 259.727 65.4755 260.185 65.4755C260.644 65.4755 261.043 65.6456 261.383 65.9859C261.723 66.3113 261.894 66.7107 261.894 67.184C261.894 67.6426 261.723 68.042 261.383 68.3822C261.043 68.7076 260.636 68.8703 260.163 68.8703Z" fill="#F8E5BD"/>
</svg>
