<svg width="320" height="101" viewBox="0 0 320 101" fill="none" xmlns="http://www.w3.org/2000/svg">
<path d="M309.07 18.0821C308.939 18.1747 308.63 18.2264 308.374 18.2432C302.875 18.6123 297.374 18.9739 291.872 19.3363C291.86 19.3069 291.849 19.2764 291.837 19.247C290.613 19.2895 289.388 19.396 288.161 19.3529C287.178 19.3179 286.167 19.7249 285.196 19.2322C286.081 19.1457 286.999 19.1048 287.843 18.966C290.885 18.4689 294.12 18.3608 297.29 18.1287C300.638 17.8822 304.02 17.71 307.398 17.5377C307.879 17.513 308.438 17.6472 308.932 17.7513C309.051 17.7766 309.162 18.0173 309.07 18.0821ZM282.101 19.5567C278.185 19.721 274.327 20.0645 270.345 20.0117C269.937 20.0059 269.522 20.0361 269.122 19.9987C268.886 19.9771 268.673 19.8562 268.449 19.7796C268.642 19.6559 268.781 19.4685 269.039 19.4239C269.395 19.3619 269.842 19.4081 270.249 19.4074C273.702 19.6352 276.911 19.1349 280.225 18.9528C280.75 18.9239 281.317 18.9025 281.827 18.9712C282.152 19.0155 282.412 19.2317 282.7 19.3713C282.501 19.4349 282.316 19.5474 282.101 19.5567ZM269.533 49.505C270.207 49.4816 271.029 50.0288 271.971 50.3822C270.221 50.57 268.848 50.7545 267.312 50.326C266.499 50.0998 265.458 50.1356 264.525 50.0412C263.067 49.8955 261.614 49.7394 259.692 49.5391C263.188 48.4518 266.429 49.6166 269.533 49.505ZM286.227 42.6885C287.627 42.5342 289.252 43.0218 290.528 42.437C290.552 42.4254 291.002 42.632 290.991 42.64C289.893 43.5256 290.457 44.8833 288.38 45.485C288.289 45.5103 288.144 45.4869 287.92 45.4862C287.71 45.3409 287.269 45.1636 287.265 44.9999C287.256 44.7399 287.498 44.4765 287.708 44.235C288.223 43.634 288.237 43.6401 286.935 43.4767C286.67 43.4429 286.368 43.419 286.164 43.3338C285.978 43.256 285.799 43.0942 285.81 42.9804C285.817 42.8718 286.038 42.7099 286.227 42.6885ZM98.2566 75.6509C97.9124 75.7263 97.4624 75.6971 97.0582 75.7128C93.6013 75.6162 90.4969 76.2405 87.2405 76.5494C86.7228 76.5979 86.1651 76.6411 85.6499 76.5915C85.3186 76.5607 85.0291 76.3526 84.7221 76.2248C84.9099 76.1521 85.0748 76.0334 85.2882 76.0154C89.1426 75.7016 92.916 75.2096 96.8704 75.1114C97.2776 75.1011 97.6833 75.0555 98.0865 75.077C98.3229 75.0901 98.5526 75.2022 98.7851 75.2707C98.6139 75.4019 98.5048 75.5962 98.2566 75.6509ZM79.6867 76.8269C76.7475 77.4415 73.5564 77.6725 70.4521 78.0276C67.1697 78.4014 63.8438 78.7025 60.5212 79.0048C60.0476 79.048 59.4727 78.9344 58.9684 78.8489C58.8469 78.8278 58.7001 78.5917 58.7808 78.5232C58.8976 78.4255 59.195 78.3615 59.4451 78.3347C64.8401 77.7552 70.2388 77.1823 75.6359 76.6082C75.6529 76.6379 75.6682 76.6676 75.6843 76.6972C76.8916 76.6079 78.0886 76.454 79.3108 76.451C80.2916 76.4485 81.2304 76.0025 82.2697 76.4592C81.4062 76.5788 80.5014 76.6557 79.6867 76.8269ZM50.6868 38.8085C47.2203 38.9507 43.7451 39.0647 40.2688 39.168C39.7452 39.183 39.2029 39.1202 38.5827 39.0887C39.0568 38.6096 39.9433 38.5264 40.3311 38.0269C41.2058 36.9025 41.4455 36.982 44.0579 37.291C46.1992 37.5441 48.3799 37.6645 50.5329 37.8861C50.7996 37.9136 51.1473 38.1973 51.1922 38.3726C51.2285 38.5166 50.9076 38.7994 50.6868 38.8085ZM318.363 18.2808C316.699 17.8853 314.998 17.5296 313.287 17.2012C312.624 17.0735 312.248 16.9027 312.056 16.5681C310.997 16.6148 309.933 16.6525 308.865 16.6624C307.789 16.6718 306.827 16.7607 305.801 16.8293C300.279 17.1962 294.737 17.5225 289.191 17.839C288.568 17.8746 287.634 17.8795 287.275 17.6935C285.611 16.8322 284.168 16.9384 282.632 17.5793C282.482 17.6422 281.936 17.4745 281.573 17.4133C281.67 17.2398 281.681 16.938 281.88 16.9108C283.159 16.7375 284.479 16.624 285.785 16.4916C284.2 16.3224 282.124 16.3024 281.033 16.4456C280.227 16.5511 279.894 16.9199 280.241 17.4225C280.417 17.6783 280.736 17.9146 281.138 18.2994C279.328 18.3623 277.721 18.4452 276.102 18.458C275.467 18.4632 274.646 18.4043 274.185 18.2099C273.195 17.7942 273.41 18.2913 273.002 18.4126C271.894 18.7431 270.559 18.8943 269.299 18.2907C268.893 18.097 268.384 17.9557 267.899 17.8114C267.871 17.8036 267.514 17.9841 267.517 18.0837C267.525 18.3597 268.284 18.737 266.973 18.7612C264.094 18.8125 261.21 18.87 258.37 19.0334C257.278 19.0955 256.319 18.6728 255.223 18.8981C254.405 19.067 253.446 19.1027 252.533 19.1524C249.696 19.3042 246.85 19.4288 244.013 19.5785C243.351 19.6132 242.711 19.7046 242.087 19.9731C243.776 20.0889 245.468 20.2037 247.16 20.3185C247.182 20.3068 247.206 20.2931 247.228 20.2824C247.286 20.2896 247.346 20.2991 247.403 20.3074C249.292 19.8093 251.489 20.0545 253.53 19.935C256.034 19.7876 258.684 20.1798 261.116 19.6132C261.83 19.4465 262.972 19.6807 263.917 19.7438C264.031 19.7517 264.243 19.8554 264.229 19.8707C264.144 19.9722 264.031 20.1374 263.884 20.1427C259.273 20.3133 254.664 20.4916 250.039 20.6059C249.192 20.627 248.288 20.4272 247.403 20.3074C247.373 20.3155 247.338 20.3201 247.308 20.3293C247.258 20.3257 247.209 20.3221 247.16 20.3185C246.833 20.4825 246.534 20.7259 246.157 20.7452C243.314 20.8913 240.46 21.0347 237.589 21.0833C232.053 21.1759 226.647 21.6587 221.134 21.8027C216.972 21.9106 212.867 22.2074 208.671 22.2142C207.35 22.2176 207.017 21.8182 206.533 21.394C209.105 21.5429 211.567 21.4041 213.889 20.9355C214.048 20.904 214.11 20.7694 214.195 20.6615C208.256 20.8897 202.313 21.1079 196.38 21.3577C195.646 21.3888 194.209 21.3179 194.419 21.7453C194.719 22.361 195.689 21.8184 196.371 21.7836C197.443 21.7291 198.498 21.5787 199.564 21.9565C199.851 22.0587 200.518 22.1386 200.631 22.0695C202.026 21.2226 204.225 21.6859 205.954 21.4094C205.814 22.0765 205.329 22.5647 203.79 22.6158C199.432 22.7608 195.091 22.9558 190.725 23.0619C189.577 23.0901 188.666 23.1015 187.907 23.5993C187.502 23.8672 186.462 24.0846 185.797 24.0134C183.252 23.7409 180.926 23.8834 178.509 24.188C176.857 24.3946 174.964 24.2119 173.189 24.2531C172.244 24.2756 171.334 24.4419 170.388 24.4729C169.872 24.4895 169.301 24.3835 168.786 24.2857C168.594 24.2493 168.372 24.0746 168.369 23.9686C168.364 23.8594 168.569 23.6796 168.75 23.6632C170.741 23.4834 172.736 23.3101 174.748 23.1741C176.354 23.0656 177.995 23.0368 179.598 22.9195C180.049 22.8869 180.417 22.6727 180.626 22.2901C177.716 22.4756 174.81 22.6687 171.901 22.8467C169.462 22.9963 167.025 23.1514 164.573 23.2586C163.517 23.3043 162.404 23.3033 161.349 23.2005C160.124 23.0795 159.746 23.8424 158.517 23.672C157.962 23.5946 157.165 23.5189 157.336 23.2423C157.899 22.3392 156.778 22.2812 155.601 22.3325C153.296 22.4344 151.015 22.6059 148.723 22.7426C143.722 23.0408 138.718 23.3357 133.714 23.6306C133.588 23.637 133.428 23.6332 133.323 23.6011C133.089 23.5294 132.801 23.4549 132.685 23.3465C132.582 23.2482 132.579 23.0312 132.703 22.9905C133.471 22.7368 134.225 22.4343 135.099 22.3035C137.543 21.9351 140.045 21.6445 142.518 21.315C142.75 21.2841 142.942 21.1945 143.152 21.1325C142.855 21.0459 142.571 20.9267 142.256 20.8808C142.008 20.8457 141.704 20.8783 141.452 20.9179C137.677 21.5028 133.653 21.3784 129.717 21.4947C125.885 21.6076 122.038 21.6675 118.2 21.762C107.282 22.0309 96.3644 22.3041 85.4475 22.5784C85.0366 22.5885 84.6381 22.6441 84.2275 22.65C79.8009 22.7178 80.5506 22.8178 80.9369 20.8224C81.0335 20.3273 81.7074 20.166 82.532 20.0604C83.9574 19.8786 85.3783 19.689 86.8037 19.5072C87.0531 19.4761 87.3488 19.4153 87.5709 19.4565C91.8561 20.2245 95.5732 19.0041 99.6513 19.05C99.9544 19.0537 100.451 18.8662 100.49 18.7283C100.69 18.0429 101.75 17.9472 102.815 17.8186C103.035 17.7914 103.197 17.6713 103.385 17.5944C103.046 17.4863 102.683 17.2777 102.372 17.2843C95.5442 17.4438 88.6446 17.3335 81.9177 17.8763C81.1709 17.9367 80.2806 17.8775 79.5473 17.7345C78.4955 17.5293 79.3581 17.3883 79.676 17.2538C80.1096 17.0707 79.9107 17.0008 79.4628 16.8861C79.008 16.7711 78.6254 16.5765 78.2099 16.4165C78.6058 16.2518 78.9548 16.0472 79.4039 15.929C81.9715 15.2486 84.9331 15.6288 87.7109 15.5114C88.2332 15.4888 88.8506 15.6933 89.3357 15.641C94.3255 15.0954 99.6771 15.2509 104.54 14.4531C104.139 14.4519 103.73 14.4269 103.297 14.375C101.804 14.1998 100.307 14.0137 98.8037 13.8977C98.3742 13.8652 97.6769 13.9932 97.5075 14.1684C96.8948 14.7975 96.0124 14.8435 94.7773 14.6739C92.926 14.4206 91.1507 14.262 89.3556 14.8375C87.9528 15.2865 86.1986 15.0884 84.5748 14.6618C83.3913 14.3506 82.4836 14.3846 81.3516 14.9104C80.0664 15.5075 78.2064 15.4782 76.2836 15.076C73.3938 14.4708 73.1261 14.5779 70.8819 15.5237C70.5908 15.6468 70.1785 15.7572 69.8107 15.7524C68.9883 15.7405 68.1599 15.6515 67.3333 15.5966C66.2889 15.5265 66.3174 15.5279 66.4529 16.3831C66.4795 16.5543 66.2589 16.8615 66.0597 16.877C64.8539 16.9718 63.6181 16.9912 62.3982 17.051C61.4664 17.0956 60.5027 17.1053 59.6286 17.2393C59.1754 17.3092 58.6652 17.59 58.5886 17.8265C58.5307 18.0041 59.1021 18.2714 59.43 18.4846C59.6855 18.6504 60.0978 18.7729 60.2517 18.9527C60.3991 19.1269 60.3763 19.364 60.2772 19.5448C60.2371 19.6219 59.7841 19.6876 59.5637 19.6539C57.2923 19.3034 55.0397 18.909 52.7623 18.5742C51.6936 18.4174 50.5782 18.3041 49.4935 18.2853C48.5856 18.2701 47.6887 18.4222 46.7871 18.5003C46.702 19.2642 48.0861 19.201 48.8053 19.4042C50.4118 19.8587 52.1633 20.1571 53.8498 20.527C55.0327 20.7869 55.1462 21.0801 53.9564 21.5379C53.0786 21.8757 53.5055 22.0599 53.9687 22.3879C54.87 23.0267 54.8331 23.0419 53.3101 23.3406C53.0682 23.3881 52.8248 23.4324 52.425 23.5093C53.7593 23.8282 54.9987 24.1006 56.1907 24.4261C56.4848 24.5073 56.8387 24.9067 56.7973 24.9238C55.5211 25.4648 56.228 25.661 57.3858 25.8972C57.8941 26.001 57.6081 26.6671 56.9831 26.7261C55.5308 26.8617 54.0592 26.9568 52.5866 27.0444C51.6441 27.1001 50.6702 27.0774 49.7471 27.1683C49.498 27.1919 49.2269 27.4966 49.2483 27.6729C49.2685 27.8395 49.6128 28.0408 49.9084 28.1605C50.0715 28.2265 50.4266 28.1655 50.6906 28.149C52.3596 28.0393 52.7046 29.1381 54.107 29.2767C54.1404 29.2805 54.2052 29.4099 54.1597 29.446C53.3234 30.1236 52.0073 29.8442 50.8095 29.7801C50.2604 29.7511 49.7156 29.655 49.1659 29.6239C48.9422 29.6104 48.5674 29.6565 48.5176 29.7309C48.4528 29.8291 48.6009 29.9937 48.726 30.1101C49.8086 31.1182 49.8128 31.1162 47.5392 31.2197C47.278 31.2321 46.9658 31.2227 46.7791 31.2954C46.5853 31.37 46.4421 31.524 46.411 31.6571C46.3854 31.7647 46.5054 31.9632 46.6548 32.0007C48.7556 32.5209 50.557 33.4929 53.0692 33.4058C53.1921 33.4013 53.3744 33.4384 53.4525 33.4894C53.6185 33.5961 53.8395 33.7281 53.842 33.8425C53.8427 33.9473 53.6201 34.1122 53.4357 34.1328C52.3884 34.2494 51.3146 34.3134 50.2674 34.428C49.6268 34.4969 48.9925 34.7564 48.3951 34.7036C45.6245 34.4634 43.1515 35.2331 40.3909 35.0116C39.7497 34.9608 38.9236 35.0278 38.4391 35.2169C36.5089 35.9714 34.3731 35.6791 32.2232 35.447C31.8194 35.404 31.3633 35.2857 31.0169 35.3365C27.8121 35.803 24.5097 35.18 21.2558 35.2027C19.3618 35.2154 18.3914 35.8338 16.9768 36.1391C16.8636 36.1643 16.8999 36.6053 17.1088 36.6993C17.6223 36.9284 18.2617 37.1799 18.8757 37.2239C21.7461 37.4296 24.6241 37.5898 27.5008 37.7114C27.9469 37.7308 28.4159 37.4822 28.8403 37.3318C29.2742 37.1797 29.6592 36.9289 30.2432 37.215C30.9156 37.5441 31.3375 37.9566 30.9064 38.3866C30.6984 38.593 29.8306 38.848 29.7562 38.809C28.2767 38.0532 26.4936 38.6442 24.9494 38.3018C22.4817 37.7565 20.207 38.5459 17.7829 38.334C17.7 38.3266 17.5159 38.4262 17.521 38.4778C17.5337 38.6045 17.5618 38.7641 17.7094 38.8517C17.8809 38.9534 18.1798 39.0081 18.4379 39.0554C18.9682 39.1539 19.5531 39.19 20.0324 39.3351C20.4138 39.4507 21.2944 39.489 20.8956 39.8951C20.6652 40.127 20.0355 40.4807 19.8017 40.4325C18.2588 40.1158 16.8422 40.5513 15.3869 40.4175C11.7814 40.0847 8.33244 40.3774 4.8536 40.6269C3.43232 40.7278 2.78844 41.1961 2.37701 41.8152C2.07951 42.2627 2.49796 42.7926 3.31099 42.9161C5.7348 43.2829 8.1652 43.6511 10.6179 43.9275C13.2101 44.2205 15.8338 44.4052 18.4405 44.6445C20.2064 44.8069 21.9075 45.1049 23.7566 45.0877C25.5105 45.0711 27.3164 45.4246 28.815 46.0681C29.0015 46.1492 29.2059 46.3134 29.1797 46.4158C29.1491 46.5392 28.9234 46.6784 28.7044 46.7367C28.3544 46.83 27.9391 46.8634 27.5521 46.9217C23.3901 47.5489 19.2431 48.1993 15.058 48.7891C13.8694 48.9562 13.1156 49.2203 13.0521 49.9073C13.0328 50.121 12.9473 50.3346 12.8335 50.5372C12.6754 50.8208 11.9491 50.8748 11.5118 50.6303C11.0346 50.3635 10.6935 49.9797 10.1318 49.8187C9.48826 49.6321 7.2917 50.1872 7.42365 50.4867C7.74709 51.2179 6.1024 51.9089 7.33304 52.5153C8.03013 52.8584 9.39889 52.9782 10.4121 52.9527C15.0684 52.8357 19.7412 52.7537 24.2677 52.2102C26.912 51.8927 29.5893 51.6366 32.2601 51.3717C32.914 51.3077 33.8236 51.2535 33.9358 51.7218C33.9893 51.9436 33.2486 52.2468 32.7418 52.4144C32.3144 52.5561 31.6964 52.6412 31.1806 52.6054C27.5657 52.3575 24.7312 53.5095 21.3967 53.7674C20.0728 53.87 20.0507 54.2386 21.1326 54.7615C22.8537 55.5937 22.8179 55.6506 21.0748 56.3121C20.0646 56.6956 19.0661 56.9729 17.7096 56.8761C16.0824 56.7603 14.7653 57.077 13.7534 57.7072C13.2377 58.0282 13.6196 58.6684 14.3794 58.801C16.0848 59.0971 17.9003 58.7791 19.5723 59.253C22.6664 58.9786 25.4824 59.532 28.2984 60.2841C29.5248 60.6114 30.9402 60.7271 32.2807 60.9074C34.4501 61.1993 36.6287 61.4628 38.8023 61.741C39.6574 61.8496 39.8852 62.1817 39.8574 62.5746C39.7966 63.4423 39.3542 63.8439 37.8994 63.9442C36.631 64.0314 35.4668 64.1154 34.7254 64.6996C34.2789 65.0519 33.6366 65.0364 32.9115 64.9514C32.6649 64.9229 32.3757 64.9734 32.129 65.0185C31.4503 65.1432 30.7541 65.7938 31.1227 66.0486C31.4132 66.2504 31.9778 66.435 32.4394 66.467C34.4829 66.6083 36.5328 66.6911 39.061 66.8196C35.1295 67.4297 31.5688 67.7573 28.0503 68.1437C25.1564 68.4614 22.1192 68.5057 19.1401 68.6503C18.6354 68.6749 17.8954 68.6672 17.9113 68.2695C17.9401 67.5551 17.2623 67.4469 16.0969 67.377C14.5593 67.285 12.9139 67.7441 11.4555 67.0183C11.4056 66.9933 10.9572 67.1147 10.858 67.2165C10.7534 67.3234 10.7468 67.5218 10.8727 67.6222C11.0988 67.8057 11.4753 67.937 11.7551 68.1051C12.6269 68.6302 12.6206 68.6342 11.2177 68.8695C11.0905 68.8919 10.9094 68.8688 10.8215 68.9092C10.566 69.0266 10.3157 69.1549 10.1391 69.3051C10.1128 69.3273 10.4801 69.5607 10.689 69.5809C12.9762 69.7922 15.1788 70.4715 17.5803 70.1213C18.1849 70.0335 18.9721 70.1354 19.6306 70.2437C22.5572 70.7215 25.4704 71.2285 28.379 71.746C28.5356 71.7732 28.6242 71.9818 28.685 72.111C28.7016 72.1471 28.4953 72.252 28.4075 72.2443C27.4715 72.1572 26.3649 71.8542 25.6512 72.0059C24.7946 72.1889 24.011 72.3638 23.053 72.391C21.2729 72.4405 19.5038 72.5386 17.7322 72.6196C15.8235 72.7063 13.8889 72.733 12.7633 73.7304C12.539 73.9284 11.8553 74.0026 11.3445 74.0674C10.2085 74.2095 9.12088 74.6425 9.40199 75.144C9.64407 75.5751 10.9831 76.0172 11.9673 76.1804C13.4144 76.4196 14.9433 76.431 16.4383 76.1704C17.6898 75.953 19.0639 75.8872 20.4021 75.8024C21.4779 75.7353 22.5859 75.7617 23.6686 75.7098C26.3787 75.5826 29.0841 75.4337 32.2727 75.2689C31.2734 75.6016 30.7216 75.9091 30.0471 75.9849C28.4909 76.1579 26.8843 76.2526 25.2801 76.3164C23.6234 76.3828 22.627 77.3023 20.7463 77.0828C20.0905 77.0056 19.2611 76.9849 18.7223 77.1338C15.7483 77.9528 11.9697 77.6069 9.18476 78.7411C8.30003 79.101 6.69048 78.9861 5.82223 79.3523C4.64997 79.8451 5.8418 80.7198 5.5437 81.4248C5.23916 82.1422 5.96219 82.5508 7.22913 82.5276C8.17796 82.5106 9.15301 82.4437 10.0267 82.283C10.9821 82.1082 11.9167 82.0585 12.8331 82.2984C14.1197 82.6341 15.2157 82.4633 16.4052 82.262C17.4029 82.0926 18.4978 82.0521 19.5631 81.9908C19.7377 81.9805 20.0881 82.1458 20.1548 82.2571C20.215 82.3595 20.0635 82.5794 19.9025 82.6075C17.7113 82.9898 15.6761 83.5114 13.915 84.2787C13.6511 84.3935 13.5755 84.6248 13.4118 84.8024C13.7663 84.8888 14.1556 85.0688 14.471 85.0485C17.8306 84.825 21.1733 84.5557 24.5325 84.329C29.1134 84.019 33.7085 83.7472 38.2897 83.4362C41.4843 83.2203 44.6731 82.9849 47.8635 82.7549C49.3197 82.5629 50.7765 82.373 52.2279 82.1743C53.351 82.022 54.7816 82.1695 55.4358 81.4997C55.4687 81.4661 56.1045 81.6394 56.4403 81.6319C56.7648 81.626 57.0642 81.5098 57.3742 81.4422C57.1293 81.2193 56.8702 80.8097 56.6411 80.8056C55.7008 80.7855 54.4692 80.7272 53.9006 80.9847C52.9069 81.4353 51.0905 80.6271 50.5917 81.5142C50.3429 81.4471 50.0819 81.3889 49.849 81.3087C49.6242 81.2332 49.3528 81.15 49.2517 81.0401C49.199 80.984 49.4364 80.7963 49.6035 80.7802C52.7901 80.4731 55.957 80.0924 59.2005 79.9388C60.2672 79.8883 61.2071 79.763 62.212 79.6548C67.6313 79.0755 73.0746 78.538 78.5223 78.0082C79.1347 77.9485 80.0586 77.9089 80.444 78.0813C82.2263 78.8824 83.6415 78.7203 85.0638 78.019C85.2026 77.9502 85.77 78.0976 86.1384 78.1441C86.0695 78.3233 86.1047 78.6254 85.9112 78.6604C84.6694 78.8826 83.3785 79.0467 82.1043 79.2298C83.7026 79.3388 85.762 79.2811 86.8246 79.0957C87.6063 78.9592 87.8796 78.5767 87.4592 78.0852C87.2458 77.835 86.8925 77.6109 86.4356 77.2394C88.2197 77.1078 89.7988 76.9636 91.4027 76.8881C92.0314 76.8591 92.8528 76.8859 93.342 77.0636C94.386 77.4436 94.0957 76.9534 94.481 76.8159C95.5295 76.4418 96.8298 76.2397 98.1714 76.7972C98.6028 76.9751 99.1293 77.0981 99.6324 77.2241C99.6604 77.2308 99.9872 77.0359 99.9697 76.9367C99.9182 76.6595 99.108 76.3106 100.405 76.2366C103.25 76.0756 106.101 75.9074 108.892 75.6357C109.964 75.5311 110.981 75.9182 112.031 75.6511C112.816 75.4495 113.761 75.3778 114.658 75.2941C117.447 75.0331 120.25 74.7994 123.04 74.5406C123.689 74.4806 124.309 74.3658 124.888 74.0714C123.194 74.0206 121.501 73.9698 119.806 73.9189C119.785 73.9318 119.764 73.9468 119.743 73.9574C119.684 73.9523 119.625 73.945 119.567 73.9399C117.772 74.51 115.554 74.3482 113.549 74.5465C111.091 74.7892 108.406 74.4967 106.079 75.1584C105.397 75.3524 104.229 75.1606 103.283 75.1338C103.169 75.1312 102.942 75.0342 102.954 75.0178C103.024 74.9134 103.112 74.7437 103.255 74.7328C107.799 74.3857 112.34 74.0321 116.907 73.7407C117.745 73.6871 118.672 73.8527 119.567 73.9399C119.596 73.9296 119.627 73.9237 119.657 73.9146C119.706 73.916 119.757 73.9175 119.806 73.9189C120.105 73.7418 120.363 73.4868 120.734 73.4522C123.532 73.1969 126.337 72.9442 129.176 72.7861C134.65 72.483 139.934 71.7921 145.375 71.4383C149.485 71.1706 153.508 70.7169 157.667 70.549C158.976 70.4958 159.367 70.8843 159.912 71.2902C157.339 71.2396 154.92 71.4724 152.688 72.03C152.538 72.0683 152.499 72.2052 152.428 72.3181C158.282 71.8623 164.14 71.4164 169.982 70.9397C170.706 70.8814 172.14 70.8966 171.867 70.4757C171.473 69.8702 170.596 70.4517 169.926 70.5117C168.871 70.6077 167.848 70.7982 166.734 70.4606C166.433 70.3694 165.76 70.3139 165.659 70.3878C164.407 71.2911 162.156 70.9096 160.484 71.252C160.52 70.5797 160.925 70.0703 162.443 69.9605C166.741 69.6489 171.015 69.2881 175.325 69.0146C176.461 68.943 177.36 68.8969 178.037 68.3682C178.398 68.0842 179.394 67.8271 180.065 67.8729C182.627 68.048 184.913 67.817 187.261 67.4202C188.867 67.1493 190.772 67.261 192.525 67.1514C193.459 67.092 194.335 66.8908 195.267 66.8239C195.777 66.7878 196.358 66.8729 196.885 66.9509C197.082 66.9802 197.327 67.1465 197.348 67.2533C197.368 67.3622 197.193 67.551 197.015 67.574C195.07 67.831 193.119 68.0801 191.148 68.293C189.571 68.4629 187.948 68.5556 186.377 68.7333C185.936 68.7824 185.603 69.0123 185.454 69.4044C188.309 69.1061 191.161 68.8022 194.018 68.5126C196.412 68.2699 198.804 68.0218 201.217 67.8207C202.259 67.7337 203.36 67.6924 204.424 67.7561C205.656 67.8304 205.915 67.0498 207.156 67.1748C207.719 67.2301 208.522 67.2763 208.393 67.5604C207.976 68.4879 209.094 68.5031 210.254 68.406C212.523 68.2168 214.757 67.9575 217.008 67.7332C221.921 67.2435 226.834 66.756 231.749 66.2707C231.873 66.2588 232.032 66.2562 232.142 66.2853C232.384 66.3478 232.682 66.4121 232.813 66.5171C232.93 66.6107 232.967 66.8272 232.85 66.8747C232.128 67.1575 231.425 67.4893 230.58 67.6547C228.213 68.1167 225.779 68.5037 223.378 68.9287C223.152 68.9686 222.975 69.0653 222.776 69.1353C223.084 69.2108 223.384 69.3201 223.703 69.3534C223.955 69.3801 224.252 69.3354 224.496 69.2869C228.148 68.5557 232.155 68.5265 236.037 68.2601C239.82 68.0004 243.624 67.793 247.414 67.5529C250.082 67.3829 252.75 67.2108 255.418 67.0408C255.036 65.8365 255.211 65.8198 257.748 65.8664C258.158 65.8734 258.577 65.9331 258.986 65.9315C259.982 65.9276 260.752 65.5095 260.677 64.965C260.637 64.6809 260.337 64.4007 260.253 64.1133C260.167 63.8226 260.183 63.4965 260.968 63.5128C262.633 63.5483 264.166 62.6454 265.945 63.4976C267.874 63.0006 270.012 63.3101 272.051 63.3293C276.292 63.3696 280.539 63.4967 284.785 63.6099C286.575 63.6571 288.358 63.7424 290.076 63.476C290.455 63.4173 291.014 63.3057 291.246 63.3976C293.33 64.2269 294.551 63.3989 295.912 62.8997C296.169 62.8048 296.32 62.5005 296.228 62.326C296.159 62.1974 295.611 62.0489 295.282 62.0407C294.747 62.0274 294.019 62.2671 293.715 62.147C292.005 61.466 290.301 61.7481 288.561 61.8252C287.897 61.8545 287.192 61.7514 286.509 61.6942C284.868 61.5574 283.228 61.3544 281.583 61.2804C277.32 61.0873 273.053 60.9741 268.79 60.7809C266.836 60.6923 264.914 60.4226 262.18 59.9418C263.882 59.8969 264.703 59.9023 265.498 59.8412C265.848 59.8141 266.442 59.6402 266.419 59.5535C266.231 58.8848 266.958 58.895 267.87 58.9339C268.819 58.9746 269.808 59.0345 270.714 58.947C275.598 58.4719 280.588 59.2276 285.494 59.0923C288.378 59.7998 291.006 58.8382 293.835 59.0322C294.87 59.103 295.559 58.6807 295.727 58.1166C295.789 57.906 295.73 57.6829 295.788 57.4722C295.962 56.8485 296.725 56.1768 295.715 55.6094C295.104 55.2674 294.01 55.1595 293.125 54.9553C292.107 54.7198 291.1 54.378 290.05 54.2862C286.488 53.9737 282.909 53.7363 279.335 53.498C277.437 53.3717 276.339 52.8682 276.818 51.9555C277.173 51.2833 277.252 50.9166 276.024 50.5209C275.698 50.4156 275.657 50.1155 276.278 50.1C276.959 50.0812 277.659 50.0591 278.334 50.119C279.426 50.2162 279.832 50.7037 279.323 51.2334C279.205 51.3567 278.966 51.4418 278.839 51.5614C278.489 51.8994 278.888 52.2028 279.429 52.2346C280.65 52.3052 281.888 52.289 283.101 52.2439C283.724 52.221 283.992 51.9547 283.664 51.6207C283.372 51.3238 282.343 51.077 283.043 50.7269C283.449 50.5242 284.315 50.4614 284.936 50.5208C285.711 50.5943 286.444 50.8592 287.199 51.0396C287.698 51.1601 288.268 51.4134 288.692 51.3719C290.137 51.2263 291.749 51.1362 292.888 50.7262C294.221 50.2458 295.337 49.9499 297.008 50.3126C297.295 50.3753 297.982 50.1089 298.221 49.9042C298.551 49.6207 298.147 49.3588 297.578 49.2187C296.813 49.0292 296 48.8906 295.269 48.6708C294.532 48.4495 294.365 48.1803 294.984 47.8015C295.211 47.6635 295.015 47.2796 294.869 47.0253C294.711 46.7481 294.043 46.3755 294.192 46.2441C295.028 45.5034 294.501 44.6924 294.556 43.9131C294.591 43.4202 294.412 42.7647 294.921 42.4861C295.662 42.0804 295.216 40.9925 297.205 41.2667C297.264 41.0837 297.493 40.8154 297.346 40.7342C296.976 40.5274 296.358 40.2396 295.98 40.2759C294.22 40.4493 292.843 39.8815 291.101 39.5856C292.01 39.3529 292.7 39.1498 293.431 38.9957C294.727 38.7228 295.596 38.2072 296.389 37.6416C297.012 37.1968 296.924 37.0246 295.817 36.6264C295.466 36.5007 295.019 36.4469 294.701 36.3058C293.79 35.9037 293.844 35.0891 294.856 34.8328C295.688 34.6219 296.65 34.5447 297.515 34.3632C297.985 34.2664 298.373 34.0767 299.455 33.7C297.047 33.7165 295.632 32.6713 293.735 33.3495C293.424 33.4608 292.658 33.3332 292.191 33.2101C290.188 32.6831 288.205 32.1293 286.242 31.5551C285.682 31.391 285.227 31.3241 284.77 31.5519C284.245 31.8148 283.66 31.8834 282.905 31.7564C282.114 31.6232 281.241 31.4314 280.486 31.4838C277.199 31.7132 273.905 31.4154 270.615 31.2568C269.656 31.2112 268.704 31.1906 268.103 30.6056C267.949 30.4557 266.972 30.328 266.703 30.4286C265.304 30.9441 264.569 30.5499 263.668 29.9315C262.951 29.4377 262.011 29.3451 261.557 30.0752C261.524 30.1313 261.408 30.213 261.335 30.2092C260.949 30.1907 260.563 30.1476 260.178 30.113C260.263 29.925 260.255 29.6971 260.458 29.561C260.685 29.4102 261.086 29.2671 261.446 29.2523C263.613 29.1647 265.791 29.1129 267.966 29.0558C273.99 28.8971 280.014 28.7396 286.04 28.5896C286.582 28.5755 287.143 28.6008 287.692 28.6404C291.175 28.8933 294.563 28.651 297.926 28.3977C301.403 28.1364 304.752 27.6014 308.395 27.6882C309.996 27.7268 311.705 27.4932 313.124 27.1389C314.107 26.894 314.68 26.2351 315.419 25.7534C315.555 25.6652 315.71 25.4541 315.668 25.437C315.351 25.3119 314.927 25.1066 314.652 25.1385C312.962 25.3326 311.469 25.4191 310.349 24.3707C309.955 24.0023 309.114 24.1562 308.64 24.4761C308.48 24.5833 308.338 24.7065 308.256 24.837C307.956 25.3207 307.523 25.0796 307.117 24.8571C306.713 24.6367 305.883 24.398 305.914 24.7265C305.98 25.4607 305.222 25.6444 304.236 25.6626C301.104 25.7215 297.961 25.7199 294.819 25.7333C294.716 25.7334 294.497 25.6335 294.509 25.6074C294.562 25.4905 294.618 25.3266 294.782 25.2826C295.128 25.1902 295.536 25.1222 295.93 25.1156C296.607 25.105 297.294 25.1688 297.97 25.1572C298.114 25.155 298.248 24.9748 298.334 24.8616C298.357 24.8275 298.214 24.7166 298.114 24.6955C297.773 24.6258 293.283 24.8004 293.033 24.8978C292.828 24.9782 292.53 25.0881 292.529 25.197C292.523 25.5172 292.411 25.8235 291.716 25.7497C290.147 25.5824 288.743 25.9095 287.263 25.9305C280.408 26.0298 273.539 26.0557 266.671 26.0881C266.09 26.0917 266.128 25.8511 266.409 25.6677C266.747 25.4466 267.119 25.2444 266.457 24.9714C265.378 24.5255 266.245 24.4104 266.828 24.2776C267.061 24.2243 267.368 24.241 267.643 24.2475C273.135 24.3856 278.595 24.3083 284.029 24.0844C285.368 24.0285 286.689 23.8927 288.035 23.8798C290.2 23.8553 292.401 23.981 294.551 23.9022C300.957 23.67 307.3 23.2402 313.605 22.7208C315.074 22.6 316.472 22.3067 317.885 22.0687C318.488 21.9658 318.697 21.7178 318.284 21.4041C318.044 21.222 317.714 21.0663 317.397 20.9167C316.603 20.5397 316.494 20.1838 317.312 19.8343C317.622 19.7016 317.924 19.562 318.224 19.4234C318.426 19.33 318.627 19.2376 318.808 19.1357C319.329 18.8427 319.205 18.4796 318.363 18.2808Z" fill="url(#paint0_linear_4_128)"/>
<path d="M62.9983 36.6706V35.9384H63.442C63.9746 35.9384 64.3 35.857 64.4183 35.6943C64.5514 35.5168 64.618 35.2062 64.618 34.7624V24.0234C64.618 23.6536 64.581 23.3799 64.5071 23.2024C64.4479 23.0249 64.3 22.9066 64.0633 22.8474C63.8414 22.7882 63.479 22.7586 62.9761 22.7586V22.0264H68.1016L72.0067 32.0111H72.051L75.8674 22.0264H80.771V22.7586C80.2976 22.7586 79.9426 22.7882 79.7059 22.8474C79.4841 22.9066 79.3361 23.0249 79.2622 23.2024C79.203 23.3799 79.1734 23.6536 79.1734 24.0234V34.6959C79.1734 35.0361 79.203 35.3023 79.2622 35.4946C79.3361 35.6721 79.4841 35.7905 79.7059 35.8497C79.9426 35.9088 80.2976 35.9384 80.771 35.9384V36.6706H74.3364V35.9384C74.8098 35.9384 75.15 35.9088 75.3571 35.8497C75.5642 35.7757 75.6973 35.65 75.7565 35.4725C75.8156 35.2949 75.8452 35.0361 75.8452 34.6959V24.4228H75.8008L71.3188 36.36H70.1872L65.5943 24.5559H65.5721V34.7624C65.5721 35.2506 65.6387 35.5686 65.7718 35.7165C65.9049 35.8644 66.2377 35.9384 66.7703 35.9384H67.4359V36.6706H62.9983ZM84.1483 41.3523C83.7489 41.3523 83.3791 41.2636 83.0388 41.0861C82.6986 40.9233 82.425 40.6867 82.2179 40.376C82.0256 40.0802 81.9294 39.7474 81.9294 39.3776C81.9294 38.9782 82.0626 38.6232 82.3288 38.3125C82.6099 38.0167 82.9649 37.8688 83.3939 37.8688C83.808 37.8688 84.1335 37.9945 84.3701 38.246C84.6216 38.4974 84.7473 38.8155 84.7473 39.2001C84.7473 39.3924 84.7178 39.5403 84.6586 39.6438C84.5994 39.7622 84.5329 39.8509 84.4589 39.9101C84.3997 39.984 84.3701 40.0728 84.3701 40.1763C84.3701 40.2799 84.4071 40.3612 84.4811 40.4204C84.555 40.4796 84.6512 40.5092 84.7695 40.5092C85.0358 40.5092 85.2946 40.3464 85.5461 40.021C85.7976 39.6956 86.0712 39.1483 86.3671 38.3791L90.4719 27.64C90.5458 27.4329 90.5458 27.2702 90.4719 27.1519C90.3979 27.0336 90.2648 26.9744 90.0725 26.9744H89.3403V26.2422H92.8682V26.9744C92.6315 26.9744 92.4244 27.004 92.2469 27.0631C92.0842 27.1075 91.9363 27.2185 91.8032 27.396C91.6848 27.5587 91.5443 27.8249 91.3816 28.1947L88.0312 36.4044C87.7649 37.0404 87.5135 37.6543 87.2768 38.246C87.0549 38.8524 86.8034 39.385 86.5224 39.8435C86.2561 40.3169 85.9307 40.6867 85.5461 40.9529C85.1763 41.2192 84.7104 41.3523 84.1483 41.3523ZM87.0327 37.6025L83.0167 27.8841C82.9131 27.6031 82.8096 27.4034 82.706 27.285C82.6025 27.1519 82.462 27.0705 82.2845 27.041C82.1069 26.9966 81.8407 26.9744 81.4857 26.9744V26.2422H87.3877V26.9744H86.6999C86.5224 26.9744 86.3893 27.041 86.3005 27.1741C86.2265 27.2924 86.2339 27.4847 86.3227 27.751L88.3196 33.1205H88.8965L87.0327 37.6025ZM105.589 36.6706V35.9384C105.929 35.9384 106.181 35.9162 106.344 35.8718C106.506 35.8275 106.61 35.7313 106.654 35.5834C106.713 35.4355 106.743 35.221 106.743 34.9399V29.6148C106.743 29.0675 106.676 28.6311 106.543 28.3057C106.425 27.9655 106.24 27.7214 105.989 27.5735C105.752 27.4256 105.464 27.3516 105.123 27.3516C104.68 27.3516 104.295 27.4625 103.97 27.6844C103.644 27.9063 103.282 28.2095 102.882 28.5941L102.816 27.8397C103.112 27.5291 103.444 27.2333 103.814 26.9522C104.184 26.6712 104.598 26.4419 105.057 26.2644C105.53 26.0869 106.07 25.9981 106.676 25.9981C107.653 25.9981 108.429 26.2792 109.006 26.8413C109.583 27.3886 109.872 28.2687 109.872 29.4817V34.829C109.872 35.1396 109.901 35.3763 109.96 35.539C110.034 35.6869 110.167 35.7905 110.36 35.8497C110.552 35.9088 110.848 35.9384 111.247 35.9384V36.6706H105.589ZM98.5113 36.6706V35.9384C98.9402 35.9384 99.2509 35.9162 99.4432 35.8718C99.6503 35.8127 99.7834 35.7017 99.8426 35.539C99.9017 35.3763 99.9313 35.1396 99.9313 34.829V28.2613C99.9313 27.9359 99.8869 27.714 99.7982 27.5957C99.7242 27.4773 99.5541 27.4182 99.2878 27.4182H98.5556V26.6859L102.039 26.1312H102.993V27.5957H103.082V34.8734C103.082 35.184 103.112 35.4207 103.171 35.5834C103.245 35.7313 103.363 35.8275 103.526 35.8718C103.703 35.9162 103.962 35.9384 104.302 35.9384V36.6706H98.5113ZM120.378 36.9147C119.905 36.9147 119.513 36.8481 119.202 36.715C118.891 36.5819 118.662 36.397 118.514 36.1603C118.366 35.9236 118.292 35.6574 118.292 35.3615V28.7938C118.292 28.1726 118.174 27.7066 117.937 27.396C117.701 27.0705 117.264 26.9078 116.628 26.9078C116.406 26.9078 116.192 26.93 115.985 26.9744C115.792 27.0188 115.637 27.0853 115.519 27.1741C115.4 27.2628 115.341 27.3664 115.341 27.4847C115.341 27.6179 115.386 27.7362 115.474 27.8397C115.578 27.9433 115.674 28.0616 115.763 28.1947C115.852 28.3131 115.896 28.498 115.896 28.7494C115.896 29.1192 115.763 29.4447 115.497 29.7257C115.23 30.0068 114.853 30.1473 114.365 30.1473C113.877 30.1473 113.5 30.0068 113.233 29.7257C112.967 29.4447 112.834 29.1266 112.834 28.7716C112.834 28.3427 112.997 27.9211 113.322 27.5069C113.662 27.0779 114.195 26.7229 114.92 26.4419C115.645 26.1608 116.591 26.0203 117.76 26.0203C119.032 26.0203 119.956 26.3014 120.533 26.8635C121.125 27.4256 121.421 28.3279 121.421 29.5704V34.4518C121.421 34.9991 121.473 35.3615 121.576 35.539C121.68 35.7017 121.835 35.7831 122.042 35.7831C122.22 35.7831 122.36 35.7609 122.464 35.7165C122.582 35.6574 122.693 35.6056 122.797 35.5612L123.041 36.2047C122.671 36.4413 122.271 36.6188 121.842 36.7372C121.413 36.8555 120.925 36.9147 120.378 36.9147ZM115.23 36.9147C114.254 36.9147 113.5 36.715 112.967 36.3156C112.435 35.9162 112.168 35.3319 112.168 34.5627C112.168 33.8231 112.464 33.1723 113.056 32.6102C113.648 32.0481 114.476 31.5747 115.541 31.1901C116.606 30.7908 117.849 30.4949 119.269 30.3026V31.1458C117.878 31.412 116.865 31.7744 116.229 32.233C115.608 32.6915 115.297 33.298 115.297 34.0524C115.297 34.5997 115.415 34.9917 115.652 35.2284C115.889 35.4651 116.244 35.5834 116.717 35.5834C117.042 35.5834 117.346 35.5094 117.627 35.3615C117.923 35.1988 118.189 35.0213 118.425 34.829C118.662 34.6219 118.854 34.4444 119.002 34.2965L119.246 35.0287C118.965 35.3097 118.64 35.5982 118.27 35.894C117.9 36.1899 117.471 36.4339 116.983 36.6262C116.495 36.8185 115.911 36.9147 115.23 36.9147ZM137.36 36.6706V35.9384C137.7 35.9384 137.951 35.9162 138.114 35.8718C138.277 35.8275 138.38 35.7313 138.425 35.5834C138.484 35.4355 138.513 35.221 138.513 34.9399V29.6148C138.513 29.0823 138.447 28.6533 138.314 28.3279C138.181 27.9877 137.988 27.7436 137.737 27.5957C137.485 27.433 137.189 27.3516 136.849 27.3516C136.524 27.3516 136.235 27.4182 135.984 27.5513C135.732 27.6844 135.511 27.8767 135.318 28.1282C135.126 28.3649 134.963 28.6607 134.83 29.0157L134.386 28.3944C134.741 27.6252 135.244 27.0336 135.895 26.6194C136.561 26.2052 137.367 25.9981 138.314 25.9981C139.349 25.9981 140.163 26.2792 140.754 26.8413C141.361 27.3886 141.664 28.2687 141.664 29.4817V34.829C141.664 35.1396 141.694 35.3763 141.753 35.539C141.812 35.6869 141.938 35.7905 142.13 35.8497C142.322 35.9088 142.618 35.9384 143.018 35.9384V36.6706H137.36ZM123.603 36.6706V35.9384C124.032 35.9384 124.343 35.9162 124.535 35.8718C124.742 35.8127 124.875 35.7017 124.934 35.539C124.993 35.3763 125.023 35.1396 125.023 34.829V28.2613C125.023 27.9359 124.979 27.714 124.89 27.5957C124.816 27.4773 124.646 27.4182 124.38 27.4182H123.647V26.6859L127.131 26.1312H128.085V27.5513H128.174V34.8734C128.174 35.184 128.203 35.4207 128.262 35.5834C128.336 35.7313 128.455 35.8275 128.617 35.8718C128.795 35.9162 129.054 35.9384 129.394 35.9384V36.6706H123.603ZM130.637 36.6706V35.9384C130.977 35.9384 131.221 35.9162 131.369 35.8718C131.531 35.8275 131.642 35.7313 131.702 35.5834C131.761 35.4355 131.79 35.221 131.79 34.9399V29.6148C131.79 29.0675 131.724 28.6311 131.591 28.3057C131.472 27.9655 131.287 27.7214 131.036 27.5735C130.799 27.4256 130.496 27.3516 130.126 27.3516C129.86 27.3516 129.609 27.396 129.372 27.4847C129.135 27.5735 128.898 27.714 128.662 27.9063C128.44 28.0986 128.196 28.3501 127.93 28.6607L127.841 27.8397C128.151 27.5143 128.492 27.2185 128.862 26.9522C129.231 26.6712 129.653 26.4419 130.126 26.2644C130.6 26.0869 131.125 25.9981 131.702 25.9981C132.426 25.9981 133.025 26.1312 133.499 26.3975C133.972 26.649 134.327 26.9818 134.564 27.396C134.801 27.8101 134.919 28.2539 134.919 28.7273V34.829C134.919 35.1396 134.941 35.3763 134.985 35.539C135.045 35.6869 135.156 35.7905 135.318 35.8497C135.496 35.9088 135.762 35.9384 136.117 35.9384V36.6706H130.637ZM148.882 36.9147C147.255 36.9147 146.013 36.4635 145.155 35.5612C144.312 34.6441 143.89 33.2832 143.89 31.4786C143.89 30.2508 144.082 29.2302 144.467 28.4166C144.866 27.6031 145.436 26.9966 146.175 26.5972C146.93 26.1978 147.854 25.9981 148.949 25.9981C149.807 25.9981 150.546 26.1238 151.168 26.3753C151.789 26.612 152.292 26.967 152.677 27.4403C153.076 27.8989 153.364 28.4536 153.542 29.1045C153.734 29.7553 153.83 30.5023 153.83 31.3455V31.5452H145.776V30.7464H150.524C150.524 29.8441 150.48 29.1045 150.391 28.5276C150.317 27.9507 150.162 27.5217 149.925 27.2407C149.703 26.9448 149.37 26.7969 148.927 26.7969C148.557 26.7969 148.239 26.9152 147.973 27.1519C147.721 27.3886 147.529 27.8028 147.396 28.3944C147.263 28.9861 147.196 29.8071 147.196 30.8573C147.196 31.6709 147.24 32.3735 147.329 32.9652C147.418 33.5421 147.558 34.0228 147.751 34.4074C147.958 34.792 148.231 35.0805 148.572 35.2728C148.927 35.4503 149.356 35.539 149.859 35.539C150.376 35.539 150.82 35.4577 151.19 35.2949C151.574 35.1174 151.9 34.8734 152.166 34.5627C152.447 34.2521 152.677 33.8897 152.854 33.4755L153.608 33.8749C153.416 34.3335 153.15 34.7994 152.81 35.2728C152.469 35.7461 151.989 36.1381 151.367 36.4487C150.761 36.7594 149.933 36.9147 148.882 36.9147ZM160.07 36.6706V35.9384C160.499 35.9384 160.809 35.9088 161.002 35.8497C161.209 35.7905 161.342 35.6869 161.401 35.539C161.46 35.3763 161.49 35.1396 161.49 34.829V28.2613C161.49 27.9211 161.446 27.6992 161.357 27.5957C161.283 27.4773 161.12 27.4182 160.869 27.4182H160.136V26.6859L163.664 26.1312H164.641V34.829C164.641 35.1396 164.67 35.3763 164.729 35.539C164.789 35.6869 164.907 35.7905 165.084 35.8497C165.277 35.9088 165.558 35.9384 165.928 35.9384V36.6706H160.07ZM162.976 24.8887C162.488 24.8887 162.059 24.7186 161.69 24.3784C161.335 24.0382 161.157 23.624 161.157 23.1358C161.157 22.6329 161.335 22.2113 161.69 21.8711C162.059 21.5309 162.488 21.3608 162.976 21.3608C163.317 21.3608 163.62 21.4422 163.886 21.6049C164.167 21.7676 164.389 21.9821 164.552 22.2483C164.715 22.5146 164.796 22.8104 164.796 23.1358C164.796 23.624 164.611 24.0382 164.241 24.3784C163.886 24.7186 163.465 24.8887 162.976 24.8887ZM171.485 36.9369C170.938 36.9369 170.501 36.8851 170.176 36.7816C169.851 36.6928 169.577 36.604 169.355 36.5153C169.133 36.4265 168.911 36.3822 168.689 36.3822C168.527 36.3822 168.401 36.4118 168.312 36.4709C168.223 36.5301 168.149 36.604 168.09 36.6928H167.558L167.358 33.0761H168.068C168.246 34.0228 168.63 34.7698 169.222 35.3171C169.814 35.8644 170.524 36.1381 171.352 36.1381C171.884 36.1381 172.343 36.0124 172.728 35.7609C173.127 35.4946 173.327 35.0805 173.327 34.5184C173.327 34.2225 173.268 33.9858 173.149 33.8083C173.031 33.616 172.839 33.4459 172.572 33.298C172.306 33.1353 171.958 32.9726 171.529 32.8099L170.331 32.4771C169.296 32.1073 168.556 31.6783 168.113 31.1901C167.669 30.702 167.447 30.0881 167.447 29.3485C167.447 28.3131 167.802 27.4995 168.512 26.9078C169.237 26.3014 170.213 25.9981 171.441 25.9981C171.929 25.9981 172.313 26.0351 172.595 26.1091C172.89 26.183 173.134 26.257 173.327 26.3309C173.534 26.4049 173.726 26.4419 173.904 26.4419C174.081 26.4419 174.199 26.3975 174.259 26.3088C174.318 26.22 174.362 26.1312 174.392 26.0425H174.946L175.102 29.282H174.458C174.31 28.7642 174.103 28.3205 173.837 27.9507C173.571 27.5661 173.253 27.2776 172.883 27.0853C172.528 26.8782 172.114 26.7747 171.64 26.7747C171.093 26.7747 170.657 26.9004 170.331 27.1519C170.006 27.4034 169.843 27.7288 169.843 28.1282C169.843 28.424 169.932 28.6755 170.109 28.8826C170.302 29.0749 170.531 29.2376 170.797 29.3707C171.078 29.4891 171.352 29.6 171.618 29.7035L172.639 30.0142C173.349 30.2361 173.926 30.5023 174.37 30.8129C174.828 31.1088 175.168 31.4638 175.39 31.878C175.612 32.2774 175.723 32.7581 175.723 33.3202C175.723 34.0154 175.553 34.6367 175.213 35.184C174.887 35.7313 174.407 36.1603 173.77 36.4709C173.149 36.7816 172.387 36.9369 171.485 36.9369ZM182.156 36.6706V35.9384C182.659 35.9384 183.022 35.9088 183.244 35.8497C183.465 35.7905 183.606 35.6721 183.665 35.4946C183.739 35.3171 183.776 35.0509 183.776 34.6959V24.0234C183.776 23.6536 183.739 23.3799 183.665 23.2024C183.606 23.0249 183.458 22.9066 183.221 22.8474C183 22.7882 182.645 22.7586 182.156 22.7586V22.0264H193.672V25.5987H192.895C192.718 24.8739 192.503 24.3118 192.252 23.9124C192.015 23.513 191.69 23.2394 191.276 23.0915C190.862 22.9435 190.299 22.8696 189.589 22.8696H187.992C187.666 22.8696 187.445 22.9214 187.326 23.0249C187.208 23.1285 187.149 23.3281 187.149 23.624V28.5276H189.612C190.055 28.5276 190.396 28.4758 190.632 28.3722C190.869 28.2687 191.039 28.069 191.143 27.7732C191.261 27.4773 191.357 27.0705 191.431 26.5528H192.074V31.4786H191.431C191.357 30.9461 191.261 30.5393 191.143 30.2582C191.039 29.9624 190.869 29.7627 190.632 29.6592C190.396 29.5556 190.055 29.5038 189.612 29.5038H187.149V34.363C187.149 34.7772 187.193 35.0879 187.282 35.2949C187.385 35.502 187.6 35.6426 187.925 35.7165C188.266 35.7905 188.813 35.8275 189.567 35.8275C190.336 35.8275 190.972 35.7387 191.475 35.5612C191.993 35.3837 192.415 35.0731 192.74 34.6293C193.066 34.1707 193.317 33.5347 193.495 32.7211H194.249L193.983 36.6706H182.156ZM195.432 36.6706V35.9384C195.861 35.9384 196.172 35.9088 196.364 35.8497C196.571 35.7905 196.704 35.6869 196.763 35.539C196.823 35.3763 196.852 35.1396 196.852 34.829V28.2613C196.852 27.9211 196.808 27.6992 196.719 27.5957C196.645 27.4773 196.482 27.4182 196.231 27.4182H195.499V26.6859L199.027 26.1312H200.003V34.829C200.003 35.1396 200.033 35.3763 200.092 35.539C200.151 35.6869 200.269 35.7905 200.447 35.8497C200.639 35.9088 200.92 35.9384 201.29 35.9384V36.6706H195.432ZM198.339 24.8887C197.851 24.8887 197.422 24.7186 197.052 24.3784C196.697 24.0382 196.519 23.624 196.519 23.1358C196.519 22.6329 196.697 22.2113 197.052 21.8711C197.422 21.5309 197.851 21.3608 198.339 21.3608C198.679 21.3608 198.982 21.4422 199.249 21.6049C199.53 21.7676 199.751 21.9821 199.914 22.2483C200.077 22.5146 200.158 22.8104 200.158 23.1358C200.158 23.624 199.973 24.0382 199.604 24.3784C199.249 24.7186 198.827 24.8887 198.339 24.8887ZM202.365 36.6706V35.9384C202.78 35.9384 203.09 35.9088 203.297 35.8497C203.504 35.7905 203.638 35.6869 203.697 35.539C203.756 35.3763 203.785 35.1396 203.785 34.829V23.513C203.785 23.1728 203.741 22.9435 203.652 22.8252C203.578 22.7069 203.408 22.6477 203.142 22.6477H202.41V21.9155L205.982 21.3608H206.936V34.829C206.936 35.1396 206.966 35.3763 207.025 35.539C207.084 35.6869 207.202 35.7905 207.38 35.8497C207.572 35.9088 207.853 35.9384 208.223 35.9384V36.6706H202.365ZM214.32 36.9147C212.693 36.9147 211.45 36.4635 210.592 35.5612C209.749 34.6441 209.328 33.2832 209.328 31.4786C209.328 30.2508 209.52 29.2302 209.905 28.4166C210.304 27.6031 210.873 26.9966 211.613 26.5972C212.367 26.1978 213.292 25.9981 214.387 25.9981C215.245 25.9981 215.984 26.1238 216.605 26.3753C217.227 26.612 217.73 26.967 218.114 27.4403C218.514 27.8989 218.802 28.4536 218.98 29.1045C219.172 29.7553 219.268 30.5023 219.268 31.3455V31.5452H211.214V30.7464H215.962C215.962 29.8441 215.918 29.1045 215.829 28.5276C215.755 27.9507 215.6 27.5217 215.363 27.2407C215.141 26.9448 214.808 26.7969 214.364 26.7969C213.995 26.7969 213.677 26.9152 213.41 27.1519C213.159 27.3886 212.967 27.8028 212.833 28.3944C212.7 28.9861 212.634 29.8071 212.634 30.8573C212.634 31.6709 212.678 32.3735 212.767 32.9652C212.856 33.5421 212.996 34.0228 213.188 34.4074C213.395 34.792 213.669 35.0805 214.009 35.2728C214.364 35.4503 214.793 35.539 215.296 35.539C215.814 35.539 216.258 35.4577 216.628 35.2949C217.012 35.1174 217.338 34.8734 217.604 34.5627C217.885 34.2521 218.114 33.8897 218.292 33.4755L219.046 33.8749C218.854 34.3335 218.588 34.7994 218.247 35.2728C217.907 35.7461 217.426 36.1381 216.805 36.4487C216.199 36.7594 215.37 36.9147 214.32 36.9147ZM225.847 36.9147C224.22 36.9147 222.978 36.4635 222.12 35.5612C221.277 34.6441 220.855 33.2832 220.855 31.4786C220.855 30.2508 221.047 29.2302 221.432 28.4166C221.831 27.6031 222.401 26.9966 223.14 26.5972C223.895 26.1978 224.819 25.9981 225.914 25.9981C226.772 25.9981 227.512 26.1238 228.133 26.3753C228.754 26.612 229.257 26.967 229.642 27.4403C230.041 27.8989 230.329 28.4536 230.507 29.1045C230.699 29.7553 230.795 30.5023 230.795 31.3455V31.5452H222.741V30.7464H227.489C227.489 29.8441 227.445 29.1045 227.356 28.5276C227.282 27.9507 227.127 27.5217 226.89 27.2407C226.668 26.9448 226.336 26.7969 225.892 26.7969C225.522 26.7969 225.204 26.9152 224.938 27.1519C224.686 27.3886 224.494 27.8028 224.361 28.3944C224.228 28.9861 224.161 29.8071 224.161 30.8573C224.161 31.6709 224.206 32.3735 224.294 32.9652C224.383 33.5421 224.524 34.0228 224.716 34.4074C224.923 34.792 225.197 35.0805 225.537 35.2728C225.892 35.4503 226.321 35.539 226.824 35.539C227.341 35.539 227.785 35.4577 228.155 35.2949C228.54 35.1174 228.865 34.8734 229.131 34.5627C229.412 34.2521 229.642 33.8897 229.819 33.4755L230.574 33.8749C230.381 34.3335 230.115 34.7994 229.775 35.2728C229.435 35.7461 228.954 36.1381 228.333 36.4487C227.726 36.7594 226.898 36.9147 225.847 36.9147ZM239.216 36.6706V35.9384C239.557 35.9384 239.808 35.9162 239.971 35.8718C240.134 35.8275 240.237 35.7313 240.282 35.5834C240.341 35.4355 240.37 35.221 240.37 34.9399V29.6148C240.37 29.0675 240.304 28.6311 240.171 28.3057C240.052 27.9655 239.867 27.7214 239.616 27.5735C239.379 27.4256 239.091 27.3516 238.751 27.3516C238.307 27.3516 237.922 27.4625 237.597 27.6844C237.271 27.9063 236.909 28.2095 236.51 28.5941L236.443 27.8397C236.739 27.5291 237.072 27.2333 237.441 26.9522C237.811 26.6712 238.225 26.4419 238.684 26.2644C239.157 26.0869 239.697 25.9981 240.304 25.9981C241.28 25.9981 242.057 26.2792 242.633 26.8413C243.21 27.3886 243.499 28.2687 243.499 29.4817V34.829C243.499 35.1396 243.528 35.3763 243.588 35.539C243.661 35.6869 243.795 35.7905 243.987 35.8497C244.179 35.9088 244.475 35.9384 244.874 35.9384V36.6706H239.216ZM232.138 36.6706V35.9384C232.567 35.9384 232.878 35.9162 233.07 35.8718C233.277 35.8127 233.411 35.7017 233.47 35.539C233.529 35.3763 233.558 35.1396 233.558 34.829V28.2613C233.558 27.9359 233.514 27.714 233.425 27.5957C233.351 27.4773 233.181 27.4182 232.915 27.4182H232.183V26.6859L235.666 26.1312H236.62V27.5957H236.709V34.8734C236.709 35.184 236.739 35.4207 236.798 35.5834C236.872 35.7313 236.99 35.8275 237.153 35.8718C237.33 35.9162 237.589 35.9384 237.93 35.9384V36.6706H232.138ZM248.692 36.8703C248.233 36.8703 247.834 36.7076 247.494 36.3822C247.168 36.0419 247.006 35.6426 247.006 35.184C247.006 34.7255 247.176 34.3261 247.516 33.9858C247.856 33.6456 248.255 33.4755 248.714 33.4755C249.173 33.4755 249.572 33.6456 249.912 33.9858C250.252 34.3113 250.423 34.7107 250.423 35.184C250.423 35.6426 250.252 36.0419 249.912 36.3822C249.572 36.7076 249.165 36.8703 248.692 36.8703ZM46.0482 65.6706V64.9384C46.5659 64.9384 46.9357 64.9088 47.1576 64.8497C47.3943 64.7905 47.5348 64.6721 47.5792 64.4946C47.6383 64.3171 47.6679 64.0509 47.6679 63.6959V53.0456C47.6679 52.6758 47.6309 52.4021 47.557 52.2246C47.4978 52.0323 47.3499 51.9066 47.1132 51.8474C46.8913 51.7882 46.5363 51.7586 46.0482 51.7586V51.0264H52.6381V51.7586C52.1647 51.7586 51.8097 51.7882 51.573 51.8474C51.3512 51.9066 51.2032 52.0323 51.1293 52.2246C51.0701 52.4021 51.0405 52.6758 51.0405 53.0456V63.6959C51.0405 64.0657 51.0775 64.3393 51.1515 64.5168C51.2254 64.6943 51.3733 64.8127 51.5952 64.8718C51.8171 64.9162 52.1647 64.9384 52.6381 64.9384V65.6706H46.0482ZM55.635 56.285L55.5463 55.5972C55.7386 55.5676 55.9531 55.501 56.1897 55.3975C56.4412 55.294 56.6557 55.1534 56.8332 54.9759C57.0255 54.7984 57.1216 54.5913 57.1216 54.3547C57.1216 54.1772 57.0699 54.0588 56.9663 53.9997C56.8776 53.9405 56.7518 53.8887 56.5891 53.8443C56.3672 53.7704 56.1453 53.6742 55.9235 53.5559C55.7016 53.4228 55.5241 53.2453 55.391 53.0234C55.2578 52.8015 55.1913 52.5204 55.1913 52.1802C55.1913 51.7217 55.3392 51.3223 55.635 50.9821C55.9309 50.6271 56.345 50.4495 56.8776 50.4495C57.3065 50.4495 57.7059 50.6123 58.0757 50.9377C58.4455 51.2483 58.6304 51.8104 58.6304 52.624C58.6304 53.2157 58.5121 53.7778 58.2754 54.3103C58.0387 54.828 57.6985 55.2644 57.2548 55.6194C56.811 55.9744 56.2711 56.1963 55.635 56.285ZM74.6412 65.6706V64.9384C74.9815 64.9384 75.2329 64.9162 75.3956 64.8718C75.5584 64.8275 75.6619 64.7313 75.7063 64.5834C75.7654 64.4355 75.795 64.221 75.795 63.9399V58.6148C75.795 58.0823 75.7285 57.6533 75.5953 57.3279C75.4622 56.9877 75.2699 56.7436 75.0184 56.5957C74.767 56.433 74.4711 56.3516 74.1309 56.3516C73.8055 56.3516 73.517 56.4182 73.2656 56.5513C73.0141 56.6844 72.7922 56.8767 72.5999 57.1282C72.4076 57.3649 72.2449 57.6607 72.1118 58.0157L71.668 57.3944C72.023 56.6252 72.526 56.0336 73.1768 55.6194C73.8425 55.2052 74.6486 54.9981 75.5953 54.9981C76.6308 54.9981 77.4443 55.2792 78.036 55.8413C78.6425 56.3886 78.9457 57.2687 78.9457 58.4817V63.829C78.9457 64.1396 78.9753 64.3763 79.0345 64.539C79.0937 64.6869 79.2194 64.7905 79.4117 64.8497C79.604 64.9088 79.8998 64.9384 80.2992 64.9384V65.6706H74.6412ZM60.8846 65.6706V64.9384C61.3136 64.9384 61.6242 64.9162 61.8165 64.8718C62.0236 64.8127 62.1567 64.7017 62.2159 64.539C62.2751 64.3763 62.3046 64.1396 62.3046 63.829V57.2613C62.3046 56.9359 62.2603 56.714 62.1715 56.5957C62.0976 56.4773 61.9274 56.4182 61.6612 56.4182H60.929V55.6859L64.4125 55.1312H65.3666V56.5513H65.4554V63.8734C65.4554 64.184 65.4849 64.4207 65.5441 64.5834C65.6181 64.7313 65.7364 64.8275 65.8991 64.8718C66.0766 64.9162 66.3355 64.9384 66.6757 64.9384V65.6706H60.8846ZM67.9182 65.6706V64.9384C68.2585 64.9384 68.5025 64.9162 68.6504 64.8718C68.8132 64.8275 68.9241 64.7313 68.9833 64.5834C69.0424 64.4355 69.072 64.221 69.072 63.9399V58.6148C69.072 58.0675 69.0055 57.6311 68.8723 57.3057C68.754 56.9655 68.5691 56.7214 68.3176 56.5735C68.081 56.4256 67.7777 56.3516 67.4079 56.3516C67.1417 56.3516 66.8902 56.396 66.6535 56.4847C66.4168 56.5735 66.1802 56.714 65.9435 56.9063C65.7216 57.0986 65.4775 57.3501 65.2113 57.6607L65.1225 56.8397C65.4332 56.5143 65.7734 56.2185 66.1432 55.9522C66.513 55.6712 66.9346 55.4419 67.4079 55.2644C67.8813 55.0869 68.4064 54.9981 68.9833 54.9981C69.7081 54.9981 70.3072 55.1312 70.7805 55.3975C71.2539 55.649 71.6089 55.9818 71.8455 56.396C72.0822 56.8101 72.2005 57.2539 72.2005 57.7273V63.829C72.2005 64.1396 72.2227 64.3763 72.2671 64.539C72.3263 64.6869 72.4372 64.7905 72.5999 64.8497C72.7774 64.9088 73.0437 64.9384 73.3987 64.9384V65.6706H67.9182ZM94.7555 65.9147C94.2821 65.9147 93.8902 65.8481 93.5795 65.715C93.2689 65.5819 93.0396 65.397 92.8917 65.1603C92.7438 64.9236 92.6698 64.6574 92.6698 64.3615V57.7938C92.6698 57.1726 92.5515 56.7066 92.3148 56.396C92.0781 56.0705 91.6418 55.9078 91.0057 55.9078C90.7838 55.9078 90.5693 55.93 90.3622 55.9744C90.1699 56.0188 90.0146 56.0853 89.8963 56.1741C89.7779 56.2628 89.7188 56.3664 89.7188 56.4847C89.7188 56.6179 89.7632 56.7362 89.8519 56.8397C89.9555 56.9433 90.0516 57.0616 90.1404 57.1947C90.2291 57.3131 90.2735 57.498 90.2735 57.7494C90.2735 58.1192 90.1404 58.4447 89.8741 58.7257C89.6078 59.0068 89.2306 59.1473 88.7425 59.1473C88.2544 59.1473 87.8772 59.0068 87.6109 58.7257C87.3446 58.4447 87.2115 58.1266 87.2115 57.7716C87.2115 57.3427 87.3742 56.9211 87.6997 56.5069C88.0399 56.0779 88.5724 55.7229 89.2972 55.4419C90.022 55.1608 90.9687 55.0203 92.1373 55.0203C93.4094 55.0203 94.3339 55.3014 94.9108 55.8635C95.5025 56.4256 95.7983 57.3279 95.7983 58.5704V63.4518C95.7983 63.9991 95.8501 64.3615 95.9536 64.539C96.0572 64.7017 96.2125 64.7831 96.4196 64.7831C96.5971 64.7831 96.7376 64.7609 96.8412 64.7165C96.9595 64.6574 97.0704 64.6056 97.174 64.5612L97.4181 65.2047C97.0483 65.4413 96.6489 65.6188 96.2199 65.7372C95.7909 65.8555 95.3028 65.9147 94.7555 65.9147ZM89.6078 65.9147C88.6316 65.9147 87.8772 65.715 87.3446 65.3156C86.8121 64.9162 86.5459 64.3319 86.5459 63.5627C86.5459 62.8231 86.8417 62.1723 87.4334 61.6102C88.0251 61.0481 88.8534 60.5747 89.9185 60.1901C90.9835 59.7908 92.226 59.4949 93.6461 59.3026V60.1458C92.2556 60.412 91.2424 60.7744 90.6063 61.233C89.985 61.6915 89.6744 62.298 89.6744 63.0524C89.6744 63.5997 89.7927 63.9917 90.0294 64.2284C90.2661 64.4651 90.6211 64.5834 91.0944 64.5834C91.4199 64.5834 91.7231 64.5094 92.0042 64.3615C92.3 64.1988 92.5663 64.0213 92.8029 63.829C93.0396 63.6219 93.2319 63.4444 93.3798 63.2965L93.6239 64.0287C93.3428 64.3097 93.0174 64.5982 92.6476 64.894C92.2778 65.1899 91.8488 65.4339 91.3607 65.6262C90.8726 65.8185 90.2883 65.9147 89.6078 65.9147ZM110.82 65.9369C108.661 65.9369 107.093 65.5227 106.116 64.6943C105.155 63.8512 104.674 62.5199 104.674 60.7005V53.0234C104.674 52.6536 104.645 52.3799 104.585 52.2024C104.526 52.0249 104.386 51.9066 104.164 51.8474C103.942 51.7882 103.579 51.7586 103.077 51.7586V51.0264H109.666V51.7586C109.178 51.7586 108.816 51.7882 108.579 51.8474C108.357 51.8918 108.209 52.0101 108.135 52.2024C108.076 52.3799 108.047 52.6536 108.047 53.0234V60.8114C108.047 61.7285 108.135 62.4977 108.313 63.119C108.505 63.7402 108.808 64.2062 109.223 64.5168C109.652 64.8275 110.199 64.9828 110.865 64.9828C111.545 64.9828 112.092 64.8349 112.507 64.539C112.935 64.2284 113.246 63.7624 113.438 63.1412C113.631 62.5199 113.727 61.7433 113.727 60.8114V53.0234C113.727 52.6536 113.69 52.3799 113.616 52.2024C113.557 52.0101 113.409 51.8918 113.172 51.8474C112.95 51.7882 112.595 51.7586 112.107 51.7586V51.0264H118.653V51.7586C118.15 51.7586 117.787 51.7882 117.565 51.8474C117.344 51.9066 117.203 52.0249 117.144 52.2024C117.085 52.3799 117.055 52.6536 117.055 53.0234V60.7005C117.055 62.5051 116.56 63.829 115.568 64.6721C114.592 65.5153 113.009 65.9369 110.82 65.9369ZM127.054 65.6706V64.9384H127.919C128.245 64.9384 128.43 64.8497 128.474 64.6721C128.519 64.4798 128.445 64.2284 128.252 63.9177L125.656 59.5911H125.213L125.19 58.8367L121.574 52.8902C121.381 52.5648 121.211 52.3207 121.063 52.158C120.915 51.9953 120.738 51.8918 120.531 51.8474C120.339 51.7882 120.065 51.7586 119.71 51.7586V51.0264H126.433V51.7586H125.745C125.464 51.7586 125.286 51.8326 125.213 51.9805C125.139 52.1285 125.176 52.3429 125.323 52.624L127.52 56.3516H127.897L127.942 57.0394L131.758 63.2743C132.039 63.7033 132.283 64.0435 132.49 64.2949C132.712 64.5316 132.956 64.7017 133.222 64.8053C133.489 64.894 133.829 64.9384 134.243 64.9384V65.6706H127.054ZM119.577 65.6706V64.9384C119.961 64.9384 120.272 64.9014 120.509 64.8275C120.76 64.7387 120.967 64.6056 121.13 64.4281C121.307 64.2506 121.492 64.0213 121.685 63.7402L125.545 58.2376L125.967 59.0142L122.794 64.0287C122.646 64.2949 122.617 64.5168 122.705 64.6943C122.809 64.857 122.994 64.9384 123.26 64.9384H124.192V65.6706H119.577ZM127.564 57.7716L127.431 56.5957L129.717 52.8681C129.894 52.587 129.961 52.3355 129.916 52.1137C129.887 51.877 129.695 51.7586 129.34 51.7586H128.74V51.0264H133.156V51.7586C132.786 51.7586 132.468 51.7956 132.202 51.8696C131.95 51.9435 131.721 52.0767 131.514 52.269C131.307 52.4613 131.078 52.7275 130.826 53.0677L127.564 57.7716ZM134.611 65.9369L140.291 50.7824H142.377L136.719 65.9369H134.611ZM150.993 65.9369C148.833 65.9369 147.265 65.5227 146.289 64.6943C145.328 63.8512 144.847 62.5199 144.847 60.7005V53.0234C144.847 52.6536 144.817 52.3799 144.758 52.2024C144.699 52.0249 144.558 51.9066 144.336 51.8474C144.115 51.7882 143.752 51.7586 143.249 51.7586V51.0264H149.839V51.7586C149.351 51.7586 148.989 51.7882 148.752 51.8474C148.53 51.8918 148.382 52.0101 148.308 52.2024C148.249 52.3799 148.219 52.6536 148.219 53.0234V60.8114C148.219 61.7285 148.308 62.4977 148.486 63.119C148.678 63.7402 148.981 64.2062 149.395 64.5168C149.824 64.8275 150.372 64.9828 151.037 64.9828C151.718 64.9828 152.265 64.8349 152.679 64.539C153.108 64.2284 153.419 63.7624 153.611 63.1412C153.803 62.5199 153.9 61.7433 153.9 60.8114V53.0234C153.9 52.6536 153.863 52.3799 153.789 52.2024C153.729 52.0101 153.581 51.8918 153.345 51.8474C153.123 51.7882 152.768 51.7586 152.28 51.7586V51.0264H158.825V51.7586C158.322 51.7586 157.96 51.7882 157.738 51.8474C157.516 51.9066 157.376 52.0249 157.317 52.2024C157.257 52.3799 157.228 52.6536 157.228 53.0234V60.7005C157.228 62.5051 156.732 63.829 155.741 64.6721C154.765 65.5153 153.182 65.9369 150.993 65.9369ZM159.871 65.6706V64.9384C160.388 64.9384 160.758 64.9088 160.98 64.8497C161.217 64.7905 161.357 64.6721 161.402 64.4946C161.461 64.3171 161.49 64.0509 161.49 63.6959V53.0456C161.49 52.6758 161.453 52.4021 161.38 52.2246C161.32 52.0323 161.172 51.9066 160.936 51.8474C160.714 51.7882 160.359 51.7586 159.871 51.7586V51.0264H166.461V51.7586C165.987 51.7586 165.632 51.7882 165.396 51.8474C165.174 51.9066 165.026 52.0323 164.952 52.2246C164.893 52.4021 164.863 52.6758 164.863 53.0456V63.6959C164.863 64.0657 164.9 64.3393 164.974 64.5168C165.048 64.6943 165.196 64.8127 165.418 64.8718C165.64 64.9162 165.987 64.9384 166.461 64.9384V65.6706H159.871ZM173.045 65.6706V64.9384C173.622 64.9384 174.029 64.9088 174.265 64.8497C174.517 64.7905 174.665 64.6721 174.709 64.4946C174.768 64.3171 174.798 64.0509 174.798 63.6959V53.0234C174.798 52.6536 174.761 52.3799 174.687 52.2024C174.628 52.0249 174.472 51.9066 174.221 51.8474C173.969 51.7882 173.577 51.7586 173.045 51.7586V51.0264H180.323C182.852 51.0412 184.775 51.6181 186.092 52.7571C187.408 53.8813 188.066 55.6786 188.066 58.1488C188.066 59.9683 187.733 61.4327 187.068 62.5421C186.417 63.6367 185.463 64.4355 184.206 64.9384C182.948 65.4265 181.41 65.6706 179.59 65.6706H173.045ZM179.701 64.8275C180.53 64.8275 181.24 64.6943 181.831 64.4281C182.423 64.1618 182.911 63.7624 183.296 63.2299C183.68 62.6974 183.969 62.017 184.161 61.1886C184.354 60.3455 184.45 59.3544 184.45 58.2154C184.45 56.7954 184.28 55.6194 183.939 54.6875C183.599 53.7408 183.089 53.0382 182.408 52.5796C181.728 52.1063 180.87 51.8696 179.835 51.8696C179.45 51.8696 179.132 51.8844 178.88 51.914C178.644 51.9435 178.466 52.0175 178.348 52.1358C178.23 52.2542 178.17 52.4391 178.17 52.6906V63.5406C178.17 63.8956 178.215 64.1692 178.304 64.3615C178.407 64.5538 178.57 64.6795 178.792 64.7387C179.028 64.7979 179.332 64.8275 179.701 64.8275ZM194.31 65.9147C192.682 65.9147 191.44 65.4635 190.582 64.5612C189.739 63.6441 189.317 62.2832 189.317 60.4786C189.317 59.2508 189.509 58.2302 189.894 57.4166C190.293 56.6031 190.863 55.9966 191.603 55.5972C192.357 55.1978 193.281 54.9981 194.376 54.9981C195.234 54.9981 195.974 55.1238 196.595 55.3753C197.216 55.612 197.719 55.967 198.104 56.4403C198.503 56.8989 198.792 57.4536 198.969 58.1045C199.161 58.7553 199.257 59.5023 199.257 60.3455V60.5452H191.203V59.7464H195.951C195.951 58.8441 195.907 58.1045 195.818 57.5276C195.744 56.9507 195.589 56.5217 195.352 56.2407C195.13 55.9448 194.798 55.7969 194.354 55.7969C193.984 55.7969 193.666 55.9152 193.4 56.1519C193.148 56.3886 192.956 56.8028 192.823 57.3944C192.69 57.9861 192.623 58.8071 192.623 59.8573C192.623 60.6709 192.668 61.3735 192.756 61.9652C192.845 62.5421 192.986 63.0228 193.178 63.4074C193.385 63.792 193.659 64.0805 193.999 64.2728C194.354 64.4503 194.783 64.539 195.286 64.539C195.804 64.539 196.247 64.4577 196.617 64.2949C197.002 64.1174 197.327 63.8734 197.593 63.5627C197.874 63.2521 198.104 62.8897 198.281 62.4755L199.036 62.8749C198.843 63.3335 198.577 63.7994 198.237 64.2728C197.897 64.7461 197.416 65.1381 196.795 65.4487C196.188 65.7594 195.36 65.9147 194.31 65.9147ZM205.038 65.9369C204.491 65.9369 204.054 65.8851 203.729 65.7816C203.404 65.6928 203.13 65.604 202.908 65.5153C202.686 65.4265 202.464 65.3822 202.242 65.3822C202.08 65.3822 201.954 65.4118 201.865 65.4709C201.777 65.5301 201.703 65.604 201.643 65.6928H201.111L200.911 62.0761H201.621C201.799 63.0228 202.183 63.7698 202.775 64.3171C203.367 64.8644 204.077 65.1381 204.905 65.1381C205.438 65.1381 205.896 65.0124 206.281 64.7609C206.68 64.4946 206.88 64.0805 206.88 63.5184C206.88 63.2225 206.821 62.9858 206.702 62.8083C206.584 62.616 206.392 62.4459 206.125 62.298C205.859 62.1353 205.512 61.9726 205.083 61.8099L203.884 61.4771C202.849 61.1073 202.109 60.6783 201.666 60.1901C201.222 59.702 201 59.0881 201 58.3485C201 57.3131 201.355 56.4995 202.065 55.9078C202.79 55.3014 203.766 54.9981 204.994 54.9981C205.482 54.9981 205.867 55.0351 206.148 55.1091C206.443 55.183 206.687 55.257 206.88 55.3309C207.087 55.4049 207.279 55.4419 207.457 55.4419C207.634 55.4419 207.753 55.3975 207.812 55.3088C207.871 55.22 207.915 55.1312 207.945 55.0425H208.5L208.655 58.282H208.011C207.863 57.7642 207.656 57.3205 207.39 56.9507C207.124 56.5661 206.806 56.2776 206.436 56.0853C206.081 55.8782 205.667 55.7747 205.193 55.7747C204.646 55.7747 204.21 55.9004 203.884 56.1519C203.559 56.4034 203.396 56.7288 203.396 57.1282C203.396 57.424 203.485 57.6755 203.663 57.8826C203.855 58.0749 204.084 58.2376 204.35 58.3707C204.631 58.4891 204.905 58.6 205.171 58.7035L206.192 59.0142C206.902 59.2361 207.479 59.5023 207.923 59.8129C208.381 60.1088 208.721 60.4638 208.943 60.878C209.165 61.2774 209.276 61.7581 209.276 62.3202C209.276 63.0154 209.106 63.6367 208.766 64.184C208.44 64.7313 207.96 65.1603 207.324 65.4709C206.702 65.7816 205.94 65.9369 205.038 65.9369ZM210.502 65.6706V64.9384C210.931 64.9384 211.242 64.9088 211.434 64.8497C211.641 64.7905 211.774 64.6869 211.834 64.539C211.893 64.3763 211.922 64.1396 211.922 63.829V57.2613C211.922 56.9211 211.878 56.6992 211.789 56.5957C211.715 56.4773 211.553 56.4182 211.301 56.4182H210.569V55.6859L214.097 55.1312H215.073V63.829C215.073 64.1396 215.103 64.3763 215.162 64.539C215.221 64.6869 215.339 64.7905 215.517 64.8497C215.709 64.9088 215.99 64.9384 216.36 64.9384V65.6706H210.502ZM213.409 53.8887C212.921 53.8887 212.492 53.7186 212.122 53.3784C211.767 53.0382 211.59 52.624 211.59 52.1358C211.59 51.6329 211.767 51.2113 212.122 50.8711C212.492 50.5309 212.921 50.3608 213.409 50.3608C213.749 50.3608 214.052 50.4422 214.319 50.6049C214.6 50.7676 214.822 50.9821 214.984 51.2483C215.147 51.5146 215.228 51.8104 215.228 52.1358C215.228 52.624 215.044 53.0382 214.674 53.3784C214.319 53.7186 213.897 53.8887 213.409 53.8887ZM222.184 70.3745C221.252 70.3745 220.424 70.2783 219.699 70.0861C218.974 69.9085 218.405 69.6201 217.99 69.2207C217.591 68.8361 217.391 68.348 217.391 67.7563C217.391 67.135 217.628 66.6025 218.101 66.1588C218.575 65.7298 219.329 65.397 220.364 65.1603L222.206 65.3156C221.57 65.3748 221.067 65.5153 220.697 65.7372C220.327 65.9739 220.061 66.2475 219.899 66.5581C219.751 66.8836 219.677 67.2164 219.677 67.5566C219.677 68.1779 219.921 68.6808 220.409 69.0654C220.912 69.4648 221.674 69.6645 222.694 69.6645C223.315 69.6645 223.87 69.5831 224.358 69.4204C224.861 69.2725 225.253 69.0432 225.534 68.7326C225.815 68.4219 225.956 68.03 225.956 67.5566C225.956 66.9353 225.69 66.499 225.157 66.2475C224.639 65.996 223.855 65.8703 222.805 65.8703H220.564C220.194 65.8703 219.832 65.7816 219.477 65.604C219.137 65.4118 218.863 65.1603 218.656 64.8497C218.449 64.539 218.345 64.1914 218.345 63.8068C218.345 63.156 218.634 62.6086 219.211 62.1649C219.788 61.7063 220.527 61.3513 221.429 61.0999L221.895 61.4771C221.748 61.5066 221.577 61.5584 221.385 61.6324C221.208 61.7063 221.023 61.7951 220.83 61.8986C220.653 61.9874 220.505 62.0983 220.387 62.2315C220.268 62.3498 220.209 62.4755 220.209 62.6086C220.209 62.7566 220.305 62.9045 220.498 63.0524C220.705 63.2003 221.097 63.2743 221.674 63.2743H223.959C225.32 63.2743 226.326 63.5553 226.977 64.1174C227.627 64.6648 227.953 65.4487 227.953 66.4694C227.953 67.3421 227.716 68.0669 227.243 68.6438C226.784 69.2207 226.126 69.6497 225.268 69.9307C224.41 70.2266 223.382 70.3745 222.184 70.3745ZM222.361 61.9874C221.489 61.9874 220.705 61.869 220.009 61.6324C219.314 61.3809 218.76 61.0037 218.345 60.5008C217.946 59.9978 217.746 59.3544 217.746 58.5704C217.746 57.9491 217.865 57.4166 218.101 56.9729C218.353 56.5291 218.693 56.1667 219.122 55.8856C219.566 55.5898 220.069 55.3753 220.631 55.2422C221.193 55.0943 221.784 55.0203 222.406 55.0203C223.278 55.0203 224.062 55.1534 224.758 55.4197C225.468 55.6712 226.03 56.0558 226.444 56.5735C226.858 57.0912 227.065 57.7494 227.065 58.5482C227.065 59.347 226.851 60.0052 226.422 60.523C225.993 61.0259 225.423 61.3957 224.713 61.6324C224.003 61.869 223.219 61.9874 222.361 61.9874ZM222.406 61.2774C222.923 61.2774 223.308 61.0629 223.56 60.6339C223.826 60.2049 223.959 59.4653 223.959 58.4151C223.959 57.779 223.907 57.2613 223.804 56.8619C223.715 56.4625 223.56 56.1741 223.338 55.9966C223.131 55.8191 222.842 55.7303 222.472 55.7303C221.895 55.7303 221.496 55.9448 221.274 56.3738C221.052 56.8028 220.941 57.5276 220.941 58.5482C220.941 59.5245 221.045 60.2271 221.252 60.6561C221.474 61.0703 221.858 61.2774 222.406 61.2774ZM228.33 57.3279C228.049 57.3279 227.834 57.2613 227.687 57.1282C227.539 56.995 227.465 56.8323 227.465 56.64C227.465 56.5069 227.479 56.4034 227.509 56.3294C227.539 56.2554 227.553 56.1889 227.553 56.1297C227.553 56.0853 227.524 56.041 227.465 55.9966C227.405 55.9374 227.309 55.9078 227.176 55.9078C227.028 55.9078 226.851 55.967 226.644 56.0853C226.451 56.1889 226.266 56.4256 226.089 56.7954L225.645 56.1963C225.882 55.7673 226.178 55.4641 226.533 55.2866C226.903 55.0943 227.295 54.9981 227.709 54.9981C228.212 54.9981 228.604 55.1165 228.885 55.3531C229.166 55.575 229.306 55.8856 229.306 56.285C229.306 56.5809 229.225 56.8323 229.062 57.0394C228.914 57.2317 228.67 57.3279 228.33 57.3279ZM236.54 65.6706V64.9384C236.881 64.9384 237.132 64.9162 237.295 64.8718C237.458 64.8275 237.561 64.7313 237.605 64.5834C237.665 64.4355 237.694 64.221 237.694 63.9399V58.6148C237.694 58.0675 237.628 57.6311 237.495 57.3057C237.376 56.9655 237.191 56.7214 236.94 56.5735C236.703 56.4256 236.415 56.3516 236.075 56.3516C235.631 56.3516 235.246 56.4625 234.921 56.6844C234.595 56.9063 234.233 57.2095 233.834 57.5941L233.767 56.8397C234.063 56.5291 234.396 56.2333 234.765 55.9522C235.135 55.6712 235.549 55.4419 236.008 55.2644C236.481 55.0869 237.021 54.9981 237.628 54.9981C238.604 54.9981 239.381 55.2792 239.957 55.8413C240.534 56.3886 240.823 57.2687 240.823 58.4817V63.829C240.823 64.1396 240.852 64.3763 240.912 64.539C240.985 64.6869 241.119 64.7905 241.311 64.8497C241.503 64.9088 241.799 64.9384 242.198 64.9384V65.6706H236.54ZM229.462 65.6706V64.9384C229.891 64.9384 230.202 64.9162 230.394 64.8718C230.601 64.8127 230.735 64.7017 230.794 64.539C230.853 64.3763 230.882 64.1396 230.882 63.829V57.2613C230.882 56.9359 230.838 56.714 230.749 56.5957C230.675 56.4773 230.505 56.4182 230.239 56.4182H229.507V55.6859L232.99 55.1312H233.944V56.5957H234.033V63.8734C234.033 64.184 234.063 64.4207 234.122 64.5834C234.196 64.7313 234.314 64.8275 234.477 64.8718C234.654 64.9162 234.913 64.9384 235.254 64.9384V65.6706H229.462ZM248.09 65.9147C246.463 65.9147 245.22 65.4635 244.362 64.5612C243.519 63.6441 243.097 62.2832 243.097 60.4786C243.097 59.2508 243.29 58.2302 243.674 57.4166C244.074 56.6031 244.643 55.9966 245.383 55.5972C246.137 55.1978 247.062 54.9981 248.156 54.9981C249.014 54.9981 249.754 55.1238 250.375 55.3753C250.996 55.612 251.499 55.967 251.884 56.4403C252.283 56.8989 252.572 57.4536 252.749 58.1045C252.942 58.7553 253.038 59.5023 253.038 60.3455V60.5452H244.983V59.7464H249.732C249.732 58.8441 249.687 58.1045 249.599 57.5276C249.525 56.9507 249.369 56.5217 249.133 56.2407C248.911 55.9448 248.578 55.7969 248.134 55.7969C247.764 55.7969 247.446 55.9152 247.18 56.1519C246.929 56.3886 246.736 56.8028 246.603 57.3944C246.47 57.9861 246.403 58.8071 246.403 59.8573C246.403 60.6709 246.448 61.3735 246.537 61.9652C246.625 62.5421 246.766 63.0228 246.958 63.4074C247.165 63.792 247.439 64.0805 247.779 64.2728C248.134 64.4503 248.563 64.539 249.066 64.539C249.584 64.539 250.028 64.4577 250.397 64.2949C250.782 64.1174 251.107 63.8734 251.374 63.5627C251.655 63.2521 251.884 62.8897 252.061 62.4755L252.816 62.8749C252.624 63.3335 252.357 63.7994 252.017 64.2728C251.677 64.7461 251.196 65.1381 250.575 65.4487C249.968 65.7594 249.14 65.9147 248.09 65.9147ZM254.381 65.6706V64.9384C254.81 64.9384 255.12 64.9088 255.313 64.8497C255.52 64.7905 255.653 64.6869 255.712 64.539C255.771 64.3763 255.801 64.1396 255.801 63.829V57.2613C255.801 56.9359 255.756 56.714 255.668 56.5957C255.594 56.4773 255.424 56.4182 255.157 56.4182H254.425V55.6859L257.909 55.1312H258.863V57.1726H258.952V63.829C258.952 64.1396 258.989 64.3763 259.062 64.539C259.151 64.6869 259.314 64.7905 259.551 64.8497C259.802 64.9088 260.172 64.9384 260.66 64.9384V65.6706H254.381ZM258.508 59.6798V58.2598C258.567 58.0675 258.663 57.8012 258.796 57.461C258.944 57.106 259.144 56.7436 259.395 56.3738C259.647 56.004 259.957 55.6859 260.327 55.4197C260.712 55.1534 261.17 55.0203 261.703 55.0203C262.324 55.0203 262.805 55.2052 263.145 55.575C263.485 55.93 263.655 56.3886 263.655 56.9507C263.655 57.3944 263.53 57.7938 263.278 58.1488C263.042 58.4891 262.642 58.6592 262.08 58.6592C261.636 58.6592 261.274 58.5482 260.993 58.3263C260.727 58.0897 260.593 57.7568 260.593 57.3279C260.593 57.106 260.623 56.9359 260.682 56.8175C260.756 56.6992 260.823 56.6105 260.882 56.5513C260.956 56.4773 260.993 56.4108 260.993 56.3516C260.993 56.3072 260.971 56.2702 260.926 56.2407C260.882 56.1963 260.815 56.1741 260.727 56.1741C260.549 56.1741 260.357 56.2776 260.15 56.4847C259.943 56.6918 259.75 56.9729 259.573 57.3279C259.395 57.6829 259.247 58.0675 259.129 58.4817C259.011 58.881 258.952 59.273 258.952 59.6576L258.508 59.6798ZM265.864 65.8703C265.405 65.8703 265.006 65.7076 264.666 65.3822C264.34 65.0419 264.178 64.6426 264.178 64.184C264.178 63.7255 264.348 63.3261 264.688 62.9858C265.028 62.6456 265.427 62.4755 265.886 62.4755C266.345 62.4755 266.744 62.6456 267.084 62.9858C267.424 63.3113 267.595 63.7107 267.595 64.184C267.595 64.6426 267.424 65.0419 267.084 65.3822C266.744 65.7076 266.337 65.8703 265.864 65.8703Z" fill="#0B5616"/>
<defs>
<linearGradient id="paint0_linear_4_128" x1="317.094" y1="58.6286" x2="2.25447" y2="42.6285" gradientUnits="userSpaceOnUse">
<stop stop-color="#FFF6C5" stop-opacity="0.2"/>
<stop offset="0.7" stop-color="#FFF6C5" stop-opacity="0.5"/>
</linearGradient>
</defs>
</svg>
